<?xml version="1.0" ?><!DOCTYPE svg  PUBLIC '-//W3C//DTD SVG 1.1//EN'  'http://www.w3.org/Graphics/SVG/1.1/DTD/svg11.dtd'><svg height="100%" style="fill-rule:evenodd;clip-rule:evenodd;stroke-linejoin:round;stroke-miterlimit:2;" version="1.1" viewBox="0 0 512 512" width="100%" xml:space="preserve" xmlns="http://www.w3.org/2000/svg" xmlns:serif="http://www.serif.com/" xmlns:xlink="http://www.w3.org/1999/xlink"><path d="M256,0c141.29,0 256,114.71 256,256c0,141.29 -114.71,256 -256,256c-141.29,0 -256,-114.71 -256,-256c0,-141.29 114.71,-256 256,-256Zm170.667,256c0,-20.66 -16.768,-37.427 -37.427,-37.427c-10.18,0 -19.163,3.892 -25.75,10.48c-25.45,-18.265 -60.781,-30.241 -99.705,-31.738l17.066,-79.944l55.392,11.677c0.599,14.072 12.276,25.45 26.648,25.45c14.672,0 26.648,-11.976 26.648,-26.648c0,-14.671 -11.976,-26.648 -26.648,-26.648c-10.479,0 -19.462,5.989 -23.654,14.971l-61.979,-13.174c-1.796,-0.3 -3.593,0 -5.09,0.898c-1.497,0.898 -2.395,2.395 -2.994,4.192l-18.863,89.226c-39.822,1.197 -75.453,12.874 -101.202,31.738c-6.587,-6.288 -15.869,-10.48 -25.75,-10.48c-20.66,0 -37.427,16.767 -37.427,37.427c0,15.27 8.983,28.145 22.157,34.133c-0.599,3.593 -0.898,7.486 -0.898,11.378c0,57.488 66.769,103.897 149.408,103.897c82.638,0 149.408,-46.409 149.408,-103.897c0,-3.892 -0.299,-7.485 -0.898,-11.078c12.276,-5.989 21.558,-19.163 21.558,-34.433Zm-107.191,97.011c-18.264,18.264 -52.996,19.462 -63.177,19.462c-10.18,0 -45.211,-1.498 -63.176,-19.462c-2.695,-2.695 -2.695,-7.186 0,-9.881c2.695,-2.695 7.186,-2.695 9.881,0c11.377,11.378 35.929,15.569 53.595,15.569c17.665,0 41.918,-4.191 53.595,-15.569c2.695,-2.695 7.186,-2.695 9.881,0c2.096,2.994 2.096,7.186 -0.599,9.881Zm-148.809,-70.363c0,-14.671 11.976,-26.648 26.648,-26.648c14.671,0 26.648,11.977 26.648,26.648c0,14.671 -11.977,26.648 -26.648,26.648c-14.672,0 -26.648,-11.977 -26.648,-26.648Zm144.018,26.648c-14.671,0 -26.648,-11.977 -26.648,-26.648c0,-14.671 11.977,-26.648 26.648,-26.648c14.672,0 26.648,11.977 26.648,26.648c0,14.671 -11.976,26.648 -26.648,26.648Z" id="Artwork"/></svg>