<?xml version="1.0" encoding="UTF-8"?><svg xmlns="http://www.w3.org/2000/svg" xmlns:xlink="http://www.w3.org/1999/xlink" viewBox="0 0 24 24" version="1.1"><path d="M13.3 2.004a1.744 1.744 0 0 0-.671.098 1.638 1.638 0 0 0-1.035 2.086l.695 2.039-3.934 1.32-.648-1.969a1.639 1.639 0 0 0-2.086-1.031 1.648 1.648 0 0 0-1.055 2.086l.649 1.945-2.043.695c-.867.29-1.32 1.247-1.031 2.114a1.639 1.639 0 0 0 2.086 1.031l2.039-.672 1.32 3.91-1.969.649a1.639 1.639 0 0 0-1.031 2.086c.293.867 1.223 1.347 2.09 1.054l1.945-.644.695 2.039c.29.867 1.243 1.32 2.11 1.031a1.64 1.64 0 0 0 1.035-2.086l-.676-2.039 3.914-1.32.649 1.969a1.639 1.639 0 0 0 2.086 1.03 1.653 1.653 0 0 0 1.054-2.085l-.648-1.945 2.039-.696a1.667 1.667 0 0 0 1.031-2.113 1.639 1.639 0 0 0-2.086-1.031l-2.039.672-1.32-3.91 1.969-.649a1.635 1.635 0 0 0 1.03-2.086 1.653 1.653 0 0 0-2.085-1.059l-1.945.649-.696-2.04a1.655 1.655 0 0 0-1.437-1.128zm.024 7.367l1.32 3.91-3.914 1.32-1.32-3.91z" id="surface1"/><metadata><rdf:RDF xmlns:rdf="http://www.w3.org/1999/02/22-rdf-syntax-ns#" xmlns:rdfs="http://www.w3.org/2000/01/rdf-schema#" xmlns:dc="http://purl.org/dc/elements/1.1/"><rdf:Description about="https://iconscout.com/legal#licenses" dc:title="slack" dc:description="slack" dc:publisher="Iconscout" dc:date="2018-06-22" dc:format="image/svg+xml" dc:language="en"><dc:creator><rdf:Bag><rdf:li>Icons8</rdf:li></rdf:Bag></dc:creator></rdf:Description></rdf:RDF></metadata></svg>