<svg height="388" viewBox="0 0 335 388" width="335" xmlns="http://www.w3.org/2000/svg" xmlns:xlink="http://www.w3.org/1999/xlink"><linearGradient id="a" x1="50%" x2="50%" y1="0%" y2="100%"><stop offset="0" stop-color="#fff"/><stop offset="1" stop-color="#f7fbff"/></linearGradient><linearGradient id="b" x1="50%" x2="50%" y1="0%" y2="100%"><stop offset="0" stop-color="#d0deea"/><stop offset="1" stop-color="#dae1e8"/></linearGradient><linearGradient id="c" x1="50%" x2="50%" y1="0%" y2="100%"><stop offset="0" stop-color="#bdc2c8"/><stop offset="1" stop-color="#dcedef"/></linearGradient><linearGradient id="d" x1="50%" x2="50%" y1="0%" y2="100%"><stop offset="0" stop-color="#adbbca" stop-opacity=".702712"/><stop offset="1" stop-color="#e4e8e9" stop-opacity="0"/></linearGradient><linearGradient id="e" x1="50%" x2="50%" y1="0%" y2="100%"><stop offset="0" stop-color="#7692ae"/><stop offset="1" stop-color="#93b0ce"/></linearGradient><g fill="none" fill-rule="evenodd" opacity=".6"><g transform="translate(57.098655 97.374194)"><path d="m0 29.8729089 56.0986547-29.8729089 56.0986543 29.8729089v68.9374822l-56.0986543 31.0218669-56.0986547-31.0218669z" fill="url(#a)"/><g opacity=".237165"><path d="m0 29.8729089 56.0986547-29.8729089 56.0986543 29.8729089v68.9374822l-56.0986543 31.0218669-56.0986547-31.0218669z" fill="url(#b)"/><path d="m56.0986547 60.8947759 56.0986543-31.021867v68.9374822l-56.0986543 31.0218669z" fill="url(#c)"/><path d="m56.0986547 60.8947759 56.0986543-31.021867v68.9374822l-56.0986543 31.0218669z" fill="url(#c)"/><path d="m56.0986547 60.8947759 56.0986543 37.9156152-56.0986543 31.0218669z" fill="url(#d)"/><g fill="url(#e)"><path d="m0 60.8947759 56.0986547-31.021867v68.9374822l-56.0986547 31.0218669z" transform="matrix(-1 0 0 1 56.098654 0)"/><path d="m0 60.8947759 56.0986547 37.9156152-56.0986547 31.0218669z" transform="matrix(-1 0 0 1 56.098654 0)"/></g></g></g><g transform="translate(110.704036 127.335484)"><path d="m0 29.8729089 56.0986547-29.8729089 56.0986543 29.8729089v68.9374822l-56.0986543 31.0218669-56.0986547-31.0218669z" fill="url(#a)"/><g opacity=".237165"><path d="m0 29.8729089 56.0986547-29.8729089 56.0986543 29.8729089v68.9374822l-56.0986543 31.0218669-56.0986547-31.0218669z" fill="url(#b)"/><path d="m56.0986547 60.8947759 56.0986543-31.021867v68.9374822l-56.0986543 31.0218669z" fill="url(#c)"/><path d="m56.0986547 60.8947759 56.0986543-31.021867v68.9374822l-56.0986543 31.0218669z" fill="url(#c)"/><path d="m56.0986547 60.8947759 56.0986543 37.9156152-56.0986543 31.0218669z" fill="url(#d)"/><g fill="url(#e)"><path d="m0 60.8947759 56.0986547-31.021867v68.9374822l-56.0986547 31.0218669z" transform="matrix(-1 0 0 1 56.098654 0)"/><path d="m0 60.8947759 56.0986547 37.9156152-56.0986547 31.0218669z" transform="matrix(-1 0 0 1 56.098654 0)"/></g></g></g><g transform="translate(166.802691 157.296774)"><path d="m0 29.8729089 56.0986547-29.8729089 56.0986543 29.8729089v68.9374822l-56.0986543 31.0218669-56.0986547-31.0218669z" fill="url(#a)"/><g opacity=".237165"><path d="m0 29.8729089 56.0986547-29.8729089 56.0986543 29.8729089v68.9374822l-56.0986543 31.0218669-56.0986547-31.0218669z" fill="url(#b)"/><path d="m56.0986547 60.8947759 56.0986543-31.021867v68.9374822l-56.0986543 31.0218669z" fill="url(#c)"/><path d="m56.0986547 60.8947759 56.0986543-31.021867v68.9374822l-56.0986543 31.0218669z" fill="url(#c)"/><path d="m56.0986547 60.8947759 56.0986543 37.9156152-56.0986543 31.0218669z" fill="url(#d)"/><g fill="url(#e)"><path d="m0 60.8947759 56.0986547-31.021867v68.9374822l-56.0986547 31.0218669z" transform="matrix(-1 0 0 1 56.098654 0)"/><path d="m0 60.8947759 56.0986547 37.9156152-56.0986547 31.0218669z" transform="matrix(-1 0 0 1 56.098654 0)"/></g></g></g><g transform="translate(110.704036 257.167742)"><path d="m0 29.8729089 56.0986547-29.8729089 56.0986543 29.8729089v68.9374822l-56.0986543 31.0218669-56.0986547-31.0218669z" fill="url(#a)"/><g opacity=".237165"><path d="m0 29.8729089 56.0986547-29.8729089 56.0986543 29.8729089v68.9374822l-56.0986543 31.0218669-56.0986547-31.0218669z" fill="url(#b)"/><path d="m56.0986547 60.8947759 56.0986543-31.021867v68.9374822l-56.0986543 31.0218669z" fill="url(#c)"/><path d="m56.0986547 60.8947759 56.0986543-31.021867v68.9374822l-56.0986543 31.0218669z" fill="url(#c)"/><path d="m56.0986547 60.8947759 56.0986543 37.9156152-56.0986543 31.0218669z" fill="url(#d)"/><g fill="url(#e)"><path d="m0 60.8947759 56.0986547-31.021867v68.9374822l-56.0986547 31.0218669z" transform="matrix(-1 0 0 1 56.098654 0)"/><path d="m0 60.8947759 56.0986547 37.9156152-56.0986547 31.0218669z" transform="matrix(-1 0 0 1 56.098654 0)"/></g></g></g><g transform="translate(1)"><path d="m0 29.8729089 56.0986547-29.8729089 56.0986543 29.8729089v68.9374822l-56.0986543 31.0218669-56.0986547-31.0218669z" fill="url(#a)"/><g opacity=".237165"><path d="m0 29.8729089 56.0986547-29.8729089 56.0986543 29.8729089v68.9374822l-56.0986543 31.0218669-56.0986547-31.0218669z" fill="url(#b)"/><path d="m56.0986547 60.8947759 56.0986543-31.021867v68.9374822l-56.0986543 31.0218669z" fill="url(#c)"/><path d="m56.0986547 60.8947759 56.0986543-31.021867v68.9374822l-56.0986543 31.0218669z" fill="url(#c)"/><path d="m56.0986547 60.8947759 56.0986543 37.9156152-56.0986543 31.0218669z" fill="url(#d)"/><g fill="url(#e)"><path d="m0 60.8947759 56.0986547-31.021867v68.9374822l-56.0986547 31.0218669z" transform="matrix(-1 0 0 1 56.098654 0)"/><path d="m0 60.8947759 56.0986547 37.9156152-56.0986547 31.0218669z" transform="matrix(-1 0 0 1 56.098654 0)"/></g></g></g><g transform="translate(167 27)"><path d="m0 29.9115044 56-29.9115044 56 29.9115044v69.0265487l-56 31.0619469-56-31.0619469z" fill="url(#a)"/><g opacity=".237165"><path d="m0 29.9115044 56-29.9115044 56 29.9115044v69.0265487l-56 31.0619469-56-31.0619469z" fill="url(#b)"/><path d="m56 60.9734513 56-31.0619469v69.0265487l-56 31.0619469z" fill="url(#c)"/><path d="m56 60.9734513 56-31.0619469v69.0265487l-56 31.0619469z" fill="url(#c)"/><path d="m56 60.9734513 56 37.9646018-56 31.0619469z" fill="url(#d)"/><g fill="url(#e)"><path d="m0 60.9734513 56-31.0619469v69.0265487l-56 31.0619469z" transform="matrix(-1 0 0 1 56 0)"/><path d="m0 60.9734513 56 37.9646018-56 31.0619469z" transform="matrix(-1 0 0 1 56 0)"/></g></g></g><g transform="translate(223 57)"><path d="m0 29.9115044 56-29.9115044 56 29.9115044v69.0265487l-56 31.0619469-56-31.0619469z" fill="url(#a)"/><g opacity=".237165"><path d="m0 29.9115044 56-29.9115044 56 29.9115044v69.0265487l-56 31.0619469-56-31.0619469z" fill="url(#b)"/><path d="m56 60.9734513 56-31.0619469v69.0265487l-56 31.0619469z" fill="url(#c)"/><path d="m56 60.9734513 56-31.0619469v69.0265487l-56 31.0619469z" fill="url(#c)"/><path d="m56 60.9734513 56 37.9646018-56 31.0619469z" fill="url(#d)"/><g fill="url(#e)"><path d="m0 60.9734513 56-31.0619469v69.0265487l-56 31.0619469z" transform="matrix(-1 0 0 1 56 0)"/><path d="m0 60.9734513 56 37.9646018-56 31.0619469z" transform="matrix(-1 0 0 1 56 0)"/></g></g></g></g></svg>