<svg height="544" viewBox="0 0 723 544" width="723" xmlns="http://www.w3.org/2000/svg" xmlns:xlink="http://www.w3.org/1999/xlink"><defs><filter id="a" height="173.3%" width="138.2%" x="-28.7%" y="-32.9%"><feOffset dx="-30" dy="4" in="SourceAlpha" result="shadowOffsetOuter1"/><feGaussianBlur in="shadowOffsetOuter1" result="shadowBlurOuter1" stdDeviation="8"/><feColorMatrix in="shadowBlurOuter1" type="matrix" values="0 0 0 0 0.0287671181   0 0 0 0 0.795280759   0 0 0 0 0.915488865  0 0 0 0.38 0"/></filter><filter id="b" height="127.3%" width="118.4%" x="-13.8%" y="-6.8%"><feOffset dx="-10" dy="10" in="SourceAlpha" result="shadowOffsetOuter1"/><feGaussianBlur in="shadowOffsetOuter1" result="shadowBlurOuter1" stdDeviation="2"/><feColorMatrix in="shadowBlurOuter1" type="matrix" values="0 0 0 0 0.0540184905   0 0 0 0 0.374600064   0 0 0 0 0.541016067  0 0 0 1 0"/></filter><linearGradient id="c" x1="-6.108066%" x2="91.386061%" y1="38.287478%" y2="60.929753%"><stop offset=".1" stop-color="#76b3e1"/><stop offset=".3" stop-color="#dcf2fd"/><stop offset="1" stop-color="#76b3e1"/></linearGradient><linearGradient id="d" x1="57.053098%" x2="38.023779%" y1="38.694695%" y2="68.253689%"><stop offset="0" stop-color="#76b3e1"/><stop offset=".5" stop-color="#4377bb"/><stop offset="1" stop-color="#1f3b77"/></linearGradient><linearGradient id="e" x1="28.854746%" x2="100%" y1="57.971713%" y2="57.971713%"><stop offset="0" stop-color="#8ac6ff" stop-opacity=".393955"/><stop offset="1" stop-color="#6da4ff" stop-opacity="0"/></linearGradient><path id="f" d="m44.8008349 37.5420265-5.0958203 1.4152021c-23.6404271 7.6367176-31.73612385 29.6149033-18.1791642 48.8876122 15.9928637 20.0301922 42.6346521 28.3519142 67.32307 21.0287632l88.1918356-28.7074607s-74.349758-55.8000497-132.2399211-42.6241168z"/><filter id="g" height="173.9%" width="142.6%" x="-32%" y="-33.1%"><feOffset dx="-30" dy="4" in="SourceAlpha" result="shadowOffsetOuter1"/><feGaussianBlur in="shadowOffsetOuter1" result="shadowBlurOuter1" stdDeviation="8"/><feColorMatrix in="shadowBlurOuter1" type="matrix" values="0 0 0 0 0.351994351   0 0 0 0 0.356035409   0 0 0 0 0.913284523  0 0 0 0.34 0"/></filter><filter id="h" height="118.9%" width="116.7%" x="-12.5%" y="-6.7%"><feOffset dx="-9" dy="3" in="SourceAlpha" result="shadowOffsetOuter1"/><feGaussianBlur in="shadowOffsetOuter1" result="shadowBlurOuter1" stdDeviation="2"/><feColorMatrix in="shadowBlurOuter1" type="matrix" values="0 0 0 0 0.17254902   0 0 0 0 0.379068756   0 0 0 0 0.48627451  0 0 0 1 0"/></filter><linearGradient id="i" x1="10.725742%" x2="104.501499%" y1="34.735492%" y2="70.363361%"><stop offset="0" stop-color="#315aa9"/><stop offset=".5" stop-color="#518ac8"/><stop offset="1" stop-color="#315aa9"/></linearGradient><linearGradient id="j" x1="62.096597%" x2="17.791722%" y1="29.678452%" y2="105.022156%"><stop offset="0" stop-color="#4377bb"/><stop offset=".5" stop-color="#1a336b"/><stop offset="1" stop-color="#1a336b"/></linearGradient><linearGradient id="k" x1="50%" x2="50%" y1="0%" y2="100%"><stop offset="0" stop-color="#cee1f0"/><stop offset="1" stop-color="#dae1e8"/></linearGradient><linearGradient id="l" x1="50%" x2="50%" y1="0%" y2="100%"><stop offset="0" stop-color="#d0deea"/><stop offset="1" stop-color="#dae1e8"/></linearGradient><linearGradient id="m" x1="50%" x2="50%" y1="0%" y2="100%"><stop offset="0" stop-color="#bdc2c8"/><stop offset="1" stop-color="#dcedef"/></linearGradient><filter id="n" height="188.8%" width="155.8%" x="-41.8%" y="-39.8%"><feOffset dx="-30" dy="4" in="SourceAlpha" result="shadowOffsetOuter1"/><feGaussianBlur in="shadowOffsetOuter1" result="shadowBlurOuter1" stdDeviation="8"/><feColorMatrix in="shadowBlurOuter1" type="matrix" values="0 0 0 0 0.537254902   0 0 0 0 0.664948396   0 0 0 0 0.776470588  0 0 0 0.824670325 0"/></filter><filter id="o" height="142.9%" width="135.6%" x="-26.7%" y="-14.3%"><feOffset dx="-12" dy="4" in="SourceAlpha" result="shadowOffsetOuter1"/><feGaussianBlur in="shadowOffsetOuter1" result="shadowBlurOuter1" stdDeviation="2"/><feColorMatrix in="shadowBlurOuter1" type="matrix" values="0 0 0 0 0.17254902   0 0 0 0 0.379068756   0 0 0 0 0.48627451  0 0 0 0.835429585 0"/></filter><linearGradient id="p" x1="50%" x2="50%" y1="0%" y2="100%"><stop offset="0" stop-color="#adbbca" stop-opacity=".702712"/><stop offset="1" stop-color="#e4e8e9" stop-opacity="0"/></linearGradient><linearGradient id="q" x1="50%" x2="50%" y1="0%" y2="100%"><stop offset="0" stop-color="#7692ae"/><stop offset="1" stop-color="#93b0ce"/></linearGradient><filter id="r" height="188.8%" width="155.8%" x="-41.8%" y="-39.8%"><feOffset dx="-30" dy="4" in="SourceAlpha" result="shadowOffsetOuter1"/><feGaussianBlur in="shadowOffsetOuter1" result="shadowBlurOuter1" stdDeviation="8"/><feColorMatrix in="shadowBlurOuter1" type="matrix" values="0 0 0 0 0.537254902   0 0 0 0 0.664948396   0 0 0 0 0.776470588  0 0 0 0.824670325 0"/></filter><filter id="s" height="142.9%" width="135.6%" x="-26.7%" y="-14.3%"><feOffset dx="-12" dy="4" in="SourceAlpha" result="shadowOffsetOuter1"/><feGaussianBlur in="shadowOffsetOuter1" result="shadowBlurOuter1" stdDeviation="2"/><feColorMatrix in="shadowBlurOuter1" type="matrix" values="0 0 0 0 0.17254902   0 0 0 0 0.379068756   0 0 0 0 0.48627451  0 0 0 0.835429585 0"/></filter><filter id="t" height="188.8%" width="155.8%" x="-41.8%" y="-39.8%"><feOffset dx="-30" dy="4" in="SourceAlpha" result="shadowOffsetOuter1"/><feGaussianBlur in="shadowOffsetOuter1" result="shadowBlurOuter1" stdDeviation="8"/><feColorMatrix in="shadowBlurOuter1" type="matrix" values="0 0 0 0 0.537254902   0 0 0 0 0.664948396   0 0 0 0 0.776470588  0 0 0 0.824670325 0"/></filter><filter id="u" height="142.9%" width="135.6%" x="-26.7%" y="-14.3%"><feOffset dx="-12" dy="4" in="SourceAlpha" result="shadowOffsetOuter1"/><feGaussianBlur in="shadowOffsetOuter1" result="shadowBlurOuter1" stdDeviation="2"/><feColorMatrix in="shadowBlurOuter1" type="matrix" values="0 0 0 0 0.17254902   0 0 0 0 0.379068756   0 0 0 0 0.48627451  0 0 0 0.835429585 0"/></filter><filter id="v" height="188.8%" width="155.8%" x="-41.8%" y="-39.8%"><feOffset dx="-30" dy="4" in="SourceAlpha" result="shadowOffsetOuter1"/><feGaussianBlur in="shadowOffsetOuter1" result="shadowBlurOuter1" stdDeviation="8"/><feColorMatrix in="shadowBlurOuter1" type="matrix" values="0 0 0 0 0.537254902   0 0 0 0 0.664948396   0 0 0 0 0.776470588  0 0 0 0.824670325 0"/></filter><filter id="w" height="130.4%" width="124.8%" x="-18.6%" y="-10.1%"><feOffset dx="-12" dy="4" in="SourceAlpha" result="shadowOffsetOuter1"/><feGaussianBlur in="shadowOffsetOuter1" result="shadowBlurOuter1" stdDeviation="2"/><feColorMatrix in="shadowBlurOuter1" type="matrix" values="0 0 0 0 0.17254902   0 0 0 0 0.379068756   0 0 0 0 0.48627451  0 0 0 0.835429585 0"/></filter><filter id="x" height="167.9%" width="141.6%" x="-31.2%" y="-30.5%"><feOffset dx="-30" dy="4" in="SourceAlpha" result="shadowOffsetOuter1"/><feGaussianBlur in="shadowOffsetOuter1" result="shadowBlurOuter1" stdDeviation="8"/><feColorMatrix in="shadowBlurOuter1" type="matrix" values="0 0 0 0 0.537254902   0 0 0 0 0.664948396   0 0 0 0 0.776470588  0 0 0 0.824670325 0"/></filter><filter id="y" height="142.9%" width="135.6%" x="-26.7%" y="-14.3%"><feOffset dx="-12" dy="4" in="SourceAlpha" result="shadowOffsetOuter1"/><feGaussianBlur in="shadowOffsetOuter1" result="shadowBlurOuter1" stdDeviation="2"/><feColorMatrix in="shadowBlurOuter1" type="matrix" values="0 0 0 0 0.17254902   0 0 0 0 0.379068756   0 0 0 0 0.48627451  0 0 0 0.835429585 0"/></filter><filter id="z" height="188.8%" width="155.8%" x="-41.8%" y="-39.8%"><feOffset dx="-30" dy="4" in="SourceAlpha" result="shadowOffsetOuter1"/><feGaussianBlur in="shadowOffsetOuter1" result="shadowBlurOuter1" stdDeviation="8"/><feColorMatrix in="shadowBlurOuter1" type="matrix" values="0 0 0 0 0.537254902   0 0 0 0 0.664948396   0 0 0 0 0.776470588  0 0 0 0.824670325 0"/></filter><filter id="A" height="130.4%" width="124.8%" x="-18.6%" y="-10.1%"><feOffset dx="-12" dy="4" in="SourceAlpha" result="shadowOffsetOuter1"/><feGaussianBlur in="shadowOffsetOuter1" result="shadowBlurOuter1" stdDeviation="2"/><feColorMatrix in="shadowBlurOuter1" type="matrix" values="0 0 0 0 0.17254902   0 0 0 0 0.379068756   0 0 0 0 0.48627451  0 0 0 0.835429585 0"/></filter><mask id="B" fill="#fff"><path d="m0 0h723v544h-723z" fill="#fff" fill-rule="evenodd"/></mask></defs><g fill="none" fill-rule="evenodd"><g mask="url(#B)"><g fill="#000" opacity=".2" transform="matrix(-.99756405 -.06975647 .06975647 -.99756405 654.516244 404.553183)"><path d="m251.846489 68.2488019c-6.08905 10.6917993-21.942642 23.1780463-47.560776 37.4587411-29.191152 16.272454-141.3939733 48.130376-160.4902442 46.491148-22.1889856-1.904708-64.1880229-76.7351525 7.3429926-91.8993649 12.0788105-2.5606466 36.8382234-10.0899705 51.2719666-11.6372809 66.607149-7.1403474 116.41917-.6114285 149.436061 19.5867567z" filter="url(#a)" transform="matrix(.90630779 -.42261826 .42261826 .90630779 -29.542321 64.867441)"/><path d="m164.153737 86.9251795c-6.76882 13.5726175-15.402389 28.1133645-25.900706 43.6222415-15.747475 23.263316-22.561167 30.354633-44.1619555 47.196071-21.6007882 16.841438-58.2386433 14.751121-74.7000335-6.12674-16.46139017-20.877861-6.0109417-40.218804 29.170142-64.342976 23.4540558-16.0827809 61.984907-22.8656465 115.592553-20.3485965z" filter="url(#b)"/></g><g fill-rule="nonzero" transform="translate(492 139.430699)"><g opacity=".5" transform="translate(.441549 .528413)"><path d="m190.851274 114.3363s-74.651194-56.5214554-132.6664478-43.2095854l-5.1068343 1.4298156c-8.9374524 2.8578623-15.609029 7.8466893-19.7295512 13.8278961-.8523861 1.1393711-1.4213654 2.4206231-2.1319496 3.5597976l-21.46267602 36.5940901 37.00023252 7.204672c15.2925519 10.818472 34.474788 14.569695 52.7359026 10.312881l65.9199278 12.855534z" fill="#76b3e1" transform="matrix(-.8660254 .5 -.5 -.8660254 243.669177 160.717361)"/><path d="m190.712381 114.810595s-74.491059-55.940668-132.3812223-42.7647352l-5.0958202 1.4152022c-8.9181726 2.8286391-15.5753254 7.7663522-19.6869066 13.686234-.8505376 1.1276899-1.4182771 2.3958017-2.1273183 3.5232955l-21.4160435 36.2188505 36.9206299 7.130331c15.2597393 10.707296 34.4007066 14.419813 52.6224464 10.206472l65.7781066 12.722886z" fill="url(#c)" opacity=".3" transform="matrix(-.8660254 .5 -.5 -.8660254 244.018385 161.601283)"/><path d="m44.8008349 37.5420265-5.0958203 1.4152021c-23.6404271 7.6367176-31.73612385 29.6149033-18.1791642 48.8876122 15.9928637 20.0301922 42.6346521 28.3519142 67.32307 21.0287632l88.1918356-28.7074607s-74.349758-55.8000497-132.2399211-42.6241168z" fill="url(#d)" opacity=".3" transform="matrix(-.8660254 .5 -.5 -.8660254 215.894389 89.177097)"/><path d="m44.8008349 37.5420265-5.0958203 1.4152021c-23.6404271 7.6367176-31.73612385 29.6149033-18.1791642 48.8876122 15.9928637 20.0301922 42.6346521 28.3519142 67.32307 21.0287632l88.1918356-28.7074607s-74.349758-55.8000497-132.2399211-42.6241168z" fill="#518ac8" transform="matrix(-.8660254 .5 -.5 -.8660254 215.894389 89.177097)"/></g><path d="m190.851274 114.3363s-74.651194-56.5214554-132.6664478-43.2095854l-5.1068343 1.4298156c-8.9374524 2.8578623-15.609029 7.8466893-19.7295512 13.8278961-.8523861 1.1393711-1.4213654 2.4206231-2.1319496 3.5597976l-21.46267602 36.5940901 37.00023252 7.204672c15.2925519 10.818472 34.474788 14.569695 52.7359026 10.312881l65.9199278 12.855534z" fill="#76b3e1" transform="matrix(-.8660254 .5 -.5 -.8660254 243.669177 160.717361)"/><path d="m190.712381 114.810595s-74.491059-55.940668-132.3812223-42.7647352l-5.0958202 1.4152022c-8.9181726 2.8286391-15.5753254 7.7663522-19.6869066 13.686234-.8505376 1.1276899-1.4182771 2.3958017-2.1273183 3.5232955l-21.4160435 36.2188505 36.9206299 7.130331c15.2597393 10.707296 34.4007066 14.419813 52.6224464 10.206472l65.7781066 12.722886z" fill="url(#c)" opacity=".3" transform="matrix(-.8660254 .5 -.5 -.8660254 244.018385 161.601283)"/><path d="m44.8008349 37.5420265-5.0958203 1.4152021c-23.6404271 7.6367176-31.73612385 29.6149033-18.1791642 48.8876122 15.9928637 20.0301922 42.6346521 28.3519142 67.32307 21.0287632l88.1918356-28.7074607s-74.349758-55.8000497-132.2399211-42.6241168z" fill="url(#d)" opacity=".3" transform="matrix(-.8660254 .5 -.5 -.8660254 215.894389 89.177097)"/><g transform="matrix(-.8660254 .5 -.5 -.8660254 215.894389 89.177097)"><use fill="#518ac8" xlink:href="#f"/><use fill="url(#e)" xlink:href="#f"/></g><path d="m44.8008349 86.6169701-5.0958203 1.4152022c-23.6404271 7.6367176-31.73612385 29.6149037-18.1791642 48.8876117 15.9928637 20.030193 42.6346521 28.351914 67.32307 21.028763l88.1918356-28.70746s-74.349758-55.8000497-132.2399211-42.6241169z" fill="#518ac8" opacity=".047139" transform="matrix(-.8660254 .5 -.5 -.8660254 240.431861 180.752187)"/></g><g fill="#000" opacity=".18" transform="translate(273.004725 202.426498)"><path d="m227.923861 75.8418783c-6.649269 12.9319468-22.325575 26.5438657-47.028918 40.8357557-28.148771 16.285212-82.3631834 44.030827-122.3426401 31.445974-39.9794567-12.584854-76.9549075-73.2670726-7.9770537-88.4412319 11.6476808-2.5623263 35.5232505-10.0970602 49.4418778-11.645073 64.230053-7.1435888 106.865631 2.1246029 127.906734 27.8045752z" filter="url(#g)" transform="matrix(.87461971 -.48480962 .48480962 .87461971 -32.710784 70.524969)"/><path d="m193.329628 36.4484523c-6.775214 13.5839826-15.416938 28.1369056-25.925171 43.6587693-15.762351 23.2827954-27.086254 37.7179204-48.707446 54.5734614-21.6211924 16.855541-58.2936553 14.763473-74.7705947-6.13187-16.4769395-20.895343-1.7921339-51.5839498 33.4221815-75.7283222 23.4762102-16.0962483 62.1365532-21.5535944 115.9810302-16.3720385z" filter="url(#h)"/></g><g fill-rule="nonzero" transform="translate(276 162.430699)"><path d="m197.846589 79.8624295c-16.056707-20.1728637-42.859219-28.6105294-67.664335-21.301326l-88.346057 28.4037554-27.7735616 49.1380801 158.2972406 26.981484 28.340378-50.123653c5.668235-9.714888 5.094673-21.8272295-2.853665-33.0983405z" fill="url(#i)" transform="matrix(-.8660254 .5 -.5 -.8660254 258.647253 149.744161)"/><path d="m179.17894 59.3511476c-16.056808-20.0822413-42.760927-28.5065616-67.522504-21.3012531l-88.487888 28.4036824s74.7737998 56.0919101 132.77593 43.0238511l5.105191-1.40575c23.681931-7.452212 31.754983-29.4187457 18.129271-48.7205304z" fill="url(#j)" transform="matrix(-.8660254 .5 -.5 -.8660254 231.708523 84.873088)"/><g opacity=".5" transform="translate(.443079 .527923)"><path d="m197.846589 79.8624295c-16.056707-20.1728637-42.859219-28.6105294-67.664335-21.301326l-88.346057 28.4037554-27.7735616 49.1380801 158.2972406 26.981484 28.340378-50.123653c5.668235-9.714888 5.094673-21.8272295-2.853665-33.0983405z" fill="url(#i)" transform="matrix(-.8660254 .5 -.5 -.8660254 258.647253 149.744161)"/><path d="m179.17894 59.3511476c-16.056808-20.0822413-42.760927-28.5065616-67.522504-21.3012531l-88.487888 28.4036824s74.7737998 56.0919101 132.77593 43.0238511l5.105191-1.40575c23.681931-7.452212 31.754983-29.4187457 18.129271-48.7205304z" fill="url(#j)" transform="matrix(-.8660254 .5 -.5 -.8660254 231.708523 84.873088)"/></g><path d="m112.099516 91.28444-88.4878886 28.403682s74.7737998 56.09191 132.7759306 43.023852l5.10519-1.40575c23.681932-7.452212 31.754984-29.418746 18.129272-48.720531-16.056808-20.0822412-42.760928-28.5065614-67.522504-21.301253z" fill="url(#j)" opacity=".10192" transform="matrix(-.8660254 .5 -.5 -.8660254 259.152595 183.988563)"/></g></g><g mask="url(#B)" opacity=".17472"><g transform="translate(347 434)"><path d="m28 26 49-26v113l-49-27z" fill="url(#k)"/><g fill="none"><path d="m28 26 49-26 49 26v60l-49 27-49-27z" fill="url(#l)"/><path d="m77 53 49-27v60l-49 27z" fill="url(#m)"/><g fill="#000" transform="translate(0 53)"><path d="m110.630137 1.15068493 54.369863 28.84931507-110.630137 59-54.369863-29.9589041z" filter="url(#n)"/><path d="m85 0 41 32-41 24-49-27z" filter="url(#o)"/></g><path d="m77 53 49-27v60l-49 27z" fill="url(#m)"/><path d="m77 53 49 33-49 27z" fill="url(#p)"/><g fill="url(#q)"><path d="m28 53 49-27v60l-49 27z" transform="matrix(-1 0 0 1 105 0)"/><path d="m28 53 49 33-49 27z" transform="matrix(-1 0 0 1 105 0)"/></g></g></g></g><g mask="url(#B)" opacity=".17472"><g transform="translate(534 -35)"><g fill="#000" transform="translate(0 59)"><path d="m110.630137 1.15068493 54.369863 28.84931507-110.630137 59-54.369863-29.9589041z" filter="url(#r)"/><path d="m85 0 41 32-41 24-49-27z" filter="url(#s)"/></g><path d="m23 26 49-26v113l-49-27z" fill="url(#k)"/><g fill="none" transform="translate(23 3)"><path d="m0 26 49-26 49 26v60l-49 27-49-27z" fill="url(#l)"/><path d="m49 53 49-27v60l-49 27z" fill="url(#m)"/><path d="m49 53 49-27v60l-49 27z" fill="url(#m)"/><path d="m49 53 49 33-49 27z" fill="url(#p)"/><g fill="url(#q)"><path d="m0 53 49-27v60l-49 27z" transform="matrix(-1 0 0 1 49 0)"/><path d="m0 53 49 33-49 27z" transform="matrix(-1 0 0 1 49 0)"/></g></g></g></g><g mask="url(#B)" opacity=".237165"><g fill="#000" transform="translate(66 48)"><path d="m110.630137 1.15068493 54.369863 28.84931507-110.630137 59-54.369863-29.9589041z" filter="url(#t)"/><path d="m85 0 41 32-41 24-49-27z" filter="url(#u)"/></g><g transform="translate(94 -7)"><path d="m0 26 49-26 49 26v60l-49 27-49-27z" fill="url(#l)"/><path d="m49 53 49-27v60l-49 27z" fill="url(#m)"/><path d="m49 53 49-27v60l-49 27z" fill="url(#m)"/><path d="m49 53 49 33-49 27z" fill="url(#p)"/><g fill="url(#q)"><path d="m0 53 49-27v60l-49 27z" transform="matrix(-1 0 0 1 49 0)"/><path d="m0 53 49 33-49 27z" transform="matrix(-1 0 0 1 49 0)"/></g></g></g><g mask="url(#B)" opacity=".17472"><g transform="translate(591 330)"><g fill="#000" transform="translate(0 58)"><path d="m110.630137 24.1506849 54.369863 28.8493151-110.630137 59-54.369863-29.9589041z" filter="url(#v)"/><path d="m124 0 41 32-80 47-49-27z" filter="url(#w)"/></g><path d="m28 48 49-26v113l-49-27z" fill="url(#k)"/><g fill="none" transform="translate(28)"><path d="m0 52 91-52 49 26-42 86-49 27-49-27z" fill="url(#l)"/><path d="m49 79 49-27v60l-49 27z" fill="url(#m)"/><path d="m49 79 88-53v60l-88 53z" fill="url(#m)"/><path d="m95 52 45 33-91 54v-60z" fill="url(#p)"/><g fill="url(#q)"><path d="m0 79 49-27v60l-49 27z" transform="matrix(-1 0 0 1 49 0)"/><path d="m0 79 49 33-49 27z" transform="matrix(-1 0 0 1 49 0)"/></g></g></g></g><g mask="url(#B)" opacity=".24644"><g transform="translate(192.630137 -9)"><g fill="#000" transform="translate(0 122)"><path d="m167 1.15068493 54.369863 28.84931507-167 86-54.369863-29.9589041z" filter="url(#x)"/><path d="m141.369863 0 41 32-41 24-49-27z" filter="url(#y)"/></g><path d="m82.369863 26 49-26v178l-49-27z" fill="url(#k)"/><g fill="none" transform="translate(82.369863 2)"><path d="m0 26 49-26 49 26v125l-49 27-49-27z" fill="url(#l)"/><path d="m0 54 49-27v124l-49 27z" fill="url(#q)" transform="matrix(-1 0 0 1 49 0)"/><path d="m49 118 49-27v60l-49 27z" fill="url(#m)"/><path d="m49 54 49-27v124l-49 27z" fill="url(#m)"/><path d="m49 118 49 33-49 27z" fill="url(#p)"/><path d="m0 118 49 33-49 27z" fill="url(#q)" transform="matrix(-1 0 0 1 49 0)"/></g></g></g><g mask="url(#B)" opacity=".17472"><g transform="translate(40 387)"><g fill="#000" transform="translate(0 58)"><path d="m110.630137 24.1506849 54.369863 28.8493151-110.630137 59-54.369863-29.9589041z" filter="url(#z)"/><path d="m124 0 41 32-80 47-49-27z" filter="url(#A)"/></g><path d="m28 48 49-26v113l-49-27z" fill="url(#k)"/><g fill="none" transform="translate(28)"><path d="m0 52 91-52 49 26-42 86-49 27-49-27z" fill="url(#l)"/><path d="m49 79 49-27v60l-49 27z" fill="url(#m)"/><path d="m49 79 88-53v60l-88 53z" fill="url(#m)"/><path d="m95 52 45 33-91 54v-60z" fill="url(#p)"/><g fill="url(#q)"><path d="m0 79 49-27v60l-49 27z" transform="matrix(-1 0 0 1 49 0)"/><path d="m0 79 49 33-49 27z" transform="matrix(-1 0 0 1 49 0)"/></g></g></g></g></g></svg>