<svg height="327" viewBox="0 0 281 327" width="281" xmlns="http://www.w3.org/2000/svg" xmlns:xlink="http://www.w3.org/1999/xlink"><linearGradient id="a" x1="50%" x2="50%" y1="0%" y2="100%"><stop offset="0" stop-color="#fff"/><stop offset="1" stop-color="#f7fbff"/></linearGradient><linearGradient id="b" x1="50%" x2="50%" y1="0%" y2="100%"><stop offset="0" stop-color="#d0deea"/><stop offset="1" stop-color="#dae1e8"/></linearGradient><linearGradient id="c" x1="50%" x2="50%" y1="0%" y2="100%"><stop offset="0" stop-color="#bdc2c8"/><stop offset="1" stop-color="#dcedef"/></linearGradient><linearGradient id="d" x1="50%" x2="50%" y1="0%" y2="100%"><stop offset="0" stop-color="#adbbca" stop-opacity=".702712"/><stop offset="1" stop-color="#e4e8e9" stop-opacity="0"/></linearGradient><linearGradient id="e" x1="50%" x2="50%" y1="0%" y2="100%"><stop offset="0" stop-color="#7692ae"/><stop offset="1" stop-color="#93b0ce"/></linearGradient><g fill="none" fill-rule="evenodd" opacity=".6"><g transform="translate(169 36)"><path d="m0 29.9115044 56-29.9115044 56 29.9115044v69.0265487l-56 31.0619469-56-31.0619469z" fill="url(#a)"/><g opacity=".237165"><path d="m0 29.9115044 56-29.9115044 56 29.9115044v69.0265487l-56 31.0619469-56-31.0619469z" fill="url(#b)"/><path d="m56 60.9734513 56-31.0619469v69.0265487l-56 31.0619469z" fill="url(#c)"/><path d="m56 60.9734513 56-31.0619469v69.0265487l-56 31.0619469z" fill="url(#c)"/><path d="m56 60.9734513 56 37.9646018-56 31.0619469z" fill="url(#d)"/><g fill="url(#e)"><path d="m0 60.9734513 56-31.0619469v69.0265487l-56 31.0619469z" transform="matrix(-1 0 0 1 56 0)"/><path d="m0 60.9734513 56 37.9646018-56 31.0619469z" transform="matrix(-1 0 0 1 56 0)"/></g></g></g><g transform="translate(58.697778 40)"><path d="m0 29.8594844 56.2-29.8594844 56.2 29.8594844v68.9065025l-56.2 31.0079261-56.2-31.0079261z" fill="url(#a)"/><g opacity=".237165"><path d="m0 29.8594844 56.2-29.8594844 56.2 29.8594844v68.9065025l-56.2 31.0079261-56.2-31.0079261z" fill="url(#b)"/><path d="m56.2 60.8674105 56.2-31.0079261v68.9065025l-56.2 31.0079261z" fill="url(#c)"/><path d="m56.2 60.8674105 56.2-31.0079261v68.9065025l-56.2 31.0079261z" fill="url(#c)"/><path d="m56.2 60.8674105 56.2 37.8985764-56.2 31.0079261z" fill="url(#d)"/><g fill="url(#e)"><path d="m0 60.8674105 56.2-31.0079261v68.9065025l-56.2 31.0079261z" transform="matrix(-1 0 0 1 56.2 0)"/><path d="m0 60.8674105 56.2 37.8985764-56.2 31.0079261z" transform="matrix(-1 0 0 1 56.2 0)"/></g></g></g><g transform="translate(112.4 69.947826)"><path d="m0 29.8594844 56.2-29.8594844 56.2 29.8594844v68.9065025l-56.2 31.0079261-56.2-31.0079261z" fill="url(#a)"/><g opacity=".237165"><path d="m0 29.8594844 56.2-29.8594844 56.2 29.8594844v68.9065025l-56.2 31.0079261-56.2-31.0079261z" fill="url(#b)"/><path d="m56.2 60.8674105 56.2-31.0079261v68.9065025l-56.2 31.0079261z" fill="url(#c)"/><path d="m56.2 60.8674105 56.2-31.0079261v68.9065025l-56.2 31.0079261z" fill="url(#c)"/><path d="m56.2 60.8674105 56.2 37.8985764-56.2 31.0079261z" fill="url(#d)"/><g fill="url(#e)"><path d="m0 60.8674105 56.2-31.0079261v68.9065025l-56.2 31.0079261z" transform="matrix(-1 0 0 1 56.2 0)"/><path d="m0 60.8674105 56.2 37.8985764-56.2 31.0079261z" transform="matrix(-1 0 0 1 56.2 0)"/></g></g></g><g transform="translate(168.6 99.895652)"><path d="m0 29.8594844 56.2-29.8594844 56.2 29.8594844v68.9065025l-56.2 31.0079261-56.2-31.0079261z" fill="url(#a)"/><g opacity=".237165"><path d="m0 29.8594844 56.2-29.8594844 56.2 29.8594844v68.9065025l-56.2 31.0079261-56.2-31.0079261z" fill="url(#b)"/><path d="m56.2 60.8674105 56.2-31.0079261v68.9065025l-56.2 31.0079261z" fill="url(#c)"/><path d="m56.2 60.8674105 56.2-31.0079261v68.9065025l-56.2 31.0079261z" fill="url(#c)"/><path d="m56.2 60.8674105 56.2 37.8985764-56.2 31.0079261z" fill="url(#d)"/><g fill="url(#e)"><path d="m0 60.8674105 56.2-31.0079261v68.9065025l-56.2 31.0079261z" transform="matrix(-1 0 0 1 56.2 0)"/><path d="m0 60.8674105 56.2 37.8985764-56.2 31.0079261z" transform="matrix(-1 0 0 1 56.2 0)"/></g></g></g><g transform="translate(0 197.226087)"><path d="m0 29.8594844 56.2-29.8594844 56.2 29.8594844v68.9065025l-56.2 31.0079261-56.2-31.0079261z" fill="url(#a)"/><g opacity=".237165"><path d="m0 29.8594844 56.2-29.8594844 56.2 29.8594844v68.9065025l-56.2 31.0079261-56.2-31.0079261z" fill="url(#b)"/><path d="m56.2 60.8674105 56.2-31.0079261v68.9065025l-56.2 31.0079261z" fill="url(#c)"/><path d="m56.2 60.8674105 56.2-31.0079261v68.9065025l-56.2 31.0079261z" fill="url(#c)"/><path d="m56.2 60.8674105 56.2 37.8985764-56.2 31.0079261z" fill="url(#d)"/><g fill="url(#e)"><path d="m0 60.8674105 56.2-31.0079261v68.9065025l-56.2 31.0079261z" transform="matrix(-1 0 0 1 56.2 0)"/><path d="m0 60.8674105 56.2 37.8985764-56.2 31.0079261z" transform="matrix(-1 0 0 1 56.2 0)"/></g></g></g><g transform="translate(56.2 99.895652)"><path d="m0 29.8594844 56.2-29.8594844 56.2 29.8594844v68.9065025l-56.2 31.0079261-56.2-31.0079261z" fill="url(#a)"/><g opacity=".237165"><path d="m0 29.8594844 56.2-29.8594844 56.2 29.8594844v68.9065025l-56.2 31.0079261-56.2-31.0079261z" fill="url(#b)"/><path d="m56.2 60.8674105 56.2-31.0079261v68.9065025l-56.2 31.0079261z" fill="url(#c)"/><path d="m56.2 60.8674105 56.2-31.0079261v68.9065025l-56.2 31.0079261z" fill="url(#c)"/><path d="m56.2 60.8674105 56.2 37.8985764-56.2 31.0079261z" fill="url(#d)"/><g fill="url(#e)"><path d="m0 60.8674105 56.2-31.0079261v68.9065025l-56.2 31.0079261z" transform="matrix(-1 0 0 1 56.2 0)"/><path d="m0 60.8674105 56.2 37.8985764-56.2 31.0079261z" transform="matrix(-1 0 0 1 56.2 0)"/></g></g></g><g transform="translate(113)"><path d="m0 29.9115044 56-29.9115044 56 29.9115044v69.0265487l-56 31.0619469-56-31.0619469z" fill="url(#a)"/><g opacity=".237165"><path d="m0 29.9115044 56-29.9115044 56 29.9115044v69.0265487l-56 31.0619469-56-31.0619469z" fill="url(#b)"/><path d="m56 60.9734513 56-31.0619469v69.0265487l-56 31.0619469z" fill="url(#c)"/><path d="m56 60.9734513 56-31.0619469v69.0265487l-56 31.0619469z" fill="url(#c)"/><path d="m56 60.9734513 56 37.9646018-56 31.0619469z" fill="url(#d)"/><g fill="url(#e)"><path d="m0 60.9734513 56-31.0619469v69.0265487l-56 31.0619469z" transform="matrix(-1 0 0 1 56 0)"/><path d="m0 60.9734513 56 37.9646018-56 31.0619469z" transform="matrix(-1 0 0 1 56 0)"/></g></g></g></g></svg>