<svg height="752" viewBox="0 0 658 752" width="658" xmlns="http://www.w3.org/2000/svg" xmlns:xlink="http://www.w3.org/1999/xlink"><linearGradient id="a"><stop offset="0" stop-color="#315aa9"/><stop offset=".5" stop-color="#518ac8"/><stop offset="1" stop-color="#315aa9"/></linearGradient><linearGradient id="b" x1="10.725742%" x2="104.501499%" xlink:href="#a" y1="34.686844%" y2="70.428259%"/><linearGradient id="c"><stop offset="0" stop-color="#4377bb"/><stop offset=".5" stop-color="#1a336b"/><stop offset="1" stop-color="#1a336b"/></linearGradient><linearGradient id="d" x1="62.096597%" x2="17.791722%" xlink:href="#c" y1="29.60546%" y2="105.219789%"/><linearGradient id="e" x1="50%" x2="50%" y1="0%" y2="100%"><stop offset="0" stop-color="#fff"/><stop offset="1" stop-color="#f7fbff"/></linearGradient><linearGradient id="f" x1="50%" x2="50%" y1="0%" y2="100%"><stop offset="0" stop-color="#d0deea"/><stop offset="1" stop-color="#dae1e8"/></linearGradient><linearGradient id="g" x1="50%" x2="50%" y1="0%" y2="100%"><stop offset="0" stop-color="#bdc2c8"/><stop offset="1" stop-color="#dcedef"/></linearGradient><linearGradient id="h" x1="50%" x2="50%" y1="0%" y2="100%"><stop offset="0" stop-color="#adbbca" stop-opacity=".702712"/><stop offset="1" stop-color="#e4e8e9" stop-opacity="0"/></linearGradient><linearGradient id="i" x1="50%" x2="50%" y1="0%" y2="100%"><stop offset="0" stop-color="#7692ae"/><stop offset="1" stop-color="#93b0ce"/></linearGradient><linearGradient id="j" x1="59.441046%" x2="38.852777%" y1="28.621557%" y2="68.75348%"><stop offset="0" stop-color="#7fb8e4"/><stop offset=".174573574" stop-color="#b7d9f2"/><stop offset="1" stop-color="#529ad3"/></linearGradient><linearGradient id="k" x1="22.521239%" x2="14.161093%" y1="65.738774%" y2="7.863517%"><stop offset="0" stop-color="#5da1d7"/><stop offset=".604768488" stop-color="#62a5e1"/><stop offset="1" stop-color="#4585cb"/></linearGradient><linearGradient id="l"><stop offset=".1" stop-color="#76b3e1"/><stop offset=".3" stop-color="#dcf2fd"/><stop offset="1" stop-color="#76b3e1"/></linearGradient><linearGradient id="m" x1="-6.108066%" x2="91.386061%" xlink:href="#l" y1="36.81522%" y2="62.303618%"/><linearGradient id="n"><stop offset="0" stop-color="#76b3e1"/><stop offset=".5" stop-color="#4377bb"/><stop offset="1" stop-color="#1f3b77"/></linearGradient><linearGradient id="o" x1="57.053098%" x2="38.023779%" xlink:href="#n" y1="38.701125%" y2="68.243306%"/><linearGradient id="p" x1="69.783561%" x2="53.28041%" y1="4.663594%" y2="50%"><stop offset="0" stop-color="#a2d1eb"/><stop offset="1" stop-color="#7db6e3"/></linearGradient><linearGradient id="q" x1="20.675632%" x2="70.687558%" y1="-63.83431%" y2="78.971875%"><stop offset="0" stop-color="#89bee6"/><stop offset="1" stop-color="#518ac8"/></linearGradient><linearGradient id="r" x1="-6.108066%" x2="91.386061%" xlink:href="#l" y1="36.868354%" y2="62.254035%"/><linearGradient id="s" x1="57.053098%" x2="38.023779%" xlink:href="#n" y1="38.581214%" y2="68.436916%"/><linearGradient id="t" x1="10.725742%" x2="104.501499%" xlink:href="#a" y1="34.820964%" y2="70.249339%"/><linearGradient id="u" x1="62.096597%" x2="17.791722%" xlink:href="#c" y1="29.701841%" y2="104.958828%"/><linearGradient id="v" x1="-6.108066%" x2="91.386061%" xlink:href="#l" y1="36.883155%" y2="62.240223%"/><linearGradient id="w" x1="57.053098%" x2="38.023779%" xlink:href="#n" y1="38.702645%" y2="68.240853%"/><g fill="none" fill-rule="evenodd" opacity=".24" transform="translate(.243902)"><g fill-rule="nonzero" transform="matrix(-.25881905 -.96592583 .96592583 -.25881905 266.534447 585.743104)"><path d="m116.028684 46.4107486c-9.408612-11.8447139-25.1214716-16.7929075-39.6679309-12.491972l-51.8094772 16.7111149-16.29961088 28.8721737 92.80798798 15.8011037 16.632256-29.4512718c3.326451-5.7082521 2.993806-12.8228851-1.663225-19.4411485z" fill="url(#b)" transform="matrix(-.87461971 .48480962 -.48480962 -.87461971 151.07171 88.621197)"/><path d="m105.428885 34.3081813c-9.4086987-11.7914821-25.0638703-16.7318663-39.5847696-12.491972l-51.8926385 16.7111149s43.8259944 32.92586 77.8389578 25.2321289l2.9938061-.8272829c13.8879342-4.3845994 18.6281262-17.2902129 10.6446442-28.6239889z" fill="url(#d)" transform="matrix(-.87461971 .48480962 -.48480962 -.87461971 136.191928 50.020559)"/></g><g fill-rule="nonzero" transform="matrix(-.25881905 -.96592583 .96592583 -.25881905 33.168362 325.391627)"><path d="m116.028684 46.4107486c-9.408612-11.8447139-25.1214716-16.7929075-39.6679309-12.491972l-51.8094772 16.7111149-16.29961088 28.8721737 92.80798798 15.8011037 16.632256-29.4512718c3.326451-5.7082521 2.993806-12.8228851-1.663225-19.4411485z" fill="url(#b)" transform="matrix(-.87461971 .48480962 -.48480962 -.87461971 151.07171 88.621197)"/><path d="m105.428885 34.3081813c-9.4086987-11.7914821-25.0638703-16.7318663-39.5847696-12.491972l-51.8926385 16.7111149s43.8259944 32.92586 77.8389578 25.2321289l2.9938061-.8272829c13.8879342-4.3845994 18.6281262-17.2902129 10.6446442-28.6239889z" fill="url(#d)" transform="matrix(-.87461971 .48480962 -.48480962 -.87461971 136.191928 50.020559)"/></g><g transform="translate(393.928934 496)"><path d="m0 22.9828823 43.1468653-22.9828823 43.1468653 22.9828823v53.0374208l-43.1468653 23.8668394-43.1468653-23.8668394z" fill="url(#e)"/><path d="m0 22.9828823 43.1468653-22.9828823 43.1468653 22.9828823v53.0374208l-43.1468653 23.8668394-43.1468653-23.8668394z" fill="url(#f)"/><path d="m42.956791 47.0950786 43.3369396-23.9273383v53.1718629l-43.3369396 23.9273388z" fill="url(#g)"/><path d="m42.956791 47.0950786 43.3369396-23.9273383v53.1718629l-43.3369396 23.9273388z" fill="url(#g)"/><path d="m42.956791 47.0950786 43.3369396 29.2445246-43.3369396 23.9273388z" fill="url(#h)"/><g fill="url(#i)"><path d="m0 47.0950786 43.3369396-23.9273383v53.1718629l-43.3369396 23.9273388z" transform="matrix(-1 0 0 1 43.33694 0)"/><path d="m0 47.0950786 43.3369396 29.2445246-43.3369396 23.9273388z" transform="matrix(-1 0 0 1 43.33694 0)"/></g></g><g transform="translate(436.885725 519.16774)"><path d="m0 22.9828823 43.1468653-22.9828823 43.1468653 22.9828823v53.0374208l-43.1468653 23.8668394-43.1468653-23.8668394z" fill="url(#e)"/><path d="m0 22.9828823 43.1468653-22.9828823 43.1468653 22.9828823v53.0374208l-43.1468653 23.8668394-43.1468653-23.8668394z" fill="url(#f)"/><path d="m42.956791 47.0950786 43.3369396-23.9273383v53.1718629l-43.3369396 23.9273388z" fill="url(#g)"/><path d="m42.956791 47.0950786 43.3369396-23.9273383v53.1718629l-43.3369396 23.9273388z" fill="url(#g)"/><path d="m42.956791 47.0950786 43.3369396 29.2445246-43.3369396 23.9273388z" fill="url(#h)"/><g fill="url(#i)"><path d="m0 47.0950786 43.3369396-23.9273383v53.1718629l-43.3369396 23.9273388z" transform="matrix(-1 0 0 1 43.33694 0)"/><path d="m0 47.0950786 43.3369396 29.2445246-43.3369396 23.9273388z" transform="matrix(-1 0 0 1 43.33694 0)"/></g></g><g transform="translate(479.462367 542.71528)"><path d="m0 22.9828823 43.1468653-22.9828823 43.1468653 22.9828823v53.0374208l-43.1468653 23.8668394-43.1468653-23.8668394z" fill="url(#e)"/><path d="m0 22.9828823 43.1468653-22.9828823 43.1468653 22.9828823v53.0374208l-43.1468653 23.8668394-43.1468653-23.8668394z" fill="url(#f)"/><path d="m42.956791 47.0950786 43.3369396-23.9273383v53.1718629l-43.3369396 23.9273388z" fill="url(#g)"/><path d="m42.956791 47.0950786 43.3369396-23.9273383v53.1718629l-43.3369396 23.9273388z" fill="url(#g)"/><path d="m42.956791 47.0950786 43.3369396 29.2445246-43.3369396 23.9273388z" fill="url(#h)"/><g fill="url(#i)"><path d="m0 47.0950786 43.3369396-23.9273383v53.1718629l-43.3369396 23.9273388z" transform="matrix(-1 0 0 1 43.33694 0)"/><path d="m0 47.0950786 43.3369396 29.2445246-43.3369396 23.9273388z" transform="matrix(-1 0 0 1 43.33694 0)"/></g></g><g transform="translate(350.615509 518.564803)"><path d="m0 23.9828823 43.1468653-22.9828823 43.1468653 22.9828823v53.0374208l-43.1468653 23.8668389-43.1468653-23.8668389z" fill="url(#e)"/><path d="m0 23.9828823 43.1468653-23.9828823 43.1468653 23.9828823v53.0374208l-43.1468653 23.8668389-43.1468653-23.8668389z" fill="url(#f)"/><path d="m42.956791 48.0950786 43.3369396-23.9273383v53.1718629l-43.3369396 23.9273388z" fill="url(#g)"/><path d="m42.956791 48.0950786 43.3369396-23.9273383v53.1718629l-43.3369396 23.9273388z" fill="url(#g)"/><path d="m42.956791 48.0950786 43.3369396 29.2445246-43.3369396 23.9273388z" fill="url(#h)"/><g fill="url(#i)"><path d="m0 48.0950786 43.3369396-23.9273383v53.1718629l-43.3369396 23.9273388z" transform="matrix(-1 0 0 1 43.33694 0)"/><path d="m0 48.0950786 43.3369396 29.2445246-43.3369396 23.9273388z" transform="matrix(-1 0 0 1 43.33694 0)"/></g></g><g transform="translate(210.756098 542.71528)"><path d="m0 22.9828823 43.1468653-22.9828823 43.1468653 22.9828823v53.0374208l-43.1468653 23.8668394-43.1468653-23.8668394z" fill="url(#e)"/><path d="m0 22.9828823 43.1468653-22.9828823 43.1468653 22.9828823v53.0374208l-43.1468653 23.8668394-43.1468653-23.8668394z" fill="url(#f)"/><path d="m42.956791 47.0950786 43.3369396-23.9273383v53.1718629l-43.3369396 23.9273388z" fill="url(#g)"/><path d="m42.956791 47.0950786 43.3369396-23.9273383v53.1718629l-43.3369396 23.9273388z" fill="url(#g)"/><path d="m42.956791 47.0950786 43.3369396 29.2445246-43.3369396 23.9273388z" fill="url(#h)"/><g fill="url(#i)"><path d="m0 47.0950786 43.3369396-23.9273383v53.1718629l-43.3369396 23.9273388z" transform="matrix(-1 0 0 1 43.33694 0)"/><path d="m0 47.0950786 43.3369396 29.2445246-43.3369396 23.9273388z" transform="matrix(-1 0 0 1 43.33694 0)"/></g></g><g transform="translate(307.666556 595.733058)"><path d="m0 23.9828823 43.1468653-22.9828823 43.1468653 22.9828823v53.0374208l-43.1468653 23.8668389-43.1468653-23.8668389z" fill="url(#e)"/><path d="m0 23.9828823 43.1468653-23.9828823 43.1468653 23.9828823v53.0374208l-43.1468653 23.8668389-43.1468653-23.8668389z" fill="url(#f)"/><path d="m42.956791 48.0950786 43.3369396-23.9273383v53.1718629l-43.3369396 23.9273388z" fill="url(#g)"/><path d="m42.956791 48.0950786 43.3369396-23.9273383v53.1718629l-43.3369396 23.9273388z" fill="url(#g)"/><path d="m42.956791 48.0950786 43.3369396 29.2445246-43.3369396 23.9273388z" fill="url(#h)"/><g fill="url(#i)"><path d="m0 48.0950786 43.3369396-23.9273383v53.1718629l-43.3369396 23.9273388z" transform="matrix(-1 0 0 1 43.33694 0)"/><path d="m0 48.0950786 43.3369396 29.2445246-43.3369396 23.9273388z" transform="matrix(-1 0 0 1 43.33694 0)"/></g></g><g transform="translate(116.756098 251)"><path d="m0 23.1509118 43.5-23.1509118 43.5 23.1509118v53.425181l-43.5 24.0413312-43.5-24.0413312z" fill="url(#e)"/><path d="m0 23.1509118 43.5-23.1509118 43.5 23.1509118v53.425181l-43.5 24.0413312-43.5-24.0413312z" fill="url(#f)"/><path d="m43.30837 47.4393939 43.69163-24.1022727v53.5606061l-43.69163 24.1022727z" fill="url(#g)"/><path d="m43.30837 47.4393939 43.69163-24.1022727v53.5606061l-43.69163 24.1022727z" fill="url(#g)"/><path d="m43.30837 47.4393939 43.69163 29.4583334-43.69163 24.1022727z" fill="url(#h)"/><g fill="url(#i)"><path d="m0 47.4393939 43.69163-24.1022727v53.5606061l-43.69163 24.1022727z" transform="matrix(-1 0 0 1 43.69163 0)"/><path d="m0 47.4393939 43.69163 29.4583334-43.69163 24.1022727z" transform="matrix(-1 0 0 1 43.69163 0)"/></g></g><g transform="translate(354.756098 385)"><path d="m0 23.013997 43.2188612-23.013997 43.2188612 23.013997v53.1092237l-43.2188612 23.8991503-43.2188612-23.8991503z" fill="url(#e)"/><path d="m0 23.013997 43.2188612-23.013997 43.2188612 23.013997v53.1092237l-43.2188612 23.8991503-43.2188612-23.8991503z" fill="url(#f)"/><path d="m43.0284698 47.1588367 43.4092526-23.9597316v53.2438479l-43.4092526 23.959732z" fill="url(#g)"/><path d="m43.0284698 47.1588367 43.4092526-23.9597316v53.2438479l-43.4092526 23.959732z" fill="url(#g)"/><path d="m43.0284698 47.1588367 43.4092526 29.2841163-43.4092526 23.959732z" fill="url(#h)"/><g fill="url(#i)"><path d="m0 47.1588367 43.4092527-23.9597316v53.2438479l-43.4092527 23.959732z" transform="matrix(-1 0 0 1 43.409252 0)"/><path d="m0 47.1588367 43.4092527 29.2841163-43.4092527 23.959732z" transform="matrix(-1 0 0 1 43.409252 0)"/></g></g><g transform="translate(397.642219 407.818792)"><path d="m0 24.013997 43.2188612-23.013997 43.2188612 23.013997v53.1092237l-43.2188612 23.8991503-43.2188612-23.8991503z" fill="url(#e)"/><path d="m0 24.013997 43.2188612-24.013997 43.2188612 23.013997v54.1092237l-43.2188612 23.8991503-43.2188612-23.8991503z" fill="url(#f)"/><path d="m43.0284698 48.1588367 43.4092526-23.9597316v53.2438479l-43.4092526 23.959732z" fill="url(#g)"/><path d="m43.0284698 48.1588367 43.4092526-23.9597316v53.2438479l-43.4092526 23.959732z" fill="url(#g)"/><path d="m43.0284698 48.1588367 43.4092526 29.2841163-43.4092526 23.959732z" fill="url(#h)"/><g fill="url(#i)"><path d="m0 48.1588367 43.4092527-23.9597316v53.2438479l-43.4092527 23.959732z" transform="matrix(-1 0 0 1 43.409252 0)"/><path d="m0 48.1588367 43.4092527 29.2841163-43.4092527 23.959732z" transform="matrix(-1 0 0 1 43.409252 0)"/></g></g><g transform="translate(439.670689 430.017897)"><path d="m0 25.013997 43.2188612-23.013997 43.2188612 23.013997v53.1092237l-43.2188612 23.8991503-43.2188612-23.8991503z" fill="url(#e)"/><path d="m0 25.013997 43.2188612-25.013997 43.2188612 24.013997v54.1092237l-43.2188612 23.8991503-43.2188612-23.8991503z" fill="url(#f)"/><path d="m43.0284698 49.1588367 43.4092526-23.9597316v53.2438479l-43.4092526 23.959732z" fill="url(#g)"/><path d="m43.0284698 49.1588367 43.4092526-23.9597316v53.2438479l-43.4092526 23.959732z" fill="url(#g)"/><path d="m43.0284698 49.1588367 43.4092526 29.2841163-43.4092526 23.959732z" fill="url(#h)"/><g fill="url(#i)"><path d="m0 49.1588367 43.4092527-23.9597316v53.2438479l-43.4092527 23.959732z" transform="matrix(-1 0 0 1 43.409252 0)"/><path d="m0 49.1588367 43.4092527 29.2841163-43.4092527 23.959732z" transform="matrix(-1 0 0 1 43.409252 0)"/></g></g><g transform="translate(482.318376 453.597315)"><path d="m0 25.013997 43.2188612-23.013997 43.2188612 23.013997v53.1092237l-43.2188612 23.8991503-43.2188612-23.8991503z" fill="url(#e)"/><path d="m0 25.013997 43.2188612-25.013997 43.2188612 25.013997v53.1092237l-43.2188612 23.8991503-43.2188612-23.8991503z" fill="url(#f)"/><path d="m43.0284698 49.1588367 43.4092526-23.9597316v53.2438479l-43.4092526 23.959732z" fill="url(#g)"/><path d="m43.0284698 49.1588367 43.4092526-23.9597316v53.2438479l-43.4092526 23.959732z" fill="url(#g)"/><path d="m43.0284698 49.1588367 43.4092526 29.2841163-43.4092526 23.959732z" fill="url(#h)"/><g fill="url(#i)"><path d="m0 49.1588367 43.4092527-23.9597316v53.2438479l-43.4092527 23.959732z" transform="matrix(-1 0 0 1 43.409252 0)"/><path d="m0 49.1588367 43.4092527 29.2841163-43.4092527 23.959732z" transform="matrix(-1 0 0 1 43.409252 0)"/></g></g><g transform="translate(355.756098 261)"><path d="m.38157895 23.2389381 43.30921055-23.2389381 43.3092105 23.2389381v53.6283185l-43.3092105 24.1327434-43.30921055-24.1327434z" fill="url(#e)"/><path d="m.38157895 23.2389381 43.30921055-23.2389381 43.3092105 23.2389381v53.6283185l-43.3092105 24.1327434-43.30921055-24.1327434z" fill="url(#f)"/><path d="m43.5 47.2357414 43.5-24.1939163v53.7642586l-43.5 24.1939163z" fill="url(#g)"/><path d="m43.5 47.2357414 43.5-24.1939163v53.7642586l-43.5 24.1939163z" fill="url(#g)"/><path d="m43.5 47.2357414 43.5 29.5703423-43.5 24.1939163z" fill="url(#h)"/><g fill="url(#i)"><path d="m0 47.2357414 43.5-24.1939163v53.7642586l-43.5 24.1939163z" transform="matrix(-1 0 0 1 43.5 0)"/><path d="m0 47.2357414 43.5 29.5703423-43.5 24.1939163z" transform="matrix(-1 0 0 1 43.5 0)"/></g></g><g transform="matrix(.98480775 .17364818 -.17364818 .98480775 409.45439 330.692864)"><path d="m55.3459898 1.76188313c2.0400155.32882941 11.0306277 3.13062152 26.9718366 8.40537637 14.576335 4.8517289 25.0801496 8.7537071 31.5114436 11.7059346 0 0-37.2124086 10.9177104-67.1594304 28.9179883-.6046887 5.5019176-1.4170033 11.8089823-2.4361504 18.9211927-16.961105-5.6296103-26.2372881-8.7759346-27.8285491-9.4389728-9.53256167-3.9719767-16.4051401-15.2161684-16.4051401-28.4668309 0-11.253272 4.95680859-21.0593882 12.2901068-26.19294973-.016922-.04529336-.0344215-.09112108-.0519293-.1369775 8.6040815-5.72197429 22.9733522-6.96022797 43.1078123-3.71476104z" fill="url(#j)"/><path d="m117.13099 23.3218651s-23.8707154 20.0235332-53.9451419 41.7352233c-4.05067 3.3942042-8.9781689 5.3844275-14.2930357 5.3844275-13.8071188 0-25-13.4314575-25-30 0-12.6824662 6.5581404-23.5268494 15.8269369-27.9161686 15.933265-9.03042144 41.7369841-5.43172269 77.4112407 10.7965178z" fill="url(#k)"/></g><g transform="matrix(.98480775 .17364818 -.17364818 .98480775 73.45439 526.692864)"><path d="m55.3459898 1.76188313c2.0400155.32882941 11.0306277 3.13062152 26.9718366 8.40537637 14.576335 4.8517289 25.0801496 8.7537071 31.5114436 11.7059346 0 0-37.2124086 10.9177104-67.1594304 28.9179883-.6046887 5.5019176-1.4170033 11.8089823-2.4361504 18.9211927-16.961105-5.6296103-26.2372881-8.7759346-27.8285491-9.4389728-9.53256167-3.9719767-16.4051401-15.2161684-16.4051401-28.4668309 0-11.253272 4.95680859-21.0593882 12.2901068-26.19294973-.016922-.04529336-.0344215-.09112108-.0519293-.1369775 8.6040815-5.72197429 22.9733522-6.96022797 43.1078123-3.71476104z" fill="url(#j)"/><path d="m117.13099 23.3218651s-23.8707154 20.0235332-53.9451419 41.7352233c-4.05067 3.3942042-8.9781689 5.3844275-14.2930357 5.3844275-13.8071188 0-25-13.4314575-25-30 0-12.6824662 6.5581404-23.5268494 15.8269369-27.9161686 15.933265-9.03042144 41.7369841-5.43172269 77.4112407 10.7965178z" fill="url(#k)"/></g><g transform="matrix(.98480775 .17364818 -.17364818 .98480775 398.45439 661.692864)"><path d="m55.3459898 1.76188313c2.0400155.32882941 11.0306277 3.13062152 26.9718366 8.40537637 14.576335 4.8517289 25.0801496 8.7537071 31.5114436 11.7059346 0 0-37.2124086 10.9177104-67.1594304 28.9179883-.6046887 5.5019176-1.4170033 11.8089823-2.4361504 18.9211927-16.961105-5.6296103-26.2372881-8.7759346-27.8285491-9.4389728-9.53256167-3.9719767-16.4051401-15.2161684-16.4051401-28.4668309 0-11.253272 4.95680859-21.0593882 12.2901068-26.19294973-.016922-.04529336-.0344215-.09112108-.0519293-.1369775 8.6040815-5.72197429 22.9733522-6.96022797 43.1078123-3.71476104z" fill="url(#j)"/><path d="m117.13099 23.3218651s-23.8707154 20.0235332-53.9451419 41.7352233c-4.05067 3.3942042-8.9781689 5.3844275-14.2930357 5.3844275-13.8071188 0-25-13.4314575-25-30 0-12.6824662 6.5581404-23.5268494 15.8269369-27.9161686 15.933265-9.03042144 41.7369841-5.43172269 77.4112407 10.7965178z" fill="url(#k)"/></g><g transform="translate(159.756098 222)"><path d="m0 23.2389381 43.5-23.2389381 43.5 23.2389381v53.6283185l-43.5 24.1327434-43.5-24.1327434z" fill="url(#e)"/><path d="m0 23.2389381 43.5-23.2389381 43.5 23.2389381v53.6283185l-43.5 24.1327434-43.5-24.1327434z" fill="url(#f)"/><path d="m43.30837 47.4393939 43.69163-24.1022727v53.5606061l-43.69163 24.1022727z" fill="url(#g)"/><path d="m43.30837 47.4393939 43.69163-24.1022727v53.5606061l-43.69163 24.1022727z" fill="url(#g)"/><path d="m43.30837 47.4393939 43.69163 29.4583334-43.69163 24.1022727z" fill="url(#h)"/><g fill="url(#i)"><path d="m0 47.4393939 43.69163-24.1022727v53.5606061l-43.69163 24.1022727z" transform="matrix(-1 0 0 1 43.69163 0)"/><path d="m0 47.4393939 43.69163 29.4583334-43.69163 24.1022727z" transform="matrix(-1 0 0 1 43.69163 0)"/></g></g><g fill-rule="nonzero" transform="translate(83.649575 107.137103)"><path d="m131.938653 53.7583109s-41.8072995-29.9609077-79.4008844-21.4987552l-3.3085803.9116268c-5.7894773 1.8251915-10.104289 5.0328956-12.7622274 8.8880403-.5500668.7342107-.9159887 1.5607899-1.3740906 2.295216l-13.8313641 23.5955095 24.0137913 4.7450279c9.9440309 7.0278818 22.3936727 9.4982543 34.2266198 6.7915608l42.7832207 8.4664664z" fill="#76b3e1" transform="matrix(.70710678 .70710678 -.70710678 .70710678 64.404775 -36.780253)"/><path d="m132.472362 54.7011472s-42.5623998-30.5499013-80.1144733-22.139091l-3.3049288.9061043c-5.7830906 1.8141442-10.0931635 5.0025005-12.7482044 8.8344212-.5494664.7297873-.9149928 1.5513894-1.3725962 2.2813917l-13.8163266 23.4533951 23.9871582 4.7167568c9.932944 6.9857149 22.3687782 9.4413682 34.1886597 6.7510948l42.7357714 8.4160222z" fill="url(#m)" opacity=".3" transform="matrix(.70710678 .70710678 -.70710678 .70710678 64.571795 -36.8718)"/><g transform="matrix(.70710678 .70710678 -.70710678 .70710678 66.257008 -17.829896)"><path d="m21.3223126 47.6659381-3.3049288.9061042c-15.32956908 4.8988561-20.53238274 19.1426124-11.68422082 31.6829665 10.43145132 13.0378375 27.74817552 18.5029092 43.75888802 13.8100864l57.187222-18.4171018s-48.4048869-36.3928657-85.9569604-27.9820553z" fill="url(#o)" opacity=".3"/><path d="m21.3223126 47.6659381-3.3049288.9061042c-15.32956908 4.8988561-20.53238274 19.1426124-11.68422082 31.6829665 10.43145132 13.0378375 27.74817552 18.5029092 43.75888802 13.8100864l57.187222-18.4171018s-48.4048869-36.3928657-85.9569604-27.9820553z" fill="#518ac8"/></g></g><g transform="translate(357.756098 124)"><path d="m36 92-36-14c6.09014393-25.8928571 13.6126799-45.3660714 22.5676079-58.4196429 13.4323921-19.5803571 21.8026043-19.5803571 32.5126556-19.5803571 7.1400341 0 19.7799463 4.66666667 37.9197365 14z" fill="url(#p)"/><path d="m47.5451939 44.4642857c10.4548061-23.4642857 18.3600879-28.7946428 37.4851793-31.4821428 19.1250918-2.6875 17.5950838 27.2410714 11.9696268 41.0178571-3.7503049 9.1845238-25.0802635 20.8511905-63.9898756 35 2.7201756-14.047619 7.5651988-28.8928571 14.5350695-44.5357143z" fill="url(#q)"/></g><g transform="translate(312.756098 185)"><path d="m0 23.2389381 43.3092105-23.2389381 43.3092106 23.2389381v53.6283185l-43.3092106 24.1327434-43.3092105-24.1327434z" fill="url(#e)"/><path d="m0 23.2389381 43.3092105-23.2389381 43.3092106 23.2389381v53.6283185l-43.3092106 24.1327434-43.3092105-24.1327434z" fill="url(#f)"/><path d="m43.5 47.2357414 43.5-24.1939163v53.7642586l-43.5 24.1939163z" fill="url(#g)"/><path d="m43.5 47.2357414 43.5-24.1939163v53.7642586l-43.5 24.1939163z" fill="url(#g)"/><path d="m43.5 47.2357414 43.5 29.5703423-43.5 24.1939163z" fill="url(#h)"/><g fill="url(#i)"><path d="m0 47.2357414 43.5-24.1939163v53.7642586l-43.5 24.1939163z" transform="matrix(-1 0 0 1 43.5 0)"/><path d="m0 47.2357414 43.5 29.5703423-43.5 24.1939163z" transform="matrix(-1 0 0 1 43.5 0)"/></g></g><g transform="translate(398.756098 184)"><path d="m0 23.2389381 43.3092105-23.2389381 43.3092106 23.2389381v53.6283185l-43.3092106 24.1327434-43.3092105-24.1327434z" fill="url(#e)"/><path d="m0 23.2389381 43.3092105-23.2389381 43.3092106 23.2389381v53.6283185l-43.3092106 24.1327434-43.3092105-24.1327434z" fill="url(#f)"/><path d="m43.5 47.2357414 43.5-24.1939163v53.7642586l-43.5 24.1939163z" fill="url(#g)"/><path d="m43.5 47.2357414 43.5-24.1939163v53.7642586l-43.5 24.1939163z" fill="url(#g)"/><path d="m43.5 47.2357414 43.5 29.5703423-43.5 24.1939163z" fill="url(#h)"/><g fill="url(#i)"><path d="m0 47.2357414 43.5-24.1939163v53.7642586l-43.5 24.1939163z" transform="matrix(-1 0 0 1 43.5 0)"/><path d="m0 47.2357414 43.5 29.5703423-43.5 24.1939163z" transform="matrix(-1 0 0 1 43.5 0)"/></g></g><g transform="translate(225.756098 338)"><path d="m0 23.2389381 43.3092105-23.2389381 43.3092106 23.2389381v53.6283185l-43.3092106 24.1327434-43.3092105-24.1327434z" fill="url(#e)"/><path d="m0 23.2389381 43.3092105-23.2389381 43.3092106 23.2389381v53.6283185l-43.3092106 24.1327434-43.3092105-24.1327434z" fill="url(#f)"/><path d="m43.5 47.2357414 43.5-24.1939163v53.7642586l-43.5 24.1939163z" fill="url(#g)"/><path d="m43.5 47.2357414 43.5-24.1939163v53.7642586l-43.5 24.1939163z" fill="url(#g)"/><path d="m43.5 47.2357414 43.5 29.5703423-43.5 24.1939163z" fill="url(#h)"/><g fill="url(#i)"><path d="m0 47.2357414 43.5-24.1939163v53.7642586l-43.5 24.1939163z" transform="matrix(-1 0 0 1 43.5 0)"/><path d="m0 47.2357414 43.5 29.5703423-43.5 24.1939163z" transform="matrix(-1 0 0 1 43.5 0)"/></g></g><g transform="translate(138.756098 392)"><path d="m0 23.2389381 43.3092105-23.2389381 43.3092106 23.2389381v53.6283185l-43.3092106 24.1327434-43.3092105-24.1327434z" fill="url(#e)"/><path d="m0 23.2389381 43.3092105-23.2389381 43.3092106 23.2389381v53.6283185l-43.3092106 24.1327434-43.3092105-24.1327434z" fill="url(#f)"/><path d="m43.5 47.2357414 43.5-24.1939163v53.7642586l-43.5 24.1939163z" fill="url(#g)"/><path d="m43.5 47.2357414 43.5-24.1939163v53.7642586l-43.5 24.1939163z" fill="url(#g)"/><path d="m43.5 47.2357414 43.5 29.5703423-43.5 24.1939163z" fill="url(#h)"/><g fill="url(#i)"><path d="m0 47.2357414 43.5-24.1939163v53.7642586l-43.5 24.1939163z" transform="matrix(-1 0 0 1 43.5 0)"/><path d="m0 47.2357414 43.5 29.5703423-43.5 24.1939163z" transform="matrix(-1 0 0 1 43.5 0)"/></g></g><g transform="translate(269.756098 208)"><path d="m0 23.1509118 43.3092105-23.1509118 43.3092106 23.1509118v53.425181l-43.3092106 24.0413312-43.3092105-24.0413312z" fill="url(#e)"/><path d="m0 23.1509118 43.3092105-23.1509118 43.3092106 23.1509118v53.425181l-43.3092106 24.0413312-43.3092105-24.0413312z" fill="url(#f)"/><path d="m43.5 47.4393939 43.5-24.1022727v53.5606061l-43.5 24.1022727z" fill="url(#g)"/><path d="m43.5 47.4393939 43.5-24.1022727v53.5606061l-43.5 24.1022727z" fill="url(#g)"/><path d="m43.5 47.0568182 43.5 29.4583333-43.5 24.1022725z" fill="url(#h)"/><g fill="url(#i)"><path d="m0 47.4393939 43.5-24.1022727v53.5606061l-43.5 24.1022727z" transform="matrix(-1 0 0 1 43.5 0)"/><path d="m0 47.0568182 43.5 29.4583333-43.5 24.1022725z" transform="matrix(-1 0 0 1 43.5 0)"/></g></g><g transform="translate(268.756098 361)"><path d="m0 24.2389381 43.3092105-23.2389381 43.3092106 23.2389381v53.6283185l-43.3092106 24.1327434-43.3092105-24.1327434z" fill="url(#e)"/><path d="m0 24.2389381 43.3092105-24.2389381 43.3092106 24.2389381v53.6283185l-43.3092106 24.1327434-43.3092105-24.1327434z" fill="url(#f)"/><path d="m43.5 48.2357414 43.5-24.1939163v53.7642586l-43.5 24.1939163z" fill="url(#g)"/><path d="m43.5 48.2357414 43.5-24.1939163v53.7642586l-43.5 24.1939163z" fill="url(#g)"/><path d="m43.5 48.2357414 43.5 29.5703423-43.5 24.1939163z" fill="url(#h)"/><g fill="url(#i)"><path d="m0 48.2357414 43.5-24.1939163v53.7642586l-43.5 24.1939163z" transform="matrix(-1 0 0 1 43.5 0)"/><path d="m0 48.2357414 43.5 29.5703423-43.5 24.1939163z" transform="matrix(-1 0 0 1 43.5 0)"/></g></g><g transform="translate(355.756098 207)"><path d="m0 24.2389381 43.3092105-23.2389381 43.3092106 23.2389381v53.6283185l-43.3092106 24.1327434-43.3092105-24.1327434z" fill="url(#e)"/><path d="m0 24.2389381 43.3092105-24.2389381 43.3092106 24.2389381v53.6283185l-43.3092106 24.1327434-43.3092105-24.1327434z" fill="url(#f)"/><path d="m43.5 48.2357414 43.5-24.1939163v53.7642586l-43.5 24.1939163z" fill="url(#g)"/><path d="m43.5 48.2357414 43.5-24.1939163v53.7642586l-43.5 24.1939163z" fill="url(#g)"/><path d="m43.5 48.2357414 43.5 29.5703423-43.5 24.1939163z" fill="url(#h)"/><g fill="url(#i)"><path d="m0 48.2357414 43.5-24.1939163v53.7642586l-43.5 24.1939163z" transform="matrix(-1 0 0 1 43.5 0)"/><path d="m0 48.2357414 43.5 29.5703423-43.5 24.1939163z" transform="matrix(-1 0 0 1 43.5 0)"/></g></g><g transform="translate(312.756098 285)"><path d="m0 23.1509118 43.3092105-23.1509118 43.3092106 23.1509118v53.425181l-43.3092106 24.0413312-43.3092105-24.0413312z" fill="url(#e)"/><path d="m0 23.1509118 43.3092105-23.1509118 43.3092106 23.1509118v53.425181l-43.3092106 24.0413312-43.3092105-24.0413312z" fill="url(#f)"/><path d="m43.5 47.4393939 43.5-24.1022727v53.5606061l-43.5 24.1022727z" fill="url(#g)"/><path d="m43.5 47.4393939 43.5-24.1022727v53.5606061l-43.5 24.1022727z" fill="url(#g)"/><path d="m43.5 47.0568182 43.5 29.4583333-43.5 24.1022725z" fill="url(#h)"/><g fill="url(#i)"><path d="m0 47.4393939 43.5-24.1022727v53.5606061l-43.5 24.1022727z" transform="matrix(-1 0 0 1 43.5 0)"/><path d="m0 47.0568182 43.5 29.4583333-43.5 24.1022725z" transform="matrix(-1 0 0 1 43.5 0)"/></g></g><g fill-rule="nonzero" transform="matrix(.98162718 .190809 -.190809 .98162718 278.794268 205.705271)"><path d="m107.175316 63.1485403s-38.2235931-31.269184-72.2523963-23.6151827l-2.9949076.8242982c-5.2406851 1.6500486-11.0492767 3.9298052-13.4563658 7.4115749-.4981297.6631174-.8296247 1.4095682-1.2445177 2.0728469l-10.62517136 21.9274167 21.73300146 4.2756578c8.9977173 6.341907 20.2649092 8.5679333 30.9758222 6.1198029l38.7197374 7.629001z" fill="#76b3e1" transform="matrix(-.87461971 .48480962 -.48480962 -.87461971 146.249129 150.107887)"/><path d="m107.260038 63.1088288s-38.1746547-31.0703258-72.1658674-23.4626963l-2.9916007.8193106c-5.2349004 1.6400717-11.0391959 3.9023574-13.4436541 7.3631572-.4975846.6591232-.8287199 1.40108-1.24316 2.0603644l-10.61150929 21.799096 21.70890639 4.2501414c8.987698 6.3038384 20.242398 8.5165797 30.9414795 6.0832797l38.6768093 7.5834719z" fill="url(#r)" opacity=".3" transform="matrix(-.87461971 .48480962 -.48480962 -.87461971 146.501365 149.973426)"/><path d="m21.4152007 21.2273232-2.9916008.8193106c-13.87648294 4.4286933-17.33063712 16.6492267-9.32679396 27.9687447 9.43668696 11.7681272 23.84787906 17.3383603 38.34078556 13.0954499l51.7665112-16.6493793s-43.7976893-32.8417553-77.788902-25.2341259z" fill="url(#s)" opacity=".3" transform="matrix(-.87461971 .48480962 -.48480962 -.87461971 126.595948 111.679061)"/><path d="m21.4152007 21.2273232-2.9916008.8193106c-13.87648294 4.4286933-17.33063712 16.6492267-9.32679396 27.9687447 9.43668696 11.7681272 23.84787906 17.3383603 38.34078556 13.0954499l51.7665112-16.6493793s-43.7976893-32.8417553-77.788902-25.2341259z" fill="#518ac8" transform="matrix(-.87461971 .48480962 -.48480962 -.87461971 126.595948 111.679061)"/><path d="m75.7360161 36.3071437-56.4979486 18.1839696-11.50909964 27.1477455 94.78390114 12.0034773 8.901542-27.2598372c2.22307-6.9781974 2.968352-12.7834463-1.70057-19.3933744-9.429676-11.8318778-19.4426263-14.9434421-33.9778249-10.6819808z" fill="url(#t)" transform="matrix(-.87461971 .48480962 -.48480962 -.87461971 144.371727 90.796427)"/><path d="m98.0730383 34.3334602c-9.4296591-11.7787858-25.0912575-16.7365514-39.6010195-12.5359216l-51.84981607 16.5667068s43.88099427 32.9244277 77.87220697 25.3167983l2.9916007-.8193106c13.8766436-4.346182 18.5908706-17.2087549 10.5870279-28.5282729z" fill="url(#u)" transform="matrix(-.87461971 .48480962 -.48480962 -.87461971 122.423778 53.484166)"/></g><g transform="translate(485.756098 184)"><path d="m0 23.1509118 43.5-23.1509118 43.5 23.1509118v53.425181l-43.5 24.0413312-43.5-24.0413312z" fill="url(#e)"/><path d="m0 23.1509118 43.5-23.1509118 43.5 23.1509118v53.425181l-43.5 24.0413312-43.5-24.0413312z" fill="url(#f)"/><path d="m43.30837 47.4393939 43.69163-24.1022727v53.5606061l-43.69163 24.1022727z" fill="url(#g)"/><path d="m43.30837 47.4393939 43.69163-24.1022727v53.5606061l-43.69163 24.1022727z" fill="url(#g)"/><path d="m43.30837 47.4393939 43.69163 29.4583334-43.69163 24.1022727z" fill="url(#h)"/><g fill="url(#i)"><path d="m0 47.4393939 43.69163-24.1022727v53.5606061l-43.69163 24.1022727z" transform="matrix(-1 0 0 1 43.69163 0)"/><path d="m0 47.4393939 43.69163 29.4583334-43.69163 24.1022727z" transform="matrix(-1 0 0 1 43.69163 0)"/></g></g><g transform="translate(485.756098 131)"><path d="m0 23.1509118 43.5-23.1509118 43.5 23.1509118v53.425181l-43.5 24.0413312-43.5-24.0413312z" fill="url(#e)"/><path d="m0 23.1509118 43.5-23.1509118 43.5 23.1509118v53.425181l-43.5 24.0413312-43.5-24.0413312z" fill="url(#f)"/><path d="m43.30837 47.4393939 43.69163-24.1022727v53.5606061l-43.69163 24.1022727z" fill="url(#g)"/><path d="m43.30837 47.4393939 43.69163-24.1022727v53.5606061l-43.69163 24.1022727z" fill="url(#g)"/><path d="m43.30837 47.4393939 43.69163 29.4583334-43.69163 24.1022727z" fill="url(#h)"/><g fill="url(#i)"><path d="m0 47.4393939 43.69163-24.1022727v53.5606061l-43.69163 24.1022727z" transform="matrix(-1 0 0 1 43.69163 0)"/><path d="m0 47.4393939 43.69163 29.4583334-43.69163 24.1022727z" transform="matrix(-1 0 0 1 43.69163 0)"/></g></g><g fill-rule="nonzero" transform="matrix(-.27563736 -.9612617 .9612617 -.27563736 462.988663 640.216761)"><path d="m118.683078 65.9126787s-41.7877016-29.899192-79.4466549-21.3386649l-3.3147245.9204868c-5.8007679 1.8409736-10.1283249 5.0626773-12.7985196 8.9287219-.5524541.7363894-.9207568 1.5648275-1.3811352 2.3012169l-13.90342775 23.6565104 24.03175265 4.6944827c9.9396001 7.0130832 22.3985295 9.4572636 34.2521531 6.7195535l42.8151912 8.37643z" fill="#76b3e1" transform="matrix(-.87461971 .48480962 -.48480962 -.87461971 153.303494 103.557535)"/><path d="m118.818978 66.8412204s-42.5423358-30.4871287-80.1596071-21.9781033l-3.3110557.914949c-5.7943474 1.8298979-10.1171145 5.0322193-12.7843538 8.875005-.5518426.7319592-.9197377 1.5554133-1.3796066 2.2873724l-13.88803902 23.5141886 24.00515362 4.6662398c9.9285987 6.9708912 22.3737382 9.400367 34.2142419 6.6791274l42.7678027 8.3260357z" fill="url(#v)" opacity=".3" transform="matrix(-.87461971 .48480962 -.48480962 -.87461971 152.991753 103.923556)"/><g transform="matrix(-.87461971 .48480962 -.48480962 -.87461971 131.660079 60.210642)"><path d="m24.7314062 23.7376084-3.3110557.914949c-15.35961937 4.9407245-20.60212418 19.2139284-11.77264239 31.7487293 10.41352259 13.0291754 27.73840909 18.4602729 43.77951389 13.7242346l57.299658-18.5734641s-48.3782025-36.3234742-85.9954738-27.8144488z" fill="url(#w)" opacity=".3"/><path d="m24.7314062 23.7376084-3.3110557.914949c-15.35961937 4.9407245-20.60212418 19.2139284-11.77264239 31.7487293 10.41352259 13.0291754 27.73840909 18.4602729 43.77951389 13.7242346l57.299658-18.5734641s-48.3782025-36.3234742-85.9954738-27.8144488z" fill="#518ac8"/></g></g><g transform="translate(570.756098 238)"><path d="m0 23.1509118 43.5-23.1509118 43.5 23.1509118v53.425181l-43.5 24.0413312-43.5-24.0413312z" fill="url(#e)"/><path d="m0 23.1509118 43.5-23.1509118 43.5 23.1509118v53.425181l-43.5 24.0413312-43.5-24.0413312z" fill="url(#f)"/><path d="m43.30837 47.4393939 43.69163-24.1022727v53.5606061l-43.69163 24.1022727z" fill="url(#g)"/><path d="m43.30837 47.4393939 43.69163-24.1022727v53.5606061l-43.69163 24.1022727z" fill="url(#g)"/><path d="m43.30837 47.4393939 43.69163 29.4583334-43.69163 24.1022727z" fill="url(#h)"/><g fill="url(#i)"><path d="m0 47.4393939 43.69163-24.1022727v53.5606061l-43.69163 24.1022727z" transform="matrix(-1 0 0 1 43.69163 0)"/><path d="m0 47.4393939 43.69163 29.4583334-43.69163 24.1022727z" transform="matrix(-1 0 0 1 43.69163 0)"/></g></g><g transform="translate(443.756098)"><path d="m0 23.1295182 43.1420959-23.1295182 43.1420959 23.1295182v53.3758112l-43.1420959 24.0191146-43.1420959-24.0191146z" fill="url(#e)"/><path d="m0 23.1295182 43.1420959-23.1295182 43.1420959 23.1295182v53.3758112l-43.1420959 24.0191146-43.1420959-24.0191146z" fill="url(#f)"/><path d="m42.9520426 47.3955556 43.3321492-24.08v53.5111111l-43.3321492 24.0800003z" fill="url(#g)"/><path d="m42.9520426 47.3955556 43.3321492-24.08v53.5111111l-43.3321492 24.0800003z" fill="url(#g)"/><path d="m42.9520426 47.3955556 43.3321492 29.4311111-43.3321492 24.0800003z" fill="url(#h)"/><g fill="url(#i)"><path d="m0 47.3955556 43.3321492-24.08v53.5111111l-43.3321492 24.0800003z" transform="matrix(-1 0 0 1 43.33215 0)"/><path d="m0 47.3955556 43.3321492 29.4311111-43.3321492 24.0800003z" transform="matrix(-1 0 0 1 43.33215 0)"/></g></g><g transform="translate(485.567821 22.933333)"><path d="m0 23.1295182 43.1420959-23.1295182 43.1420959 23.1295182v53.3758112l-43.1420959 24.0191146-43.1420959-24.0191146z" fill="url(#e)"/><path d="m0 23.1295182 43.1420959-23.1295182 43.1420959 23.1295182v53.3758112l-43.1420959 24.0191146-43.1420959-24.0191146z" fill="url(#f)"/><path d="m42.9520426 47.3955556 43.3321492-24.08v53.5111111l-43.3321492 24.0800003z" fill="url(#g)"/><path d="m42.9520426 47.3955556 43.3321492-24.08v53.5111111l-43.3321492 24.0800003z" fill="url(#g)"/><path d="m42.9520426 47.3955556 43.3321492 29.4311111-43.3321492 24.0800003z" fill="url(#h)"/><g fill="url(#i)"><path d="m0 47.3955556 43.3321492-24.08v53.5111111l-43.3321492 24.0800003z" transform="matrix(-1 0 0 1 43.33215 0)"/><path d="m0 47.3955556 43.3321492 29.4311111-43.3321492 24.0800003z" transform="matrix(-1 0 0 1 43.33215 0)"/></g></g><g transform="translate(528.89997 47.395556)"><path d="m0 23.1295182 43.1420959-23.1295182 43.1420959 23.1295182v53.3758112l-43.1420959 24.0191146-43.1420959-24.0191146z" fill="url(#e)"/><path d="m0 23.1295182 43.1420959-23.1295182 43.1420959 23.1295182v53.3758112l-43.1420959 24.0191146-43.1420959-24.0191146z" fill="url(#f)"/><path d="m42.9520426 47.3955556 43.3321492-24.08v53.5111111l-43.3321492 24.0800003z" fill="url(#g)"/><path d="m42.9520426 47.3955556 43.3321492-24.08v53.5111111l-43.3321492 24.0800003z" fill="url(#g)"/><path d="m42.9520426 47.3955556 43.3321492 29.4311111-43.3321492 24.0800003z" fill="url(#h)"/><g fill="url(#i)"><path d="m0 47.3955556 43.3321492-24.08v53.5111111l-43.3321492 24.0800003z" transform="matrix(-1 0 0 1 43.33215 0)"/><path d="m0 47.3955556 43.3321492 29.4311111-43.3321492 24.0800003z" transform="matrix(-1 0 0 1 43.33215 0)"/></g></g><g transform="translate(571.471906 71.093333)"><path d="m0 23.1295182 43.1420959-23.1295182 43.1420959 23.1295182v53.3758112l-43.1420959 24.0191146-43.1420959-24.0191146z" fill="url(#e)"/><path d="m0 23.1295182 43.1420959-23.1295182 43.1420959 23.1295182v53.3758112l-43.1420959 24.0191146-43.1420959-24.0191146z" fill="url(#f)"/><path d="m42.9520426 47.3955556 43.3321492-24.08v53.5111111l-43.3321492 24.0800003z" fill="url(#g)"/><path d="m42.9520426 47.3955556 43.3321492-24.08v53.5111111l-43.3321492 24.0800003z" fill="url(#g)"/><path d="m42.9520426 47.3955556 43.3321492 29.4311111-43.3321492 24.0800003z" fill="url(#h)"/><g fill="url(#i)"><path d="m0 47.3955556 43.3321492-24.08v53.5111111l-43.3321492 24.0800003z" transform="matrix(-1 0 0 1 43.33215 0)"/><path d="m0 47.3955556 43.3321492 29.4311111-43.3321492 24.0800003z" transform="matrix(-1 0 0 1 43.33215 0)"/></g></g></g></svg>