<?xml version="1.0" encoding="utf-8"?>
<!-- Generator: Adobe Illustrator 25.2.3, SVG Export Plug-In . SVG Version: 6.00 Build 0)  -->
<svg version="1.1" id="Layer_1" xmlns="http://www.w3.org/2000/svg" xmlns:xlink="http://www.w3.org/1999/xlink" x="0px" y="0px"
	 viewBox="0 0 73 58" style="enable-background:new 0 0 73 58;" xml:space="preserve">
<style type="text/css">
	.st0{fill-rule:evenodd;clip-rule:evenodd;fill:url(#SVGID_1_);}
	.st1{opacity:0.2372;}
	.st2{fill-rule:evenodd;clip-rule:evenodd;fill:url(#SVGID_2_);}
	.st3{fill-rule:evenodd;clip-rule:evenodd;fill:url(#SVGID_3_);}
	.st4{fill-rule:evenodd;clip-rule:evenodd;fill:url(#SVGID_4_);}
	.st5{fill-rule:evenodd;clip-rule:evenodd;fill:url(#SVGID_5_);}
	.st6{fill-rule:evenodd;clip-rule:evenodd;fill:url(#SVGID_6_);}
	.st7{fill-rule:evenodd;clip-rule:evenodd;fill:url(#SVGID_7_);}
	.st8{fill-rule:evenodd;clip-rule:evenodd;fill:url(#SVGID_8_);}
	.st9{fill-rule:evenodd;clip-rule:evenodd;fill:url(#SVGID_9_);}
	.st10{fill-rule:evenodd;clip-rule:evenodd;fill:url(#SVGID_10_);}
	.st11{fill-rule:evenodd;clip-rule:evenodd;fill:url(#SVGID_11_);}
	.st12{fill-rule:evenodd;clip-rule:evenodd;fill:url(#SVGID_12_);}
	.st13{fill-rule:evenodd;clip-rule:evenodd;fill:url(#SVGID_13_);}
	.st14{fill-rule:evenodd;clip-rule:evenodd;fill:url(#SVGID_14_);}
	.st15{fill-rule:evenodd;clip-rule:evenodd;fill:url(#SVGID_15_);}
	.st16{fill-rule:evenodd;clip-rule:evenodd;fill:url(#SVGID_16_);}
	.st17{fill-rule:evenodd;clip-rule:evenodd;fill:url(#SVGID_17_);}
	.st18{fill-rule:evenodd;clip-rule:evenodd;fill:url(#SVGID_18_);}
	.st19{fill-rule:evenodd;clip-rule:evenodd;fill:url(#SVGID_19_);}
	.st20{fill-rule:evenodd;clip-rule:evenodd;fill:url(#SVGID_20_);}
	.st21{fill-rule:evenodd;clip-rule:evenodd;fill:url(#SVGID_21_);}
	.st22{fill-rule:evenodd;clip-rule:evenodd;fill:url(#SVGID_22_);}
	.st23{fill-rule:evenodd;clip-rule:evenodd;fill:url(#SVGID_23_);}
	.st24{fill-rule:evenodd;clip-rule:evenodd;fill:url(#SVGID_24_);}
	.st25{fill-rule:evenodd;clip-rule:evenodd;fill:url(#SVGID_25_);}
	.st26{fill-rule:evenodd;clip-rule:evenodd;fill:url(#SVGID_26_);}
	.st27{fill-rule:evenodd;clip-rule:evenodd;fill:url(#SVGID_27_);}
	.st28{fill-rule:evenodd;clip-rule:evenodd;fill:url(#SVGID_28_);}
	.st29{fill-rule:evenodd;clip-rule:evenodd;fill:url(#SVGID_29_);}
	.st30{fill-rule:evenodd;clip-rule:evenodd;fill:url(#SVGID_30_);}
	.st31{fill-rule:evenodd;clip-rule:evenodd;fill:url(#SVGID_31_);}
	.st32{fill-rule:evenodd;clip-rule:evenodd;fill:url(#SVGID_32_);}
	.st33{fill-rule:evenodd;clip-rule:evenodd;fill:url(#SVGID_33_);}
	.st34{fill-rule:evenodd;clip-rule:evenodd;fill:url(#SVGID_34_);}
	.st35{fill-rule:evenodd;clip-rule:evenodd;fill:url(#SVGID_35_);}
	.st36{fill-rule:evenodd;clip-rule:evenodd;fill:url(#SVGID_36_);}
	.st37{fill-rule:evenodd;clip-rule:evenodd;fill:url(#SVGID_37_);}
	.st38{fill-rule:evenodd;clip-rule:evenodd;fill:url(#SVGID_38_);}
	.st39{fill-rule:evenodd;clip-rule:evenodd;fill:url(#SVGID_39_);}
	.st40{fill-rule:evenodd;clip-rule:evenodd;fill:url(#SVGID_40_);}
	.st41{fill-rule:evenodd;clip-rule:evenodd;fill:url(#SVGID_41_);}
	.st42{opacity:0.61;fill-rule:evenodd;clip-rule:evenodd;fill:#3FE32B;enable-background:new    ;}
</style>
<g>
	<g transform="translate(24.8 15)">
		
			<linearGradient id="SVGID_1_" gradientUnits="userSpaceOnUse" x1="-549.35" y1="27.0345" x2="-549.35" y2="28.0345" gradientTransform="matrix(24 0 0 29 13196.4004 -784.0004)">
			<stop  offset="0" style="stop-color:#FFFFFF"/>
			<stop  offset="1" style="stop-color:#F7FBFF"/>
		</linearGradient>
		<path class="st0" d="M0,6.7L12,0l12,6.7v15.4L12,29L0,22.1V6.7z"/>
		<g class="st1">
			
				<linearGradient id="SVGID_2_" gradientUnits="userSpaceOnUse" x1="-549.35" y1="27.0345" x2="-549.35" y2="28.0345" gradientTransform="matrix(24 0 0 29 13196.4004 -784.0004)">
				<stop  offset="0" style="stop-color:#D0DEEA"/>
				<stop  offset="1" style="stop-color:#DAE1E8"/>
			</linearGradient>
			<path class="st2" d="M0,6.7L12,0l12,6.7v15.4L12,29L0,22.1V6.7z"/>
			
				<linearGradient id="SVGID_3_" gradientUnits="userSpaceOnUse" x1="-527.6" y1="35.1144" x2="-527.6" y2="36.1144" gradientTransform="matrix(12 0 0 22.3274 6349.2002 -777.3128)">
				<stop  offset="0" style="stop-color:#BDC2C8"/>
				<stop  offset="1" style="stop-color:#DCEDEF"/>
			</linearGradient>
			<path class="st3" d="M12,13.6l12-6.9v15.4L12,29V13.6z"/>
			
				<linearGradient id="SVGID_4_" gradientUnits="userSpaceOnUse" x1="-527.6" y1="35.1144" x2="-527.6" y2="36.1144" gradientTransform="matrix(12 0 0 22.3274 6349.2002 -777.3128)">
				<stop  offset="0" style="stop-color:#BDC2C8"/>
				<stop  offset="1" style="stop-color:#DCEDEF"/>
			</linearGradient>
			<path class="st4" d="M12,13.6l12-6.9v15.4L12,29V13.6z"/>
			
				<linearGradient id="SVGID_5_" gradientUnits="userSpaceOnUse" x1="-527.6" y1="50.9141" x2="-527.6" y2="51.9142" gradientTransform="matrix(12 0 0 15.3982 6349.2002 -770.3849)">
				<stop  offset="0" style="stop-color:#ADBBCA;stop-opacity:0.7027"/>
				<stop  offset="1" style="stop-color:#E4E8E9;stop-opacity:0"/>
			</linearGradient>
			<path class="st5" d="M12,13.6l12,8.5L12,29V13.6z"/>
			
				<linearGradient id="SVGID_6_" gradientUnits="userSpaceOnUse" x1="-614.6" y1="35.1144" x2="-614.6" y2="36.1144" gradientTransform="matrix(-12 0 0 22.3274 -7369.2002 -777.3128)">
				<stop  offset="0" style="stop-color:#7692AE"/>
				<stop  offset="1" style="stop-color:#93B0CE"/>
			</linearGradient>
			<path class="st6" d="M12,13.6L0,6.7v15.4L12,29V13.6z"/>
			
				<linearGradient id="SVGID_7_" gradientUnits="userSpaceOnUse" x1="-614.6" y1="50.9141" x2="-614.6" y2="51.9142" gradientTransform="matrix(-12 0 0 15.3982 -7369.2002 -770.3849)">
				<stop  offset="0" style="stop-color:#7692AE"/>
				<stop  offset="1" style="stop-color:#93B0CE"/>
			</linearGradient>
			<path class="st7" d="M12,13.6L0,22.1L12,29V13.6z"/>
		</g>
	</g>
	<g transform="translate(12.2 23.469565)">
		
			<linearGradient id="SVGID_8_" gradientUnits="userSpaceOnUse" x1="-524.5066" y1="27.9655" x2="-524.5066" y2="28.9655" gradientTransform="matrix(24.4 0 0 28.0348 12810.1602 -784.0071)">
			<stop  offset="0" style="stop-color:#FFFFFF"/>
			<stop  offset="1" style="stop-color:#F7FBFF"/>
		</linearGradient>
		<path class="st8" d="M0,6.5L12.2,0l12.2,6.5v14.9L12.2,28L0,21.3V6.5z"/>
		<g class="st1">
			
				<linearGradient id="SVGID_9_" gradientUnits="userSpaceOnUse" x1="-524.5066" y1="27.9655" x2="-524.5066" y2="28.9655" gradientTransform="matrix(24.4 0 0 28.0348 12810.1602 -784.0071)">
				<stop  offset="0" style="stop-color:#D0DEEA"/>
				<stop  offset="1" style="stop-color:#DAE1E8"/>
			</linearGradient>
			<path class="st9" d="M0,6.5L12.2,0l12.2,6.5v14.9L12.2,28L0,21.3V6.5z"/>
			
				<linearGradient id="SVGID_10_" gradientUnits="userSpaceOnUse" x1="-503.1131" y1="36.3227" x2="-503.1131" y2="37.3234" gradientTransform="matrix(12.2 0 0 21.5843 6156.2798 -777.549)">
				<stop  offset="0" style="stop-color:#BDC2C8"/>
				<stop  offset="1" style="stop-color:#DCEDEF"/>
			</linearGradient>
			<path class="st10" d="M12.2,13.1l12.2-6.7v14.9L12.2,28V13.1z"/>
			
				<linearGradient id="SVGID_11_" gradientUnits="userSpaceOnUse" x1="-503.1131" y1="36.3227" x2="-503.1131" y2="37.3234" gradientTransform="matrix(12.2 0 0 21.5843 6156.2798 -777.549)">
				<stop  offset="0" style="stop-color:#BDC2C8"/>
				<stop  offset="1" style="stop-color:#DCEDEF"/>
			</linearGradient>
			<path class="st11" d="M12.2,13.1l12.2-6.7v14.9L12.2,28V13.1z"/>
			
				<linearGradient id="SVGID_12_" gradientUnits="userSpaceOnUse" x1="-503.1131" y1="52.668" x2="-503.1131" y2="53.6689" gradientTransform="matrix(12.2 0 0 14.8857 6156.2798 -770.8401)">
				<stop  offset="0" style="stop-color:#ADBBCA;stop-opacity:0.7027"/>
				<stop  offset="1" style="stop-color:#E4E8E9;stop-opacity:0"/>
			</linearGradient>
			<path class="st12" d="M12.2,13.1l12.2,8.2L12.2,28V13.1z"/>
			
				<linearGradient id="SVGID_13_" gradientUnits="userSpaceOnUse" x1="-588.6869" y1="36.3227" x2="-588.6869" y2="37.3227" gradientTransform="matrix(-12.2 0 0 21.5843 -7175.8799 -777.549)">
				<stop  offset="0" style="stop-color:#7692AE"/>
				<stop  offset="1" style="stop-color:#93B0CE"/>
			</linearGradient>
			<path class="st13" d="M12.2,13.1L0,6.5v14.9L12.2,28V13.1z"/>
			
				<linearGradient id="SVGID_14_" gradientUnits="userSpaceOnUse" x1="-588.6869" y1="52.668" x2="-588.6869" y2="53.6689" gradientTransform="matrix(-12.2 0 0 14.8857 -7175.8799 -770.8401)">
				<stop  offset="0" style="stop-color:#7692AE"/>
				<stop  offset="1" style="stop-color:#93B0CE"/>
			</linearGradient>
			<path class="st14" d="M12.2,13.1L0,21.3L12.2,28V13.1z"/>
		</g>
	</g>
	<g transform="translate(24.4 29.93913)">
		
			<linearGradient id="SVGID_15_" gradientUnits="userSpaceOnUse" x1="-548.9066" y1="27.9655" x2="-548.9066" y2="28.9655" gradientTransform="matrix(24.4 0 0 28.0348 13405.5195 -784.0071)">
			<stop  offset="0" style="stop-color:#FFFFFF"/>
			<stop  offset="1" style="stop-color:#F7FBFF"/>
		</linearGradient>
		<path class="st15" d="M0,6.5L12.2,0l12.2,6.5v14.9L12.2,28L0,21.3V6.5z"/>
		<g class="st1">
			
				<linearGradient id="SVGID_16_" gradientUnits="userSpaceOnUse" x1="-548.9066" y1="27.9655" x2="-548.9066" y2="28.9655" gradientTransform="matrix(24.4 0 0 28.0348 13405.5195 -784.0071)">
				<stop  offset="0" style="stop-color:#D0DEEA"/>
				<stop  offset="1" style="stop-color:#DAE1E8"/>
			</linearGradient>
			<path class="st16" d="M0,6.5L12.2,0l12.2,6.5v14.9L12.2,28L0,21.3V6.5z"/>
			
				<linearGradient id="SVGID_17_" gradientUnits="userSpaceOnUse" x1="-527.5131" y1="36.3227" x2="-527.5131" y2="37.3234" gradientTransform="matrix(12.2 0 0 21.5843 6453.96 -777.5486)">
				<stop  offset="0" style="stop-color:#BDC2C8"/>
				<stop  offset="1" style="stop-color:#DCEDEF"/>
			</linearGradient>
			<path class="st17" d="M12.2,13.1l12.2-6.7v14.9L12.2,28V13.1z"/>
			
				<linearGradient id="SVGID_18_" gradientUnits="userSpaceOnUse" x1="-527.5131" y1="36.3227" x2="-527.5131" y2="37.3234" gradientTransform="matrix(12.2 0 0 21.5843 6453.96 -777.5486)">
				<stop  offset="0" style="stop-color:#BDC2C8"/>
				<stop  offset="1" style="stop-color:#DCEDEF"/>
			</linearGradient>
			<path class="st18" d="M12.2,13.1l12.2-6.7v14.9L12.2,28V13.1z"/>
			
				<linearGradient id="SVGID_19_" gradientUnits="userSpaceOnUse" x1="-527.5131" y1="52.6679" x2="-527.5131" y2="53.6689" gradientTransform="matrix(12.2 0 0 14.8857 6453.96 -770.8403)">
				<stop  offset="0" style="stop-color:#ADBBCA;stop-opacity:0.7027"/>
				<stop  offset="1" style="stop-color:#E4E8E9;stop-opacity:0"/>
			</linearGradient>
			<path class="st19" d="M12.2,13.1l12.2,8.2L12.2,28V13.1z"/>
			
				<linearGradient id="SVGID_20_" gradientUnits="userSpaceOnUse" x1="-613.0869" y1="36.3227" x2="-613.0869" y2="37.3227" gradientTransform="matrix(-12.2 0 0 21.5843 -7473.5601 -777.5486)">
				<stop  offset="0" style="stop-color:#7692AE"/>
				<stop  offset="1" style="stop-color:#93B0CE"/>
			</linearGradient>
			<path class="st20" d="M12.2,13.1L0,6.5v14.9L12.2,28V13.1z"/>
			
				<linearGradient id="SVGID_21_" gradientUnits="userSpaceOnUse" x1="-613.0869" y1="52.6679" x2="-613.0869" y2="53.6689" gradientTransform="matrix(-12.2 0 0 14.8857 -7473.5601 -770.8403)">
				<stop  offset="0" style="stop-color:#7692AE"/>
				<stop  offset="1" style="stop-color:#93B0CE"/>
			</linearGradient>
			<path class="st21" d="M12.2,13.1L0,21.3L12.2,28V13.1z"/>
		</g>
	</g>
	<g transform="translate(0 29.93913)">
		
			<linearGradient id="SVGID_22_" gradientUnits="userSpaceOnUse" x1="-500.1066" y1="27.9655" x2="-500.1066" y2="28.9655" gradientTransform="matrix(24.4 0 0 28.0348 12214.7998 -784.0071)">
			<stop  offset="0" style="stop-color:#FFFFFF"/>
			<stop  offset="1" style="stop-color:#F7FBFF"/>
		</linearGradient>
		<path class="st22" d="M0,6.5L12.2,0l12.2,6.5v14.9L12.2,28L0,21.3V6.5z"/>
		<g class="st1">
			
				<linearGradient id="SVGID_23_" gradientUnits="userSpaceOnUse" x1="-500.1066" y1="27.9655" x2="-500.1066" y2="28.9655" gradientTransform="matrix(24.4 0 0 28.0348 12214.7998 -784.0071)">
				<stop  offset="0" style="stop-color:#D0DEEA"/>
				<stop  offset="1" style="stop-color:#DAE1E8"/>
			</linearGradient>
			<path class="st23" d="M0,6.5L12.2,0l12.2,6.5v14.9L12.2,28L0,21.3V6.5z"/>
			
				<linearGradient id="SVGID_24_" gradientUnits="userSpaceOnUse" x1="-478.7131" y1="36.3227" x2="-478.7131" y2="37.3234" gradientTransform="matrix(12.2 0 0 21.5843 5858.5996 -777.5486)">
				<stop  offset="0" style="stop-color:#BDC2C8"/>
				<stop  offset="1" style="stop-color:#DCEDEF"/>
			</linearGradient>
			<path class="st24" d="M12.2,13.1l12.2-6.7v14.9L12.2,28V13.1z"/>
			
				<linearGradient id="SVGID_25_" gradientUnits="userSpaceOnUse" x1="-478.7131" y1="36.3227" x2="-478.7131" y2="37.3234" gradientTransform="matrix(12.2 0 0 21.5843 5858.5996 -777.5486)">
				<stop  offset="0" style="stop-color:#BDC2C8"/>
				<stop  offset="1" style="stop-color:#DCEDEF"/>
			</linearGradient>
			<path class="st25" d="M12.2,13.1l12.2-6.7v14.9L12.2,28V13.1z"/>
			
				<linearGradient id="SVGID_26_" gradientUnits="userSpaceOnUse" x1="-478.7131" y1="52.6679" x2="-478.7131" y2="53.6689" gradientTransform="matrix(12.2 0 0 14.8857 5858.5996 -770.8403)">
				<stop  offset="0" style="stop-color:#ADBBCA;stop-opacity:0.7027"/>
				<stop  offset="1" style="stop-color:#E4E8E9;stop-opacity:0"/>
			</linearGradient>
			<path class="st26" d="M12.2,13.1l12.2,8.2L12.2,28V13.1z"/>
			
				<linearGradient id="SVGID_27_" gradientUnits="userSpaceOnUse" x1="-564.2869" y1="36.3227" x2="-564.2869" y2="37.3227" gradientTransform="matrix(-12.2 0 0 21.5843 -6878.1997 -777.5486)">
				<stop  offset="0" style="stop-color:#7692AE"/>
				<stop  offset="1" style="stop-color:#93B0CE"/>
			</linearGradient>
			<path class="st27" d="M12.2,13.1L0,6.5v14.9L12.2,28V13.1z"/>
			
				<linearGradient id="SVGID_28_" gradientUnits="userSpaceOnUse" x1="-564.2869" y1="52.6679" x2="-564.2869" y2="53.6689" gradientTransform="matrix(-12.2 0 0 14.8857 -6878.1997 -770.8403)">
				<stop  offset="0" style="stop-color:#7692AE"/>
				<stop  offset="1" style="stop-color:#93B0CE"/>
			</linearGradient>
			<path class="st28" d="M12.2,13.1L0,21.3L12.2,28V13.1z"/>
		</g>
	</g>
	<g transform="translate(12.8 8)">
		
			<linearGradient id="SVGID_29_" gradientUnits="userSpaceOnUse" x1="-525.35" y1="27.0345" x2="-525.35" y2="28.0345" gradientTransform="matrix(24 0 0 29 12620.4004 -784.0004)">
			<stop  offset="0" style="stop-color:#FFFFFF"/>
			<stop  offset="1" style="stop-color:#F7FBFF"/>
		</linearGradient>
		<path class="st29" d="M0,6.7L12,0l12,6.7v15.4L12,29L0,22.1V6.7z"/>
		<g class="st1">
			
				<linearGradient id="SVGID_30_" gradientUnits="userSpaceOnUse" x1="-525.35" y1="27.0345" x2="-525.35" y2="28.0345" gradientTransform="matrix(24 0 0 29 12620.4004 -784.0004)">
				<stop  offset="0" style="stop-color:#D0DEEA"/>
				<stop  offset="1" style="stop-color:#DAE1E8"/>
			</linearGradient>
			<path class="st30" d="M0,6.7L12,0l12,6.7v15.4L12,29L0,22.1V6.7z"/>
			
				<linearGradient id="SVGID_31_" gradientUnits="userSpaceOnUse" x1="-503.6" y1="35.1144" x2="-503.6" y2="36.1144" gradientTransform="matrix(12 0 0 22.3274 6061.2002 -777.3126)">
				<stop  offset="0" style="stop-color:#BDC2C8"/>
				<stop  offset="1" style="stop-color:#DCEDEF"/>
			</linearGradient>
			<path class="st31" d="M12,13.6l12-6.9v15.4L12,29V13.6z"/>
			
				<linearGradient id="SVGID_32_" gradientUnits="userSpaceOnUse" x1="-503.6" y1="35.1144" x2="-503.6" y2="36.1144" gradientTransform="matrix(12 0 0 22.3274 6061.2002 -777.3126)">
				<stop  offset="0" style="stop-color:#BDC2C8"/>
				<stop  offset="1" style="stop-color:#DCEDEF"/>
			</linearGradient>
			<path class="st32" d="M12,13.6l12-6.9v15.4L12,29V13.6z"/>
			
				<linearGradient id="SVGID_33_" gradientUnits="userSpaceOnUse" x1="-503.6" y1="50.914" x2="-503.6" y2="51.9142" gradientTransform="matrix(12 0 0 15.3982 6061.2002 -770.3847)">
				<stop  offset="0" style="stop-color:#ADBBCA;stop-opacity:0.7027"/>
				<stop  offset="1" style="stop-color:#E4E8E9;stop-opacity:0"/>
			</linearGradient>
			<path class="st33" d="M12,13.6l12,8.5L12,29V13.6z"/>
			
				<linearGradient id="SVGID_34_" gradientUnits="userSpaceOnUse" x1="-590.6" y1="35.1144" x2="-590.6" y2="36.1144" gradientTransform="matrix(-12 0 0 22.3274 -7081.2002 -777.3126)">
				<stop  offset="0" style="stop-color:#7692AE"/>
				<stop  offset="1" style="stop-color:#93B0CE"/>
			</linearGradient>
			<path class="st34" d="M12,13.6L0,6.7v15.4L12,29V13.6z"/>
			
				<linearGradient id="SVGID_35_" gradientUnits="userSpaceOnUse" x1="-590.6" y1="50.914" x2="-590.6" y2="51.9142" gradientTransform="matrix(-12 0 0 15.3982 -7081.2002 -770.3847)">
				<stop  offset="0" style="stop-color:#7692AE"/>
				<stop  offset="1" style="stop-color:#93B0CE"/>
			</linearGradient>
			<path class="st35" d="M12,13.6L0,22.1L12,29V13.6z"/>
		</g>
	</g>
	<g transform="translate(49)">
		<g class="st1">
			
				<linearGradient id="SVGID_36_" gradientUnits="userSpaceOnUse" x1="-597.75" y1="27.0345" x2="-597.75" y2="28.0345" gradientTransform="matrix(24 0 0 29 14358 -784.0004)">
				<stop  offset="0" style="stop-color:#D0DEEA"/>
				<stop  offset="1" style="stop-color:#DAE1E8"/>
			</linearGradient>
			<path class="st36" d="M0,6.7L12,0l12,6.7v15.4L12,29L0,22.1V6.7z"/>
			
				<linearGradient id="SVGID_37_" gradientUnits="userSpaceOnUse" x1="-576" y1="35.1143" x2="-576" y2="36.1143" gradientTransform="matrix(12 0 0 22.3274 6930 -777.3117)">
				<stop  offset="0" style="stop-color:#BDC2C8"/>
				<stop  offset="1" style="stop-color:#DCEDEF"/>
			</linearGradient>
			<path class="st37" d="M12,13.6l12-6.9v15.4L12,29V13.6z"/>
			
				<linearGradient id="SVGID_38_" gradientUnits="userSpaceOnUse" x1="-576" y1="35.1143" x2="-576" y2="36.1143" gradientTransform="matrix(12 0 0 22.3274 6930 -777.3117)">
				<stop  offset="0" style="stop-color:#BDC2C8"/>
				<stop  offset="1" style="stop-color:#DCEDEF"/>
			</linearGradient>
			<path class="st38" d="M12,13.6l12-6.9v15.4L12,29V13.6z"/>
			
				<linearGradient id="SVGID_39_" gradientUnits="userSpaceOnUse" x1="-576" y1="50.9141" x2="-576" y2="51.9142" gradientTransform="matrix(12 0 0 15.3982 6930 -770.3847)">
				<stop  offset="0" style="stop-color:#ADBBCA;stop-opacity:0.7027"/>
				<stop  offset="1" style="stop-color:#E4E8E9;stop-opacity:0"/>
			</linearGradient>
			<path class="st39" d="M12,13.6l12,8.5L12,29V13.6z"/>
			
				<linearGradient id="SVGID_40_" gradientUnits="userSpaceOnUse" x1="-663" y1="35.1143" x2="-663" y2="36.1143" gradientTransform="matrix(-12 0 0 22.3274 -7950 -777.3117)">
				<stop  offset="0" style="stop-color:#7692AE"/>
				<stop  offset="1" style="stop-color:#93B0CE"/>
			</linearGradient>
			<path class="st40" d="M12,13.6L0,6.7v15.4L12,29V13.6z"/>
			
				<linearGradient id="SVGID_41_" gradientUnits="userSpaceOnUse" x1="-663" y1="50.9141" x2="-663" y2="51.9142" gradientTransform="matrix(-12 0 0 15.3982 -7950 -770.3847)">
				<stop  offset="0" style="stop-color:#7692AE"/>
				<stop  offset="1" style="stop-color:#93B0CE"/>
			</linearGradient>
			<path class="st41" d="M12,13.6L0,22.1L12,29V13.6z"/>
		</g>
		<path class="st42" d="M0,6.7L12,0l12,6.7v15.4L12,29L0,22.1V6.7z"/>
	</g>
</g>
</svg>
