<svg enable-background="new 0 0 73 58" viewBox="0 0 73 58" xmlns="http://www.w3.org/2000/svg" xmlns:xlink="http://www.w3.org/1999/xlink"><linearGradient id="a"><stop offset="0" stop-color="#fff"/><stop offset="1" stop-color="#f7fbff"/></linearGradient><linearGradient id="b" gradientTransform="matrix(24 0 0 -29 6598.2002 12219.8047)" gradientUnits="userSpaceOnUse" x1="-274.425" x2="-274.425" xlink:href="#a" y1="421.3726" y2="420.3726"/><linearGradient id="c"><stop offset="0" stop-color="#d0deea"/><stop offset="1" stop-color="#dae1e8"/></linearGradient><linearGradient id="d" gradientTransform="matrix(24 0 0 -29 6598.2002 12219.8047)" gradientUnits="userSpaceOnUse" x1="-274.425" x2="-274.425" xlink:href="#c" y1="421.3726" y2="420.3726"/><linearGradient id="e"><stop offset="0" stop-color="#bdc2c8"/><stop offset="1" stop-color="#dcedef"/></linearGradient><linearGradient id="f" gradientTransform="matrix(12 0 0 -22.3274 3180.6001 9324.6465)" gradientUnits="userSpaceOnUse" x1="-263.55" x2="-263.55" xlink:href="#e" y1="417.3329" y2="416.3329"/><linearGradient id="g"><stop offset="0" stop-color="#adbbca" stop-opacity=".7027"/><stop offset="1" stop-color="#e4e8e9" stop-opacity="0"/></linearGradient><linearGradient id="h" gradientTransform="matrix(12 0 0 -15.3982 3180.6001 6318.1357)" gradientUnits="userSpaceOnUse" x1="-263.55" x2="-263.55" xlink:href="#g" y1="409.4324" y2="408.4324"/><linearGradient id="i"><stop offset="0" stop-color="#7692ae"/><stop offset="1" stop-color="#93b0ce"/></linearGradient><linearGradient id="j" gradientTransform="matrix(-12 0 0 -22.3274 -3678.6001 9324.6465)" gradientUnits="userSpaceOnUse" x1="-307.05" x2="-307.05" xlink:href="#i" y1="417.3329" y2="416.3329"/><linearGradient id="k" gradientTransform="matrix(-12 0 0 -15.3982 -3678.6001 6318.1357)" gradientUnits="userSpaceOnUse" x1="-307.05" x2="-307.05" xlink:href="#i" y1="409.4324" y2="408.4324"/><linearGradient id="l" gradientTransform="matrix(24.4 0 0 -28.0348 6405.0801 11562.5996)" gradientUnits="userSpaceOnUse" x1="-262.0033" x2="-262.0033" xlink:href="#a" y1="412.4376" y2="411.4376"/><linearGradient id="m" gradientTransform="matrix(24.4 0 0 -28.0348 6405.0801 11562.5996)" gradientUnits="userSpaceOnUse" x1="-262.0033" x2="-262.0033" xlink:href="#c" y1="412.4376" y2="411.4376"/><linearGradient id="n" gradientTransform="matrix(12.2 0 0 -21.5843 3084.24 8818.4336)" gradientUnits="userSpaceOnUse" x1="-251.3066" x2="-251.3066" xlink:href="#e" y1="408.2589" y2="407.2589"/><linearGradient id="o" gradientTransform="matrix(12.2 0 0 -14.8857 3084.24 5968.7241)" gradientUnits="userSpaceOnUse" x1="-251.3066" x2="-251.3066" xlink:href="#g" y1="400.0863" y2="399.0863"/><linearGradient id="p" gradientTransform="matrix(-12.2 0 0 -21.5843 -3581.8398 8818.4336)" gradientUnits="userSpaceOnUse" x1="-294.0934" x2="-294.0934" xlink:href="#i" y1="408.2589" y2="407.2589"/><linearGradient id="q" gradientTransform="matrix(-12.2 0 0 -14.8857 -3581.8398 5968.7241)" gradientUnits="userSpaceOnUse" x1="-294.0934" x2="-294.0934" xlink:href="#i" y1="400.0863" y2="399.0863"/><linearGradient id="r" gradientTransform="matrix(24.4 0 0 -28.0348 6702.7598 11381.2266)" gradientUnits="userSpaceOnUse" x1="-274.2033" x2="-274.2033" xlink:href="#a" y1="405.9681" y2="404.9681"/><linearGradient id="s" gradientTransform="matrix(24.4 0 0 -28.0348 6702.7598 11381.2266)" gradientUnits="userSpaceOnUse" x1="-274.2033" x2="-274.2033" xlink:href="#c" y1="405.9681" y2="404.9681"/><linearGradient id="t" gradientTransform="matrix(12.2 0 0 -21.5843 3233.0798 8678.793)" gradientUnits="userSpaceOnUse" x1="-263.5066" x2="-263.5066" xlink:href="#e" y1="401.7894" y2="400.7894"/><linearGradient id="u" gradientTransform="matrix(12.2 0 0 -14.8857 3233.0798 5872.4199)" gradientUnits="userSpaceOnUse" x1="-263.5066" x2="-263.5066" xlink:href="#g" y1="393.6168" y2="392.6168"/><linearGradient id="v" gradientTransform="matrix(-12.2 0 0 -21.5843 -3730.6799 8678.793)" gradientUnits="userSpaceOnUse" x1="-306.2935" x2="-306.2935" xlink:href="#i" y1="401.7894" y2="400.7894"/><linearGradient id="w" gradientTransform="matrix(-12.2 0 0 -14.8857 -3730.6799 5872.4199)" gradientUnits="userSpaceOnUse" x1="-306.2935" x2="-306.2935" xlink:href="#i" y1="393.6168" y2="392.6168"/><linearGradient id="x" gradientTransform="matrix(24.4 0 0 -28.0348 6107.3999 11381.2266)" gradientUnits="userSpaceOnUse" x1="-249.8033" x2="-249.8033" xlink:href="#a" y1="405.9681" y2="404.9681"/><linearGradient id="y" gradientTransform="matrix(24.4 0 0 -28.0348 6107.3999 11381.2266)" gradientUnits="userSpaceOnUse" x1="-249.8033" x2="-249.8033" xlink:href="#c" y1="405.9681" y2="404.9681"/><linearGradient id="z" gradientTransform="matrix(12.2 0 0 -21.5843 2935.3999 8678.793)" gradientUnits="userSpaceOnUse" x1="-239.1066" x2="-239.1066" xlink:href="#e" y1="401.7894" y2="400.7894"/><linearGradient id="A" gradientTransform="matrix(12.2 0 0 -14.8857 2935.3999 5872.4199)" gradientUnits="userSpaceOnUse" x1="-239.1066" x2="-239.1066" xlink:href="#g" y1="393.6168" y2="392.6168"/><linearGradient id="B" gradientTransform="matrix(-12.2 0 0 -21.5843 -3433 8678.793)" gradientUnits="userSpaceOnUse" x1="-281.8934" x2="-281.8934" xlink:href="#i" y1="401.7894" y2="400.7894"/><linearGradient id="C" gradientTransform="matrix(-12.2 0 0 -14.8857 -3433 5872.4199)" gradientUnits="userSpaceOnUse" x1="-281.8934" x2="-281.8934" xlink:href="#i" y1="393.6168" y2="392.6168"/><linearGradient id="D" gradientTransform="matrix(24 0 0 -29 6310.2002 12422.8047)" gradientUnits="userSpaceOnUse" x1="-262.425" x2="-262.425" xlink:href="#a" y1="428.3726" y2="427.3726"/><linearGradient id="E" gradientTransform="matrix(24 0 0 -29 6310.2002 12422.8047)" gradientUnits="userSpaceOnUse" x1="-262.425" x2="-262.425" xlink:href="#c" y1="428.3726" y2="427.3726"/><linearGradient id="F" gradientTransform="matrix(12 0 0 -22.3274 3036.6001 9480.9385)" gradientUnits="userSpaceOnUse" x1="-251.55" x2="-251.55" xlink:href="#e" y1="424.3329" y2="423.3329"/><linearGradient id="G" gradientTransform="matrix(12 0 0 -15.3982 3036.6001 6425.9233)" gradientUnits="userSpaceOnUse" x1="-251.55" x2="-251.55" xlink:href="#g" y1="416.4324" y2="415.4324"/><linearGradient id="H" gradientTransform="matrix(-12 0 0 -22.3274 -3534.6001 9480.9385)" gradientUnits="userSpaceOnUse" x1="-295.05" x2="-295.05" xlink:href="#i" y1="424.3329" y2="423.3329"/><linearGradient id="I" gradientTransform="matrix(-12 0 0 -15.3982 -3534.6001 6425.9233)" gradientUnits="userSpaceOnUse" x1="-295.05" x2="-295.05" xlink:href="#i" y1="416.4324" y2="415.4324"/><linearGradient id="J" gradientTransform="matrix(24 0 0 -29 7179 12654.8047)" gradientUnits="userSpaceOnUse" x1="-298.625" x2="-298.625" xlink:href="#c" y1="436.3726" y2="435.3726"/><linearGradient id="K" gradientTransform="matrix(12 0 0 -22.3274 3471 9659.5586)" gradientUnits="userSpaceOnUse" x1="-287.75" x2="-287.75" xlink:href="#e" y1="432.3329" y2="431.3329"/><linearGradient id="L" gradientTransform="matrix(12 0 0 -15.3982 3471 6549.1089)" gradientUnits="userSpaceOnUse" x1="-287.75" x2="-287.75" xlink:href="#g" y1="424.4324" y2="423.4324"/><linearGradient id="M" gradientTransform="matrix(-12 0 0 -22.3274 -3969 9659.5586)" gradientUnits="userSpaceOnUse" x1="-331.25" x2="-331.25" xlink:href="#i" y1="432.3329" y2="431.3329"/><linearGradient id="N" gradientTransform="matrix(-12 0 0 -15.3982 -3969 6549.1089)" gradientUnits="userSpaceOnUse" x1="-331.25" x2="-331.25" xlink:href="#i" y1="424.4324" y2="423.4324"/><g clip-rule="evenodd" fill-rule="evenodd"><g transform="translate(24.8 15)"><path d="m0 6.7 12-6.7 12 6.7v15.4l-12 6.9-12-6.9z" fill="url(#b)"/><g opacity=".2372"><path d="m0 6.7 12-6.7 12 6.7v15.4l-12 6.9-12-6.9z" fill="url(#d)"/><path d="m12 13.6 12-6.9v15.4l-12 6.9z" fill="url(#f)"/><path d="m12 13.6 12-6.9v15.4l-12 6.9z" fill="url(#f)"/><path d="m12 13.6 12 8.5-12 6.9z" fill="url(#h)"/><path d="m12 13.6-12-6.9v15.4l12 6.9z" fill="url(#j)"/><path d="m12 13.6-12 8.5 12 6.9z" fill="url(#k)"/></g></g><g transform="translate(12.2 23.469565)"><path d="m0 6.5 12.2-6.5 12.2 6.5v14.9l-12.2 6.6-12.2-6.7z" fill="url(#l)"/><g opacity=".2372"><path d="m0 6.5 12.2-6.5 12.2 6.5v14.9l-12.2 6.6-12.2-6.7z" fill="url(#m)"/><path d="m12.2 13.1 12.2-6.7v14.9l-12.2 6.7z" fill="url(#n)"/><path d="m12.2 13.1 12.2-6.7v14.9l-12.2 6.7z" fill="url(#n)"/><path d="m12.2 13.1 12.2 8.2-12.2 6.7z" fill="url(#o)"/><path d="m12.2 13.1-12.2-6.6v14.9l12.2 6.6z" fill="url(#p)"/><path d="m12.2 13.1-12.2 8.2 12.2 6.7z" fill="url(#q)"/></g></g><g transform="translate(24.4 29.93913)"><path d="m0 6.5 12.2-6.5 12.2 6.5v14.9l-12.2 6.6-12.2-6.7z" fill="url(#r)"/><g opacity=".2372"><path d="m0 6.5 12.2-6.5 12.2 6.5v14.9l-12.2 6.6-12.2-6.7z" fill="url(#s)"/><path d="m12.2 13.1 12.2-6.7v14.9l-12.2 6.7z" fill="url(#t)"/><path d="m12.2 13.1 12.2-6.7v14.9l-12.2 6.7z" fill="url(#t)"/><path d="m12.2 13.1 12.2 8.2-12.2 6.7z" fill="url(#u)"/><path d="m12.2 13.1-12.2-6.6v14.9l12.2 6.6z" fill="url(#v)"/><path d="m12.2 13.1-12.2 8.2 12.2 6.7z" fill="url(#w)"/></g></g><g transform="translate(0 29.93913)"><path d="m0 6.5 12.2-6.5 12.2 6.5v14.9l-12.2 6.6-12.2-6.7z" fill="url(#x)"/><g opacity=".2372"><path d="m0 6.5 12.2-6.5 12.2 6.5v14.9l-12.2 6.6-12.2-6.7z" fill="url(#y)"/><path d="m12.2 13.1 12.2-6.7v14.9l-12.2 6.7z" fill="url(#z)"/><path d="m12.2 13.1 12.2-6.7v14.9l-12.2 6.7z" fill="url(#z)"/><path d="m12.2 13.1 12.2 8.2-12.2 6.7z" fill="url(#A)"/><path d="m12.2 13.1-12.2-6.6v14.9l12.2 6.6z" fill="url(#B)"/><path d="m12.2 13.1-12.2 8.2 12.2 6.7z" fill="url(#C)"/></g></g><g transform="translate(12.8 8)"><path d="m0 6.7 12-6.7 12 6.7v15.4l-12 6.9-12-6.9z" fill="url(#D)"/><g opacity=".2372"><path d="m0 6.7 12-6.7 12 6.7v15.4l-12 6.9-12-6.9z" fill="url(#E)"/><path d="m12 13.6 12-6.9v15.4l-12 6.9z" fill="url(#F)"/><path d="m12 13.6 12-6.9v15.4l-12 6.9z" fill="url(#F)"/><path d="m12 13.6 12 8.5-12 6.9z" fill="url(#G)"/><path d="m12 13.6-12-6.9v15.4l12 6.9z" fill="url(#H)"/><path d="m12 13.6-12 8.5 12 6.9z" fill="url(#I)"/></g></g><g transform="translate(49)"><g opacity=".2372"><path d="m0 6.7 12-6.7 12 6.7v15.4l-12 6.9-12-6.9z" fill="url(#J)"/><path d="m12 13.6 12-6.9v15.4l-12 6.9z" fill="url(#K)"/><path d="m12 13.6 12-6.9v15.4l-12 6.9z" fill="url(#K)"/><path d="m12 13.6 12 8.5-12 6.9z" fill="url(#L)"/><path d="m12 13.6-12-6.9v15.4l12 6.9z" fill="url(#M)"/><path d="m12 13.6-12 8.5 12 6.9z" fill="url(#N)"/></g><path d="m0 6.7 12-6.7 12 6.7v15.4l-12 6.9-12-6.9z" fill="#66e6ac" opacity=".61"/></g></g></svg>