<svg enable-background="new 0 0 97 72" viewBox="0 0 97 72" xmlns="http://www.w3.org/2000/svg" xmlns:xlink="http://www.w3.org/1999/xlink"><linearGradient id="a"><stop offset="0" stop-color="#fff"/><stop offset="1" stop-color="#f7fbff"/></linearGradient><linearGradient id="b" gradientTransform="matrix(24 0 0 -29 6898.2002 12052.8047)" gradientUnits="userSpaceOnUse" x1="-286.925" x2="-286.925" xlink:href="#a" y1="415.614" y2="414.614"/><linearGradient id="c"><stop offset="0" stop-color="#d0deea"/><stop offset="1" stop-color="#dae1e8"/></linearGradient><linearGradient id="d" gradientTransform="matrix(24 0 0 -29 6898.2002 12052.8047)" gradientUnits="userSpaceOnUse" x1="-286.925" x2="-286.925" xlink:href="#c" y1="415.614" y2="414.614"/><linearGradient id="e"><stop offset="0" stop-color="#bdc2c8"/><stop offset="1" stop-color="#dcedef"/></linearGradient><linearGradient id="f" gradientTransform="matrix(12 0 0 -22.3274 3336.6001 9197.6826)" gradientUnits="userSpaceOnUse" x1="-276.55" x2="-276.55" xlink:href="#e" y1="411.6465" y2="410.6465"/><linearGradient id="g"><stop offset="0" stop-color="#adbbca" stop-opacity=".7027"/><stop offset="1" stop-color="#e4e8e9" stop-opacity="0"/></linearGradient><linearGradient id="h" gradientTransform="matrix(12 0 0 -15.3982 3336.6001 6232.7461)" gradientUnits="userSpaceOnUse" x1="-276.55" x2="-276.55" xlink:href="#g" y1="403.887" y2="402.887"/><linearGradient id="i"><stop offset="0" stop-color="#7692ae"/><stop offset="1" stop-color="#93b0ce"/></linearGradient><linearGradient id="j" gradientTransform="matrix(-12 0 0 -22.3274 -3810.6001 9197.6826)" gradientUnits="userSpaceOnUse" x1="-318.05" x2="-318.05" xlink:href="#i" y1="411.6465" y2="410.6465"/><linearGradient id="k" gradientTransform="matrix(-12 0 0 -15.3982 -3810.6001 6232.7461)" gradientUnits="userSpaceOnUse" x1="-318.05" x2="-318.05" xlink:href="#i" y1="403.887" y2="402.887"/><linearGradient id="l" gradientTransform="matrix(24 0 0 -29 5746.2002 11617.8047)" gradientUnits="userSpaceOnUse" x1="-238.925" x2="-238.925" xlink:href="#a" y1="400.614" y2="399.614"/><linearGradient id="m" gradientTransform="matrix(24 0 0 -29 5746.2002 11617.8047)" gradientUnits="userSpaceOnUse" x1="-238.925" x2="-238.925" xlink:href="#c" y1="400.614" y2="399.614"/><linearGradient id="n" gradientTransform="matrix(12 0 0 -22.3274 2760.6001 8862.7705)" gradientUnits="userSpaceOnUse" x1="-228.55" x2="-228.55" xlink:href="#e" y1="396.6465" y2="395.6465"/><linearGradient id="o" gradientTransform="matrix(12 0 0 -15.3982 2760.6001 6001.7729)" gradientUnits="userSpaceOnUse" x1="-228.55" x2="-228.55" xlink:href="#g" y1="388.887" y2="387.887"/><linearGradient id="p" gradientTransform="matrix(-12 0 0 -22.3274 -3234.6001 8862.7705)" gradientUnits="userSpaceOnUse" x1="-270.05" x2="-270.05" xlink:href="#i" y1="396.6465" y2="395.6465"/><linearGradient id="q" gradientTransform="matrix(-12 0 0 -15.3982 -3234.6001 6001.7729)" gradientUnits="userSpaceOnUse" x1="-270.05" x2="-270.05" xlink:href="#i" y1="388.887" y2="387.887"/><linearGradient id="r" gradientTransform="matrix(24.4 0 0 -28.0348 6441.48 11625.6689)" gradientUnits="userSpaceOnUse" x1="-263.4951" x2="-263.4951" xlink:href="#a" y1="414.6873" y2="413.6873"/><linearGradient id="s" gradientTransform="matrix(24.4 0 0 -28.0348 6441.48 11625.6689)" gradientUnits="userSpaceOnUse" x1="-263.4951" x2="-263.4951" xlink:href="#c" y1="414.6873" y2="413.6873"/><linearGradient id="t" gradientTransform="matrix(12.2 0 0 -21.5843 3108.4399 8868.6025)" gradientUnits="userSpaceOnUse" x1="-253.2902" x2="-253.2902" xlink:href="#e" y1="410.5832" y2="409.5832"/><linearGradient id="u" gradientTransform="matrix(12.2 0 0 -14.8857 3108.4399 6005.4951)" gradientUnits="userSpaceOnUse" x1="-253.2902" x2="-253.2902" xlink:href="#g" y1="402.5565" y2="401.5565"/><linearGradient id="v" gradientTransform="matrix(-12.2 0 0 -21.5843 -3582.04 8868.6025)" gradientUnits="userSpaceOnUse" x1="-294.1098" x2="-294.1098" xlink:href="#i" y1="410.5832" y2="409.5832"/><linearGradient id="w" gradientTransform="matrix(-12.2 0 0 -14.8857 -3582.04 6005.4951)" gradientUnits="userSpaceOnUse" x1="-294.1098" x2="-294.1098" xlink:href="#i" y1="402.5565" y2="401.5565"/><linearGradient id="x" gradientTransform="matrix(24.4 0 0 -28.0348 6739.1602 11444.2959)" gradientUnits="userSpaceOnUse" x1="-275.6951" x2="-275.6951" xlink:href="#a" y1="408.2178" y2="407.2178"/><linearGradient id="y" gradientTransform="matrix(24.4 0 0 -28.0348 6739.1602 11444.2959)" gradientUnits="userSpaceOnUse" x1="-275.6951" x2="-275.6951" xlink:href="#c" y1="408.2178" y2="407.2178"/><linearGradient id="z" gradientTransform="matrix(12.2 0 0 -21.5843 3257.28 8728.9619)" gradientUnits="userSpaceOnUse" x1="-265.4902" x2="-265.4902" xlink:href="#e" y1="404.1137" y2="403.1137"/><linearGradient id="A" gradientTransform="matrix(12.2 0 0 -14.8857 3257.28 5909.1914)" gradientUnits="userSpaceOnUse" x1="-265.4902" x2="-265.4902" xlink:href="#g" y1="396.087" y2="395.087"/><linearGradient id="B" gradientTransform="matrix(-12.2 0 0 -21.5843 -3730.8799 8728.9619)" gradientUnits="userSpaceOnUse" x1="-306.3098" x2="-306.3098" xlink:href="#i" y1="404.1137" y2="403.1137"/><linearGradient id="C" gradientTransform="matrix(-12.2 0 0 -14.8857 -3730.8799 5909.1914)" gradientUnits="userSpaceOnUse" x1="-306.3098" x2="-306.3098" xlink:href="#i" y1="396.087" y2="395.087"/><linearGradient id="D" gradientTransform="matrix(24 0 0 -29 6322.2002 12864.8047)" gradientUnits="userSpaceOnUse" x1="-262.925" x2="-262.925" xlink:href="#a" y1="443.614" y2="442.614"/><linearGradient id="E" gradientTransform="matrix(24 0 0 -29 6322.2002 12864.8047)" gradientUnits="userSpaceOnUse" x1="-262.925" x2="-262.925" xlink:href="#c" y1="443.614" y2="442.614"/><linearGradient id="F" gradientTransform="matrix(12 0 0 -22.3274 3048.6001 9822.8506)" gradientUnits="userSpaceOnUse" x1="-252.55" x2="-252.55" xlink:href="#e" y1="439.6465" y2="438.6465"/><linearGradient id="G" gradientTransform="matrix(12 0 0 -15.3982 3048.6001 6663.897)" gradientUnits="userSpaceOnUse" x1="-252.55" x2="-252.55" xlink:href="#g" y1="431.887" y2="430.887"/><linearGradient id="H" gradientTransform="matrix(-12 0 0 -22.3274 -3522.6001 9822.8506)" gradientUnits="userSpaceOnUse" x1="-294.05" x2="-294.05" xlink:href="#i" y1="439.6465" y2="438.6465"/><linearGradient id="I" gradientTransform="matrix(-12 0 0 -15.3982 -3522.6001 6663.897)" gradientUnits="userSpaceOnUse" x1="-294.05" x2="-294.05" xlink:href="#i" y1="431.887" y2="430.887"/><linearGradient id="J" gradientTransform="matrix(24 0 0 -29 6058.2002 12690.8047)" gradientUnits="userSpaceOnUse" x1="-251.925" x2="-251.925" xlink:href="#a" y1="437.614" y2="436.614"/><linearGradient id="K" gradientTransform="matrix(24 0 0 -29 6058.2002 12690.8047)" gradientUnits="userSpaceOnUse" x1="-251.925" x2="-251.925" xlink:href="#c" y1="437.614" y2="436.614"/><linearGradient id="L" gradientTransform="matrix(12 0 0 -22.3274 2916.6001 9688.8857)" gradientUnits="userSpaceOnUse" x1="-241.55" x2="-241.55" xlink:href="#e" y1="433.6465" y2="432.6465"/><linearGradient id="M" gradientTransform="matrix(12 0 0 -15.3982 2916.6001 6571.5073)" gradientUnits="userSpaceOnUse" x1="-241.55" x2="-241.55" xlink:href="#g" y1="425.887" y2="424.887"/><linearGradient id="N" gradientTransform="matrix(-12 0 0 -22.3274 -3390.6001 9688.8857)" gradientUnits="userSpaceOnUse" x1="-283.05" x2="-283.05" xlink:href="#i" y1="433.6465" y2="432.6465"/><linearGradient id="O" gradientTransform="matrix(-12 0 0 -15.3982 -3390.6001 6571.5073)" gradientUnits="userSpaceOnUse" x1="-283.05" x2="-283.05" xlink:href="#i" y1="425.887" y2="424.887"/><linearGradient id="P" gradientTransform="matrix(24 0 0 -29 7479 11617.8047)" gradientUnits="userSpaceOnUse" x1="-311.125" x2="-311.125" xlink:href="#c" y1="400.614" y2="399.614"/><linearGradient id="Q" gradientTransform="matrix(12 0 0 -22.3274 3627 8862.7705)" gradientUnits="userSpaceOnUse" x1="-300.75" x2="-300.75" xlink:href="#e" y1="396.6465" y2="395.6465"/><linearGradient id="R" gradientTransform="matrix(12 0 0 -15.3982 3627 6001.7729)" gradientUnits="userSpaceOnUse" x1="-300.75" x2="-300.75" xlink:href="#g" y1="388.887" y2="387.887"/><linearGradient id="S" gradientTransform="matrix(-12 0 0 -22.3274 -4101 8862.7705)" gradientUnits="userSpaceOnUse" x1="-342.25" x2="-342.25" xlink:href="#i" y1="396.6465" y2="395.6465"/><linearGradient id="T" gradientTransform="matrix(-12 0 0 -15.3982 -4101 6001.7729)" gradientUnits="userSpaceOnUse" x1="-342.25" x2="-342.25" xlink:href="#i" y1="388.887" y2="387.887"/><g clip-rule="evenodd" fill-rule="evenodd"><g transform="translate(48.8 28)"><path d="m0 6.7 12-6.7 12 6.7v15.4l-12 6.9-12-6.9z" fill="url(#b)"/><g opacity=".2372"><path d="m0 6.7 12-6.7 12 6.7v15.4l-12 6.9-12-6.9z" fill="url(#d)"/><path d="m12 13.6 12-6.9v15.4l-12 6.9z" fill="url(#f)"/><path d="m12 13.6 12-6.9v15.4l-12 6.9z" fill="url(#f)"/><path d="m12 13.6 12 8.5-12 6.9z" fill="url(#h)"/><path d="m12 13.6-12-6.9v15.4l12 6.9z" fill="url(#j)"/><path d="m12 13.6-12 8.5 12 6.9z" fill="url(#k)"/></g></g><g transform="translate(.8 43)"><path d="m0 6.7 12-6.7 12 6.7v15.4l-12 6.9-12-6.9z" fill="url(#l)"/><g opacity=".2372"><path d="m0 6.7 12-6.7 12 6.7v15.4l-12 6.9-12-6.9z" fill="url(#m)"/><path d="m12 13.6 12-6.9v15.4l-12 6.9z" fill="url(#n)"/><path d="m12 13.6 12-6.9v15.4l-12 6.9z" fill="url(#n)"/><path d="m12 13.6 12 8.5-12 6.9z" fill="url(#o)"/><path d="m12 13.6-12-6.9v15.4l12 6.9z" fill="url(#p)"/><path d="m12 13.6-12 8.5 12 6.9z" fill="url(#q)"/></g></g><g transform="translate(25.2 28.469565)"><path d="m0 6.5 12.2-6.5 12.2 6.5v14.9l-12.2 6.6-12.2-6.7z" fill="url(#r)"/><g opacity=".2372"><path d="m0 6.5 12.2-6.5 12.2 6.5v14.9l-12.2 6.6-12.2-6.7z" fill="url(#s)"/><path d="m12.2 13.1 12.2-6.7v14.9l-12.2 6.7z" fill="url(#t)"/><path d="m12.2 13.1 12.2-6.7v14.9l-12.2 6.7z" fill="url(#t)"/><path d="m12.2 13.1 12.2 8.2-12.2 6.7z" fill="url(#u)"/><path d="m12.2 13.1-12.2-6.6v14.9l12.2 6.6z" fill="url(#v)"/><path d="m12.2 13.1-12.2 8.2 12.2 6.7z" fill="url(#w)"/></g></g><g transform="translate(37.4 34.93913)"><path d="m0 6.5 12.2-6.5 12.2 6.5v14.9l-12.2 6.6-12.2-6.7z" fill="url(#x)"/><g opacity=".2372"><path d="m0 6.5 12.2-6.5 12.2 6.5v14.9l-12.2 6.6-12.2-6.7z" fill="url(#y)"/><path d="m12.2 13.1 12.2-6.7v14.9l-12.2 6.7z" fill="url(#z)"/><path d="m12.2 13.1 12.2-6.7v14.9l-12.2 6.7z" fill="url(#z)"/><path d="m12.2 13.1 12.2 8.2-12.2 6.7z" fill="url(#A)"/><path d="m12.2 13.1-12.2-6.6v14.9l12.2 6.6z" fill="url(#B)"/><path d="m12.2 13.1-12.2 8.2 12.2 6.7z" fill="url(#C)"/></g></g><g transform="translate(24.8)"><path d="m0 6.7 12-6.7 12 6.7v15.4l-12 6.9-12-6.9z" fill="url(#D)"/><g opacity=".2372"><path d="m0 6.7 12-6.7 12 6.7v15.4l-12 6.9-12-6.9z" fill="url(#E)"/><path d="m12 13.6 12-6.9v15.4l-12 6.9z" fill="url(#F)"/><path d="m12 13.6 12-6.9v15.4l-12 6.9z" fill="url(#F)"/><path d="m12 13.6 12 8.5-12 6.9z" fill="url(#G)"/><path d="m12 13.6-12-6.9v15.4l12 6.9z" fill="url(#H)"/><path d="m12 13.6-12 8.5 12 6.9z" fill="url(#I)"/></g></g><g transform="translate(13.8 6)"><path d="m0 6.7 12-6.7 12 6.7v15.4l-12 6.9-12-6.9z" fill="url(#J)"/><g opacity=".2372"><path d="m0 6.7 12-6.7 12 6.7v15.4l-12 6.9-12-6.9z" fill="url(#K)"/><path d="m12 13.6 12-6.9v15.4l-12 6.9z" fill="url(#L)"/><path d="m12 13.6 12-6.9v15.4l-12 6.9z" fill="url(#L)"/><path d="m12 13.6 12 8.5-12 6.9z" fill="url(#M)"/><path d="m12 13.6-12-6.9v15.4l12 6.9z" fill="url(#N)"/><path d="m12 13.6-12 8.5 12 6.9z" fill="url(#O)"/></g></g><g transform="translate(73 43)"><g opacity=".2372"><path d="m0 6.7 12-6.7 12 6.7v15.4l-12 6.9-12-6.9z" fill="url(#P)"/><path d="m12 13.6 12-6.9v15.4l-12 6.9z" fill="url(#Q)"/><path d="m12 13.6 12-6.9v15.4l-12 6.9z" fill="url(#Q)"/><path d="m12 13.6 12 8.5-12 6.9z" fill="url(#R)"/><path d="m12 13.6-12-6.9v15.4l12 6.9z" fill="url(#S)"/><path d="m12 13.6-12 8.5 12 6.9z" fill="url(#T)"/></g><path d="m0 6.7 12-6.7 12 6.7v15.4l-12 6.9-12-6.9z" fill="#66e6ac" opacity=".59"/></g></g></svg>