<svg height="58" viewBox="0 0 73 58" width="73" xmlns="http://www.w3.org/2000/svg" xmlns:xlink="http://www.w3.org/1999/xlink"><linearGradient id="a" x1="50%" x2="50%" y1="0%" y2="100%"><stop offset="0" stop-color="#fff"/><stop offset="1" stop-color="#f7fbff"/></linearGradient><linearGradient id="b" x1="50%" x2="50%" y1="0%" y2="100%"><stop offset="0" stop-color="#d0deea"/><stop offset="1" stop-color="#dae1e8"/></linearGradient><linearGradient id="c" x1="50%" x2="50%" y1="0%" y2="100%"><stop offset="0" stop-color="#bdc2c8"/><stop offset="1" stop-color="#dcedef"/></linearGradient><linearGradient id="d" x1="50%" x2="50%" y1="0%" y2="100%"><stop offset="0" stop-color="#adbbca" stop-opacity=".702712"/><stop offset="1" stop-color="#e4e8e9" stop-opacity="0"/></linearGradient><linearGradient id="e" x1="50%" x2="50%" y1="0%" y2="100%"><stop offset="0" stop-color="#7692ae"/><stop offset="1" stop-color="#93b0ce"/></linearGradient><g fill="none" fill-rule="evenodd"><g transform="translate(24.8 15)"><path d="m0 6.67256637 12-6.67256637 12 6.67256637v15.39823013l-12 6.9292035-12-6.9292035z" fill="url(#a)"/><g opacity=".237165"><path d="m0 6.67256637 12-6.67256637 12 6.67256637v15.39823013l-12 6.9292035-12-6.9292035z" fill="url(#b)"/><path d="m12 13.6017699 12-6.92920353v15.39823013l-12 6.9292035z" fill="url(#c)"/><path d="m12 13.6017699 12-6.92920353v15.39823013l-12 6.9292035z" fill="url(#c)"/><path d="m12 13.6017699 12 8.4690266-12 6.9292035z" fill="url(#d)"/><g fill="url(#e)"><path d="m0 13.6017699 12-6.92920353v15.39823013l-12 6.9292035z" transform="matrix(-1 0 0 1 12 0)"/><path d="m0 13.6017699 12 8.4690266-12 6.9292035z" transform="matrix(-1 0 0 1 12 0)"/></g></g></g><g transform="translate(12.2 23.469565)"><path d="m0 6.45048095 12.2-6.45048095 12.2 6.45048095v14.88572525l-12.2 6.6985764-12.2-6.6985764z" fill="url(#a)"/><g opacity=".237165"><path d="m0 6.45048095 12.2-6.45048095 12.2 6.45048095v14.88572525l-12.2 6.6985764-12.2-6.6985764z" fill="url(#b)"/><path d="m12.2 13.1490573 12.2-6.69857635v14.88572525l-12.2 6.6985764z" fill="url(#c)"/><path d="m12.2 13.1490573 12.2-6.69857635v14.88572525l-12.2 6.6985764z" fill="url(#c)"/><path d="m12.2 13.1490573 12.2 8.1871489-12.2 6.6985764z" fill="url(#d)"/><g fill="url(#e)"><path d="m0 13.1490573 12.2-6.69857635v14.88572525l-12.2 6.6985764z" transform="matrix(-1 0 0 1 12.2 0)"/><path d="m0 13.1490573 12.2 8.1871489-12.2 6.6985764z" transform="matrix(-1 0 0 1 12.2 0)"/></g></g></g><g transform="translate(24.4 29.93913)"><path d="m0 6.45048095 12.2-6.45048095 12.2 6.45048095v14.88572525l-12.2 6.6985764-12.2-6.6985764z" fill="url(#a)"/><g opacity=".237165"><path d="m0 6.45048095 12.2-6.45048095 12.2 6.45048095v14.88572525l-12.2 6.6985764-12.2-6.6985764z" fill="url(#b)"/><path d="m12.2 13.1490573 12.2-6.69857635v14.88572525l-12.2 6.6985764z" fill="url(#c)"/><path d="m12.2 13.1490573 12.2-6.69857635v14.88572525l-12.2 6.6985764z" fill="url(#c)"/><path d="m12.2 13.1490573 12.2 8.1871489-12.2 6.6985764z" fill="url(#d)"/><g fill="url(#e)"><path d="m0 13.1490573 12.2-6.69857635v14.88572525l-12.2 6.6985764z" transform="matrix(-1 0 0 1 12.2 0)"/><path d="m0 13.1490573 12.2 8.1871489-12.2 6.6985764z" transform="matrix(-1 0 0 1 12.2 0)"/></g></g></g><g transform="translate(0 29.93913)"><path d="m0 6.45048095 12.2-6.45048095 12.2 6.45048095v14.88572525l-12.2 6.6985764-12.2-6.6985764z" fill="url(#a)"/><g opacity=".237165"><path d="m0 6.45048095 12.2-6.45048095 12.2 6.45048095v14.88572525l-12.2 6.6985764-12.2-6.6985764z" fill="url(#b)"/><path d="m12.2 13.1490573 12.2-6.69857635v14.88572525l-12.2 6.6985764z" fill="url(#c)"/><path d="m12.2 13.1490573 12.2-6.69857635v14.88572525l-12.2 6.6985764z" fill="url(#c)"/><path d="m12.2 13.1490573 12.2 8.1871489-12.2 6.6985764z" fill="url(#d)"/><g fill="url(#e)"><path d="m0 13.1490573 12.2-6.69857635v14.88572525l-12.2 6.6985764z" transform="matrix(-1 0 0 1 12.2 0)"/><path d="m0 13.1490573 12.2 8.1871489-12.2 6.6985764z" transform="matrix(-1 0 0 1 12.2 0)"/></g></g></g><g transform="translate(12.8 8)"><path d="m0 6.67256637 12-6.67256637 12 6.67256637v15.39823013l-12 6.9292035-12-6.9292035z" fill="url(#a)"/><g opacity=".237165"><path d="m0 6.67256637 12-6.67256637 12 6.67256637v15.39823013l-12 6.9292035-12-6.9292035z" fill="url(#b)"/><path d="m12 13.6017699 12-6.92920353v15.39823013l-12 6.9292035z" fill="url(#c)"/><path d="m12 13.6017699 12-6.92920353v15.39823013l-12 6.9292035z" fill="url(#c)"/><path d="m12 13.6017699 12 8.4690266-12 6.9292035z" fill="url(#d)"/><g fill="url(#e)"><path d="m0 13.6017699 12-6.92920353v15.39823013l-12 6.9292035z" transform="matrix(-1 0 0 1 12 0)"/><path d="m0 13.6017699 12 8.4690266-12 6.9292035z" transform="matrix(-1 0 0 1 12 0)"/></g></g></g><g transform="translate(49)"><g opacity=".237165"><path d="m0 6.67256637 12-6.67256637 12 6.67256637v15.39823013l-12 6.9292035-12-6.9292035z" fill="url(#b)"/><path d="m12 13.6017699 12-6.92920353v15.39823013l-12 6.9292035z" fill="url(#c)"/><path d="m12 13.6017699 12-6.92920353v15.39823013l-12 6.9292035z" fill="url(#c)"/><path d="m12 13.6017699 12 8.4690266-12 6.9292035z" fill="url(#d)"/><g fill="url(#e)"><path d="m0 13.6017699 12-6.92920353v15.39823013l-12 6.9292035z" transform="matrix(-1 0 0 1 12 0)"/><path d="m0 13.6017699 12 8.4690266-12 6.9292035z" transform="matrix(-1 0 0 1 12 0)"/></g></g><path d="m0 6.67256637 12-6.67256637 12 6.67256637v15.39823013l-12 6.9292035-12-6.9292035z" fill="#082c9a" opacity=".9"/></g></g></svg>