<svg height="22" viewBox="0 0 21 22" width="21" xmlns="http://www.w3.org/2000/svg"><path d="m14.6309132 9.65104103c-1.206055.26866551-2.143321-.035431-3.2286018-.38762919-1.1703772-.37965135-2.49720647-.80975081-4.18057289-.43502695-1.63057288.36299175-2.8674844 1.30179581-3.70856494 2.17161511l-.09956041-.431038-1.41361316-6.10821013c.40161656-.60795837 1.53920874-2.05664034 3.44821327-2.41235817 1.44085366-.26819623 2.67439025.61945585 4.10343165 1.6476587 1.38492628.99652613 2.95450938 2.12280949 4.87990638 2.04608144 1.6180375-.06710772 3.2883863-.98409009 4.5684487-2.01135437-.5756665 2.81993197-1.9991634 5.39278552-4.3690868 5.92026156m5.6075414-9.63124484c-.4462491-.09230456-.8970324.14515252-1.0736229.56697959-.2570109.61528406-2.7827334 3.24213805-4.9710247 3.33539914-1.2316.05500013-2.3894614-.8046758-3.6148568-1.71217793-1.55041753-1.14854618-3.30773239-2.45061445-5.55544404-2.0197004-3.30534602.63369714-4.85528627 3.61853024-4.91971796 3.74526967-.10094299.19871786-.12934067.42637057-.08042031.64397977l.96027091 4.27135786v.00023913l2.78798336 12.40228998c.09998845.4445446.49373771.746567.93020279.746567.06968169 0 .14007928-.0076522.21071551-.023674.51426039-.1159785.83737341-.627958.72139636-1.1432853l-1.62797419-7.2430387c.42501056-.6655016 1.6439628-2.3078533 3.55758418-2.7461804 1.14521374-.2628049 2.05537111.0413697 3.10918729.3933705 1.176475.3928922 2.5094953.8381542 4.2250488.4450228 3.5881296-.8221324 6.0403522-5.12816423 6.1021589-10.71522083.0050114-.45769673-.3142835-.85465418-.7614872-.94719788" fill="#fff" fill-rule="evenodd"/></svg>