<svg enable-background="new 0 0 25 25" viewBox="0 0 25 25" xmlns="http://www.w3.org/2000/svg" xmlns:xlink="http://www.w3.org/1999/xlink"><clipPath id="a"><path d="m18.08 7.42-4.25 9.15c-.37.94-1.03 1.5-1.75 1.5-.59 0-1.1-.3-1.38-.8-.31-.56-.28-1.27.09-1.86l5.56-8.93c.28-.44.85-.59 1.31-.35.45.26.64.82.42 1.29m1.48 2.66c-.33-.36-.88-.38-1.24-.05s-.38.88-.05 1.24c1.45 1.58 2.25 3.65 2.25 5.82 0 .48.39.88.88.88.48 0 .88-.39.88-.88 0-2.61-.96-5.1-2.72-7.01m-6.65-1.46c.49.04.91-.32.95-.8s-.32-.91-.8-.95c-.28-.02-.57-.04-.86-.04-5.56 0-10.08 4.6-10.08 10.25 0 .48.39.88.88.88s.88-.39.88-.88c0-4.69 3.74-8.5 8.33-8.5.23.01.46.02.7.04"/></clipPath><clipPath id="b"><path d="m-213.32-874.63h1314.78v4120.56h-1314.78z"/></clipPath><g clip-path="url(#a)"><path clip-path="url(#b)" d="m-2.44 1.45h29.29v21.18h-29.29z" fill="#283a90"/></g></svg>