<svg enable-background="new 0 0 25 25" viewBox="0 0 25 25" xmlns="http://www.w3.org/2000/svg" xmlns:xlink="http://www.w3.org/1999/xlink"><clipPath id="a"><path d="m23.48 2.74c-.04-.47-.41-.84-.88-.88-6.06-.47-10.43 2.46-13.13 6.17-1.49-.49-3.09-.32-4.55.51-1.41.79-2.6 2.12-3.37 3.76-.18.37-.09.82.21 1.1.3.29.75.35 1.11.16 1.54-.81 3.27-.66 4.31.38l4.23 4.23c.01.01.01.02.02.03 1.04 1.04 1.19 2.76.38 4.3-.19.36-.13.81.15 1.11.19.19.44.3.69.3.14 0 .28-.03.41-.09 1.63-.77 2.97-1.96 3.76-3.37.83-1.47 1-3.08.5-4.57 1.09-.78 2.06-1.66 2.88-2.62 2.52-2.95 3.62-6.49 3.28-10.52m-18.8 8.38c1.02-1.02 2.33-1.63 3.7-1.39-.38.66-.71 1.33-.98 2.01-.82-.44-1.76-.66-2.72-.62m9.56 9.55c.03-.97-.18-1.92-.63-2.74.7-.29 1.37-.63 2.02-1 .26 1.39-.36 2.71-1.39 3.74m-1.9-4.29-3.38-3.38c1.7-4.54 5.91-9.4 12.65-9.26.23 8.03-6.41 11.52-9.27 12.64m6.2-9.57c.3.29.46.7.46 1.11s-.17.81-.46 1.1-.69.46-1.1.46-.81-.17-1.1-.46-.46-.69-.46-1.1.17-.81.46-1.1.69-.46 1.1-.46.81.16 1.1.45m-13.51 9.97c-1.1 1.1-1.15 3.31-1.14 3.74 0 .53.43.97.95.97h.03c.49 0 2.62-.08 3.69-1.16.68-.68.82-1.37.82-1.83 0-.64-.27-1.27-.77-1.77-1.21-1.21-2.7-.82-3.58.05m2.18 2.18c-.24.24-.77.4-1.31.49.09-.55.26-1.08.49-1.3.16-.16.31-.26.47-.26.12 0 .26.06.4.21.13.13.21.28.21.41 0 .15-.14.33-.26.45"/></clipPath><clipPath id="b"><path d="m-496.5-958.15h1440v4513h-1440z"/></clipPath><g clip-path="url(#a)"><path clip-path="url(#b)" d="m-3.54-3.19h32.08v32.08h-32.08z" fill="#3a6fb6"/></g></svg>