<svg enable-background="new 0 0 25 25" viewBox="0 0 25 25" xmlns="http://www.w3.org/2000/svg" xmlns:xlink="http://www.w3.org/1999/xlink"><clipPath id="a"><path d="m12.5 7.63c-.53 0-.96-.43-.96-.96v-4.13c0-.53.43-.96.96-.96s.96.43.96.96v4.13c0 .53-.43.96-.96.96m-2.86.93c.43-.31.52-.91.21-1.34l-2.43-3.34c-.31-.43-.91-.53-1.34-.21-.43.31-.53.91-.22 1.34l2.44 3.34c.19.26.48.4.78.4.19 0 .39-.06.56-.19m-1.77 2.44c.16-.5-.11-1.05-.62-1.21l-3.93-1.28c-.5-.16-1.05.11-1.21.62-.16.5.11 1.05.62 1.21l3.93 1.28c.1.03.2.05.3.05.4-.01.78-.27.91-.67m-4.55 5.49 3.93-1.28c.5-.16.78-.71.62-1.21s-.7-.78-1.21-.62l-3.93 1.28c-.5.16-.78.71-.62 1.21.13.41.51.66.91.66.1.01.2-.01.3-.04m4.1 4.63 2.43-3.34c.31-.43.22-1.03-.21-1.34s-1.03-.22-1.34.21l-2.43 3.34c-.31.43-.22 1.03.21 1.34.17.12.37.18.56.18.3.01.59-.13.78-.39m6.04 1.34v-4.13c0-.53-.43-.96-.96-.96s-.96.43-.96.96v4.13c0 .53.43.96.96.96s.96-.43.96-.96m5.46-1.13c.43-.31.52-.91.21-1.34l-2.43-3.34c-.31-.43-.91-.52-1.34-.21s-.52.91-.21 1.34l2.43 3.34c.19.26.48.4.78.4.2 0 .39-.06.56-.19m3.97-5.46c.16-.5-.11-1.05-.62-1.21l-3.93-1.28c-.5-.16-1.05.11-1.21.62-.16.5.11 1.05.62 1.21l3.93 1.28c.1.03.2.05.3.05.4 0 .78-.26.91-.67m-4.55-4.26 3.93-1.28c.5-.16.78-.71.62-1.21-.16-.51-.7-.78-1.21-.62l-3.93 1.28c-.5.16-.78.71-.62 1.21.13.41.51.66.91.66.1.01.2-.01.3-.04m-1.64-3.26 2.43-3.34c.31-.43.22-1.03-.21-1.34s-1.03-.22-1.34.21l-2.43 3.34c-.31.43-.22 1.03.21 1.34.17.12.37.18.56.18.3.01.6-.13.78-.39"/></clipPath><clipPath id="b"><path d="m-759.62-958.62h1440v4513h-1440z"/></clipPath><g clip-path="url(#a)"><path clip-path="url(#b)" d="m-2.94-3.42h30.88v31.84h-30.88z" fill="#80b5e2"/></g></svg>