<svg enable-background="new 0 0 25 25" viewBox="0 0 25 25" xmlns="http://www.w3.org/2000/svg" xmlns:xlink="http://www.w3.org/1999/xlink"><clipPath id="a"><path d="m12.5 17.13c-2.55 0-4.63-2.08-4.63-4.63s2.08-4.63 4.63-4.63 4.63 2.08 4.63 4.63-2.08 4.63-4.63 4.63zm0-7.56c-1.61 0-2.93 1.31-2.93 2.93s1.31 2.93 2.93 2.93 2.93-1.31 2.93-2.93-1.32-2.93-2.93-2.93zm0 13.97h-.13c-.83 0-1.57-.09-1.6-.1-.38-.05-.68-.35-.73-.73l-.24-1.71c-.53-.17-1.04-.38-1.52-.65l-1.36 1.02c-.31.23-.73.23-1.03-.01-.03-.02-.61-.47-1.2-1.06l-.09-.09c-.59-.59-1.04-1.17-1.06-1.2-.23-.3-.24-.73-.01-1.03l1.05-1.38c-.26-.49-.46-1-.62-1.53l-1.68-.24c-.38-.05-.68-.35-.72-.73 0-.03-.1-.76-.1-1.6v-.13c0-.83.09-1.57.1-1.6.05-.38.35-.68.73-.73l1.71-.24c.17-.53.38-1.03.64-1.52l-1.01-1.36c-.23-.31-.23-.73 0-1.03.02-.03.47-.61 1.06-1.2l.1-.09c.59-.59 1.17-1.04 1.2-1.06.3-.24.72-.24 1.03-.01l1.38 1.06c.49-.25 1-.46 1.53-.62l.24-1.69c.05-.38.35-.68.73-.72.03 0 .76-.1 1.6-.1h.13c.83 0 1.57.09 1.6.1.38.05.68.35.73.73l.24 1.72c.52.17 1.03.38 1.52.64l1.36-1.02c.31-.23.73-.23 1.03.01.03.02.61.47 1.2 1.06l.09.09c.59.59 1.04 1.17 1.06 1.2.23.3.24.73.01 1.03l-1.06 1.38c.25.49.46 1 .62 1.53l1.69.24c.38.05.67.35.72.73 0 .03.1.76.1 1.6v.13c0 .83-.09 1.57-.1 1.6-.05.38-.35.68-.73.73l-1.71.24c-.17.53-.38 1.03-.64 1.52l1.02 1.36c.23.3.23.73-.01 1.03-.02.03-.47.61-1.06 1.2l-.09.09c-.59.59-1.17 1.04-1.2 1.06-.3.24-.73.24-1.03.01l-1.39-1.05c-.49.25-1 .46-1.53.62l-.24 1.69c-.05.38-.35.68-.73.72-.03 0-.77.09-1.6.09zm-.87-1.72c.22.01.47.03.74.03h.13c.27 0 .52-.01.74-.03l.22-1.58c.05-.35.31-.63.65-.71.74-.17 1.45-.46 2.11-.85.19-.12.42-.15.64-.1.12.03.24.09.34.17l1.26.96c.16-.14.35-.32.54-.5l.09-.09c.19-.19.36-.38.51-.54l-.96-1.27c-.21-.28-.23-.66-.04-.96.4-.63.69-1.32.88-2.04.06-.36.35-.65.72-.7l1.6-.22c.01-.22.03-.48.03-.74v-.15c0-.27-.01-.52-.03-.74l-1.58-.23c-.35-.05-.63-.31-.71-.65-.17-.74-.45-1.44-.84-2.09-.04-.06-.07-.12-.09-.18-.09-.27-.05-.57.12-.79l.98-1.29c-.14-.16-.32-.35-.51-.54l-.06-.09c-.19-.19-.38-.36-.54-.51l-1.28.96c-.3.23-.71.23-1.01.01-.64-.39-1.32-.68-2.04-.85-.34-.08-.59-.36-.64-.71l-.22-1.6c-.22-.01-.47-.03-.74-.03h-.14c-.27 0-.52.01-.74.03l-.22 1.58c-.05.38-.35.66-.71.72-.73.16-1.42.44-2.06.83-.2.12-.43.15-.66.1-.12-.04-.23-.1-.33-.18l-1.25-.95c-.17.14-.35.31-.54.5l-.1.09c-.19.19-.36.38-.5.55l.96 1.28c.21.27.22.65.05.94-.02.03-.04.05-.05.08-.39.63-.67 1.31-.85 2.03-.08.34-.36.59-.71.64l-1.6.22c-.01.22-.03.48-.03.74v.13c0 .27.01.52.03.74l1.58.22c.38.05.67.35.72.72v.03c.17.71.45 1.39.83 2.01.13.21.16.47.08.71-.03.1-.09.2-.16.28l-.94 1.26c.15.17.32.35.51.54l.09.09c.19.19.38.36.54.51l1.28-.96c.32-.24.76-.22 1.06.03.62.38 1.29.66 2 .83.34.08.59.36.64.71z"/></clipPath><clipPath id="b"><path d="m-1022.5-958.5h1440v4513h-1440z"/></clipPath><g clip-path="url(#a)"><path clip-path="url(#b)" d="m-3.54-3.54h32.08v32.08h-32.08z" fill="#88c6be"/></g></svg>