<svg height="26" viewBox="0 0 36 26" width="36" xmlns="http://www.w3.org/2000/svg" xmlns:xlink="http://www.w3.org/1999/xlink"><filter id="a" color-interpolation-filters="auto"><feColorMatrix in="SourceGraphic" type="matrix" values="0 0 0 0 0.015686 0 0 0 0 0.439216 0 0 0 0 0.894118 0 0 0 1.000000 0"/></filter><g fill="none" fill-rule="evenodd" filter="url(#a)" transform="translate(-2 -7)"><path d="m20.547084 7.2754584.1557238.05868986 16 7.00000004c.8624404.3773177 1.1429903 1.3254836.8416495 2.0741925l.0555022 7.7802325c.0043269.6115992-.3400077 1.1695135-.8824695 1.4415266l-.075186.0352987-15.9692898 7c-.3801816.1666493-.809003.1785529-1.1961331.0357106l-.0885565-.0357106-15.96928987-7c-.55289675-.2423575-.9201079-.7739424-.95493871-1.372024l-.00267567-.0819479-.06142035-8.6.07244533-.0011885c.05545424-.478671.32158154-.9352563.7983819-1.2019473l.14936029-.0741426 15.99999998-7.00000004c.3577287-.1565063.7584257-.17606959 1.1268965-.05868986zm13.809916 11.0155416-12.758 5.582v4.891l12.7932977-5.6064zm-28.739-.064.03589766 4.9238 12.74510234 5.5862v-4.919zm14.4435592-7.6806-12.0084 5.2536 12.0084 5.2532 12.008-5.2532zm-2.5277843 2.8421659c.3361009.0789856.6440343.1745433.9716861.3039621l.1993404.081853.1021632.0442333.2107487.0955991c.0359342.0167602.072305.0339455.1091603.0515731l.2273288.1112123.2412552.1226585.2574804.1349346.2760038.1480405.9322018.5084002.2714955.1422986c1.053633.5404969 1.7280699.738524 2.3469972.6625293 1.3017649-.1598366 2.4530476-.5419839 3.4628535-1.1451553.4741411-.2832112 1.0880965-.128432 1.3713078.3457091.2832113.4741412.128432 1.0880966-.3457091 1.3713079-1.2549148.7495784-2.672821 1.2202265-4.2447135 1.4132306-1.153698.1416563-2.1777381-.1729479-3.6405236-.9390278l-.4748481-.2549359-.7437115-.406134-.2400907-.1275219-.2220622-.1149549c-.035622-.018157-.0705784-.035824-.1049118-.0530182l-.1988677-.0976244c-.0320128-.0153699-.0634881-.0303006-.0944689-.044809l-.1802908-.0821183c-.0583463-.0257737-.1150562-.0499934-.1704715-.0727943l-.1627046-.0642811-.15699-.0565786c-.1548168-.0529977-.3041401-.0956579-.4572052-.131629-1.1860515-.2787289-2.5465455.1106832-4.1158858 1.2477996-.4472243.3240508-1.0724662.224199-1.3965171-.2230252-.3240508-.4472243-.224199-1.0724662.2230253-1.396517 2.0022149-1.4507698 3.9293242-2.0023632 5.7469241-1.5752169z" fill="#2d2d2d" fill-rule="nonzero"/></g></svg>