<?xml version="1.0" encoding="utf-8"?>
<!-- Generator: Adobe Illustrator 25.2.3, SVG Export Plug-In . SVG Version: 6.00 Build 0)  -->
<svg version="1.1" id="Layer_1" xmlns="http://www.w3.org/2000/svg" xmlns:xlink="http://www.w3.org/1999/xlink" x="0px" y="0px"
	 viewBox="0 0 36 26" style="enable-background:new 0 0 36 26;" xml:space="preserve">
<style type="text/css">
	.st0{fill:#66E6AC;}
</style>
<path class="st0" d="M18.5,0.3l0.2,0.1l16,7c0.9,0.4,1.1,1.3,0.8,2.1l0.1,7.8c0,0.6-0.3,1.2-0.9,1.4h-0.1l-16,7
	c-0.4,0.2-0.8,0.2-1.2,0h-0.1l-16-7c-0.6-0.2-0.9-0.8-1-1.4v-0.1L0.2,8.6h0.1c0.1-0.5,0.3-0.9,0.8-1.2l0.1-0.1l16-7
	C17.8,0.2,18.2,0.2,18.5,0.3z M32.4,11.3l-12.8,5.6v4.9l12.8-5.6V11.3z M3.6,11.2v4.9l12.7,5.6v-4.9L3.6,11.2z M18.1,3.5l-12,5.3
	l12,5.3l12-5.3L18.1,3.5z M15.5,6.4c0.3,0.1,0.6,0.2,1,0.3l0.2,0.1h0.1L17,6.9c0,0,0.1,0,0.1,0.1l0.2,0.1l0.2,0.1l0.3,0.1l0.3,0.1
	L19,7.9L19.3,8c1.1,0.5,1.7,0.7,2.3,0.7c1.3-0.2,2.5-0.5,3.5-1.1c0.5-0.3,1.1-0.1,1.4,0.3s0.1,1.1-0.3,1.4c-1.3,0.7-2.7,1.2-4.2,1.4
	c-1.2,0.1-2.2-0.2-3.6-0.9l-0.5-0.3l-0.7-0.4L17,9l-0.2-0.1c0,0-0.1,0-0.1-0.1l-0.2-0.1h-0.1H16c-0.1,0-0.1,0-0.2-0.1l-0.2-0.1
	l-0.2-0.1c-0.2-0.1-0.3-0.1-0.5-0.1c-1.2-0.3-2.5,0.1-4.1,1.2c-0.4,0.3-1.1,0.2-1.4-0.2S9.2,8.2,9.6,7.9C11.8,6.5,13.7,6,15.5,6.4z"
	/>
</svg>
