<svg enable-background="new 0 0 36 26" viewBox="0 0 36 26" xmlns="http://www.w3.org/2000/svg"><path d="m20.5 7.3.2.1 16 7c.9.4 1.1 1.3.8 2.1l.1 7.8c0 .6-.3 1.2-.9 1.4h-.1l-16 7c-.4.2-.8.2-1.2 0h-.1l-16-7c-.6-.2-.9-.8-1-1.4v-.1l-.1-8.6h.1c.1-.5.3-.9.8-1.2l.1-.1 16-7c.6-.1 1-.1 1.3 0zm13.9 11-12.8 5.6v4.9l12.8-5.6zm-28.8-.1v4.9l12.7 5.6v-4.9zm14.5-7.7-12 5.3 12 5.3 12-5.3zm-2.6 2.9c.3.1.6.2 1 .3l.2.1h.1l.2.1s.1 0 .1.1l.2.1.2.1.3.1.3.1.9.5.3.1c1.1.5 1.7.7 2.3.7 1.3-.2 2.5-.5 3.5-1.1.5-.3 1.1-.1 1.4.3s.1 1.1-.3 1.4c-1.3.7-2.7 1.2-4.2 1.4-1.2.1-2.2-.2-3.6-.9l-.5-.3-.7-.4-.2-.1-.2-.1s-.1 0-.1-.1l-.2-.1h-.1-.4c-.1 0-.1 0-.2-.1l-.2-.1-.2-.1c-.2-.1-.3-.1-.5-.1-1.2-.3-2.5.1-4.1 1.2-.4.3-1.1.2-1.4-.2s-.2-1.1.2-1.4c2.2-1.4 4.1-1.9 5.9-1.5z" fill="#66e6ac" transform="translate(-2 -7)"/></svg>