<svg enable-background="new 0 0 66 66" viewBox="0 0 66 66" xmlns="http://www.w3.org/2000/svg" xmlns:xlink="http://www.w3.org/1999/xlink"><mask id="a" height="58" maskUnits="userSpaceOnUse" width="60" x="3" y="5"><path d="m10 0h46c5.5 0 10 4.5 10 10v46c0 5.5-4.5 10-10 10h-46c-5.5 0-10-4.5-10-10v-46c0-5.5 4.5-10 10-10z" fill="#c4c4c4"/></mask><path d="m0 0h66v66h-66z" fill="#263238"/><g mask="url(#a)"><path d="m3 5h10v4h-10z" fill="#c792ea" opacity=".7"/><path d="m15 5h32v4h-32z" fill="#eff" opacity=".7"/><path d="m49 5h2v4h-2z" fill="#89ddf3" opacity=".7"/><path d="m53 5h8v4h-8z" fill="#82aaff" opacity=".7"/><path d="m61 5h2v4h-2z" fill="#89ddf3" opacity=".7"/><path d="m11 11h8v4h-8z" fill="#eff" opacity=".7"/><path d="m19 11h2v4h-2z" fill="#89ddf3" opacity=".7"/><path d="m23 11h14v4h-14z" fill="#82aaff" opacity=".7"/><path d="m37 11h4v4h-4z" fill="#89ddf3" opacity=".7"/><path d="m41 11h22v4h-22z" fill="#c3e88d" opacity=".7"/><path d="m11 17h22v4h-22z" fill="#82aaff" opacity=".7"/><path d="m33 17h2v4h-2z" fill="#89ddf3" opacity=".7"/><path d="m37 17h4v4h-4z" fill="#89ddf3" opacity=".7"/><path d="m43 17h4v4h-4z" fill="#c792ea" opacity=".7"/><path d="m49 17h14v4h-14z" fill="#eff" opacity=".7"/><path d="m11 23h16v4h-16z" fill="#eff" opacity=".7"/><path d="m27 23h2v4h-2z" fill="#89ddf3" opacity=".7"/><path d="m31 23h2v4h-2z" fill="#89ddf3" opacity=".7"/><path d="m19 29h16v4h-16z" fill="#82aaff" opacity=".7"/><path d="m35 29h2v4h-2z" fill="#89ddf3" opacity=".7"/><path d="m39 29h4v4h-4z" fill="#89ddf3" opacity=".7"/><path d="m45 29h4v4h-4z" fill="#c792ea" opacity=".7"/><path d="m51 29h12v4h-12z" fill="#eff" opacity=".7"/><path d="m19 35h16v4h-16z" fill="#82aaff" opacity=".7"/><path d="m35 35h2v4h-2z" fill="#89ddf3" opacity=".7"/><path d="m39 35h4v4h-4z" fill="#89ddf3" opacity=".7"/><path d="m45 35h4v4h-4z" fill="#c792ea" opacity=".7"/><path d="m51 35h12v4h-12z" fill="#eff" opacity=".7"/><path d="m19 41h18v4h-18z" fill="#eff" opacity=".7"/><path d="m37 41h2v4h-2z" fill="#89ddf3" opacity=".7"/><path d="m11 47h4v4h-4z" fill="#89ddf3" opacity=".7"/><path d="m11 53h16v4h-16z" fill="#eff" opacity=".7"/><path d="m3 59h6v4h-6z" fill="#89ddf3" opacity=".7"/></g></svg>