<?xml version="1.0" encoding="utf-8"?>
<!-- Generator: Adobe Illustrator 25.2.3, SVG Export Plug-In . SVG Version: 6.00 Build 0)  -->
<svg version="1.1" id="Layer_1" xmlns="http://www.w3.org/2000/svg" xmlns:xlink="http://www.w3.org/1999/xlink" x="0px" y="0px"
	 viewBox="0 0 96.5 97.5" style="enable-background:new 0 0 96.5 97.5;" xml:space="preserve">
<path d="M48,1.5C21.8,1.5,0.5,22.8,0.5,49S21.8,96.5,48,96.5S95.5,75.2,95.5,49S74.2,1.5,48,1.5z M48,92.1
	C24.2,92.1,4.9,72.8,4.9,49C4.9,25.2,24.2,5.9,48,5.9c23.8,0,43.1,19.3,43.1,43.1c0,0,0,0,0,0C91,72.8,71.8,92,48,92.1z M12.9,48.6
	c0,19.6,15.9,35.5,35.5,35.5l0,0V13C28.8,13,12.9,28.9,12.9,48.6C12.9,48.5,12.9,48.5,12.9,48.6z"/>
</svg>
