<?xml version="1.0" encoding="utf-8"?>
<!-- Generator: Adobe Illustrator 25.2.3, SVG Export Plug-In . SVG Version: 6.00 Build 0)  -->
<svg version="1.1" id="Layer_1" xmlns="http://www.w3.org/2000/svg" xmlns:xlink="http://www.w3.org/1999/xlink" x="0px" y="0px"
	 viewBox="0 0 867.7 866" style="enable-background:new 0 0 867.7 866;" xml:space="preserve">
<style type="text/css">
	.st0{fill:#446B9E;}
</style>
<g>
	<g>
		<g>
			<path class="st0" d="M777,541.4c-3.7,11.5-7.8,22.9-12.5,34.1c1-2.4,2-4.8,3-7.2c-7.5,17.8-16.3,35.1-26.4,51.6
				c-5.1,8.4-10.5,16.5-16.2,24.5c-1.3,1.8-2.6,3.7-4,5.5c-1.4,1.9-7.1,8.3-1,1.4c-3.4,3.8-6.4,8-9.7,11.9
				c-12.9,15.3-27,29.6-42.1,42.7c-3.4,2.9-6.8,5.8-10.3,8.7c-1.7,1.4-3.5,2.8-5.2,4.2c-3.8,3,1.8-1.4,2.1-1.6c-1.3,1.1-2.7,2-4,3
				c-7.7,5.8-15.7,11.2-23.8,16.4c-18.1,11.5-37.1,21.4-56.8,29.9c2.4-1,4.8-2,7.2-3c-32.5,13.7-66.6,23-101.5,27.7
				c2.7-0.4,5.3-0.7,8-1.1c-34.4,4.5-69.2,4.5-103.5,0c2.7,0.4,5.3,0.7,8,1.1c-34.9-4.7-69-14-101.5-27.7c2.4,1,4.8,2,7.2,3
				c-17.4-7.4-34.4-16.1-50.6-26c-8.2-5-16.2-10.3-24-15.9c-1.8-1.3-3.6-2.6-5.4-3.9c-1.8-1.4-8.5-7-1.2-0.9
				c-3.8-3.2-7.9-6.3-11.7-9.5c-15.3-12.9-29.6-26.9-42.7-41.9c-3-3.4-6-6.9-8.9-10.5c-1.4-1.8-2.8-3.5-4.3-5.3
				c-3.1-3.8,1.3,1.7,1.6,2c-1.1-1.3-2.1-2.7-3.1-4.1c-5.9-7.9-11.5-16-16.7-24.3c-11.7-18.4-21.8-37.8-30.3-58c1,2.4,2,4.8,3,7.2
				c-13.4-32-22.4-65.5-27.1-99.8c0.4,2.7,0.7,5.3,1.1,8c-4.6-34.7-4.6-69.8,0-104.4c-0.4,2.7-0.7,5.3-1.1,8
				c4.7-34.3,13.7-67.8,27-99.7c-1,2.4-2,4.8-3,7.2c7.5-17.8,16.3-35.1,26.4-51.7c5.1-8.4,10.5-16.6,16.2-24.6
				c1.3-1.8,2.7-3.7,4-5.5c1.4-1.9,7.1-8.3,1-1.4c3.4-3.8,6.4-8,9.7-11.9c12.9-15.3,27-29.6,42.1-42.8c3.4-2.9,6.8-5.8,10.3-8.7
				c1.7-1.4,3.5-2.8,5.2-4.2c3.8-3-1.8,1.4-2.1,1.6c1.3-1.1,2.7-2,4-3c7.7-5.8,15.7-11.2,23.8-16.4c18.1-11.5,37.1-21.4,56.8-29.9
				c-2.4,1-4.8,2-7.2,3c32.5-13.7,66.6-23,101.5-27.7c-2.7,0.4-5.3,0.7-8,1.1c34.4-4.5,69.2-4.5,103.5,0c-2.7-0.4-5.3-0.7-8-1.1
				c34.9,4.7,69,14,101.5,27.7c-2.4-1-4.8-2-7.2-3c17.4,7.4,34.4,16.1,50.5,25.9c8.2,5,16.2,10.3,24,15.9c1.8,1.3,3.6,2.6,5.4,3.9
				c1.8,1.4,8.5,7,1.2,0.9c3.8,3.2,7.9,6.3,11.7,9.5c15.3,12.9,29.6,26.9,42.8,41.9c3,3.4,6,6.9,8.9,10.5c1.4,1.8,2.9,3.6,4.3,5.3
				c3.1,3.8-1.3-1.7-1.6-2c1.1,1.3,2.1,2.7,3.1,4.1c5.9,7.9,11.5,16,16.8,24.3c11.7,18.5,21.9,37.9,30.4,58.1c-1-2.4-2-4.8-3-7.2
				c13.3,31.8,22.3,65.3,27,99.4c-0.4-2.7-0.7-5.3-1.1-8c4.6,34.9,4.6,70.3,0,105.2c0.4-2.7,0.7-5.3,1.1-8
				C788.5,498.3,783.6,520.1,777,541.4c-4.7,15,5.5,33.4,21,36.9c16.3,3.7,31.9-4.9,36.9-21c27.5-88.2,25.5-186.3-7.2-272.9
				c-31.3-82.7-87-153.5-160.1-203.3C599.9,35.1,518,10.3,436.3,9.4C354.7,8.5,272.5,31.8,204,76.2c-35.9,23.3-68.8,51.9-96,84.9
				c-28.8,34.9-51.4,73-68.3,115c-35.6,87.8-39.1,189-11.1,279.4c25.2,81.3,75.1,154.8,142.3,207.2c34.7,27,72.2,48.3,113.3,63.9
				c38.3,14.6,78.9,22.8,119.7,25.7c80.9,5.8,163.5-13.2,234.3-52.7c74.3-41.5,136.5-106.9,173.3-183.7c9.1-19,16.8-38.6,23.3-58.6
				c4.8-14.9-5.6-33.4-21-36.9C797.4,516.7,782.1,525.4,777,541.4z"/>
		</g>
	</g>
	<g>
		<g>
			<path class="st0" d="M452.1,802.2c-5.4-6.1-10.6-12.3-15.8-18.7c-2.5-3.1-4.9-6.4-7.5-9.5c5.8,6.9,1.2,1.6,0-0.1
				c-1.2-1.6-2.4-3.2-3.6-4.8c-9.3-12.6-18.2-25.6-26.5-38.9c-16.5-26.5-30.9-54.3-43.1-83c1,2.4,2,4.8,3,7.2
				c-20.3-48.3-34.1-99.1-41.2-150.9c0.4,2.7,0.7,5.3,1.1,8c-7.1-52.9-7.1-106.6,0-159.5c-0.4,2.7-0.7,5.3-1.1,8
				c7.1-51.9,20.9-102.7,41.1-151.1c-1,2.4-2,4.8-3,7.2c12.2-28.8,26.5-56.6,43.1-83.1c8.3-13.3,17.2-26.3,26.5-39
				c1-1.4,2.1-2.8,3.1-4.2c1.2-1.6,6.6-8,0.6-0.8c2.6-3.1,5-6.4,7.6-9.5c5.1-6.3,10.4-12.5,15.8-18.7c5.3-6,8.8-13,8.8-21.2
				c0-7.4-3.3-16.1-8.8-21.2c-11.3-10.4-31.4-12.6-42.4,0c-75.1,85.5-127,190.5-146.6,302.7c-11.5,65.9-12.6,132.1-3.5,198.4
				c7.8,56.9,24,111.7,46.8,164.3c25.6,58.8,61,112.9,103.3,161.1c10.4,11.8,32,11.4,42.4,0C463.7,832,463.2,814.8,452.1,802.2
				L452.1,802.2z"/>
		</g>
	</g>
	<g>
		<g>
			<path class="st0" d="M58,344c6.7,0,13.3,0,20,0c18.1,0,36.3,0,54.4,0c26.8,0,53.6,0,80.4,0c32.7,0,65.4,0,98.2,0
				c35.8,0,71.7,0,107.5,0c36.2,0,72.4,0,108.6,0c33.7,0,67.5,0,101.2,0c28.5,0,57.1,0,85.6,0c20.5,0,41.1,0,61.6,0
				c9.7,0,19.5,0.1,29.2,0c0.4,0,0.9,0,1.3,0c15.7,0,30.7-13.8,30-30c-0.7-16.3-13.2-30-30-30c-6.7,0-13.3,0-20,0
				c-18.1,0-36.3,0-54.4,0c-26.8,0-53.6,0-80.4,0c-32.7,0-65.4,0-98.2,0c-35.8,0-71.7,0-107.5,0c-36.2,0-72.4,0-108.6,0
				c-33.7,0-67.5,0-101.2,0c-28.5,0-57.1,0-85.6,0c-20.5,0-41.1,0-61.6,0c-9.7,0-19.5-0.1-29.2,0c-0.4,0-0.9,0-1.3,0
				c-15.7,0-30.7,13.8-30,30C28.7,330.3,41.2,344,58,344L58,344z"/>
		</g>
	</g>
	<g>
		<g>
			<path class="st0" d="M806,520c-6.7,0-13.3,0-20,0c-18.1,0-36.3,0-54.4,0c-26.8,0-53.6,0-80.4,0c-32.7,0-65.4,0-98.2,0
				c-35.8,0-71.7,0-107.5,0c-36.2,0-72.4,0-108.6,0c-33.7,0-67.5,0-101.2,0c-28.5,0-57.1,0-85.6,0c-20.5,0-41.1,0-61.6,0
				c-9.7,0-19.5-0.1-29.2,0c-0.4,0-0.9,0-1.3,0c-15.7,0-30.7,13.8-30,30c0.7,16.3,13.2,30,30,30c6.7,0,13.3,0,20,0
				c18.1,0,36.3,0,54.4,0c26.8,0,53.6,0,80.4,0c32.7,0,65.4,0,98.2,0c35.8,0,71.7,0,107.5,0c36.2,0,72.4,0,108.6,0
				c33.7,0,67.5,0,101.2,0c28.5,0,57.1,0,85.6,0c20.5,0,41.1,0,61.6,0c9.7,0,19.5,0.1,29.2,0c0.4,0,0.9,0,1.3,0
				c15.7,0,30.7-13.8,30-30C835.3,533.7,822.8,520,806,520L806,520z"/>
		</g>
	</g>
	<g>
		<g>
			<path class="st0" d="M411.9,60.6c5.4,6.1,10.6,12.3,15.8,18.7c2.5,3.1,5,6.4,7.6,9.5c-5.8-6.9-1.2-1.6,0,0.1
				c1.2,1.6,2.4,3.2,3.6,4.8c9.4,12.6,18.2,25.6,26.5,39c16.5,26.5,30.9,54.3,43.1,83.1c-1-2.4-2-4.8-3-7.2
				c20.3,48.3,34.1,99.1,41.1,151.1c-0.4-2.7-0.7-5.3-1.1-8c7,52.9,7,106.6,0,159.5c0.4-2.7,0.7-5.3,1.1-8
				c-7.1,51.9-20.9,102.6-41.2,150.9c1-2.4,2-4.8,3-7.2c-12.3,29-26.8,57-43.5,83.8c-8.5,13.6-17.5,26.8-27.1,39.6
				c-1,1.4-2.1,2.8-3.1,4.1c-0.7,0.9-1.4,1.8-2.1,2.7c2.9-3.8,3.4-4.4,1.5-2c-2.5,3.2-5,6.4-7.6,9.5c-5.1,6.3-10.4,12.5-15.8,18.6
				c-10.4,11.7-12.4,31,0,42.4c11.4,10.5,31.3,12.5,42.4,0c75.8-85.2,128-191.2,147.7-303.7c11.5-65.9,12.7-132.1,3.6-198.4
				c-7.8-56.9-23.9-111.7-46.8-164.4c-25.6-58.9-61-113-103.4-161.2c-10.4-11.8-32-11.4-42.4,0C400.3,30.8,400.8,48,411.9,60.6
				L411.9,60.6z"/>
		</g>
	</g>
</g>
</svg>
