<svg height="201" viewBox="0 0 1126 201" width="1126" xmlns="http://www.w3.org/2000/svg" xmlns:xlink="http://www.w3.org/1999/xlink"><linearGradient id="a" x1="58.828677%" x2="-33.716929%" y1="38.511536%" y2="90.164871%"><stop offset="0" stop-color="#1f3b77"/><stop offset="1" stop-color="#76b3e1"/></linearGradient><mask id="b" fill="#fff"><path d="m46.2355699 0 1.5481675.01275192c51.1385405.83781888 106.9258326 42.68024808 106.9258326 42.68024808l-84.1340001 27.243-.7071438.2039396c-23.3536213 6.5826061-48.4377562-1.4150396-63.57485622-20.3339396l-.38275691-.5523585c-12.42679769-18.2519926-4.65872309-38.8431115 17.66775693-46.0176415l4.862-1.342c5.792-1.309 11.756-1.894 17.795-1.894z" fill="#fff" fill-rule="evenodd"/></mask><g fill="none" fill-rule="evenodd" transform="translate(-120 -284)"><g transform="translate(157.929493 284.0645)"><path d="m25.8208068 40.5187-5.03 1.504c-7.981 2.776-13.81999998 8.198-17.31199998 16.1-3.608 8.167-4.039 17.45-2.726 25.323.615 2.589 1.574 5.109 2.992 7.443 12.71299998 20.914 40.72899998 27.077 64.28299998 20.13l84.1340002-27.243.259-.438c-15.758-11.781-77.6470002-54.781-126.6000002-42.819" fill="#518ac8"/><path d="m20.1489068 40.0372 5.15-1.539c44.166-10.772 99.2800002 21.475 128.1940002 43.028l22.977-38.804c-24.374-17.143-78.9000002-50.841-126.4040002-40.933l-4.862 1.342c-8.327 2.596-14.905 7.397-18.771 13.018-.788 1.038-1.341 2.262-2.026 3.355l-17.09399998 28.914c3.45099998-3.776 7.77399998-6.621 12.83599998-8.381" fill="#518ac8"/><path d="m-6.67143012 76.884h161.38100012v-87.47h-161.38100012z" fill="url(#a)" mask="url(#b)" opacity=".6" transform="translate(21.752937 .0005)"/><path d="m153.493107 81.526c-6.823-5.109-21.742-15.686-40.269-25.248-12.748-6.579-28.6650002-13.384-45.3380002-17.088l20.267-37.246c-.723-.133-1.448-.257-2.172-.379l-20.222 37.164c-5.991-1.23-12.066-2.036-18.115-2.28l19.831-36.449c-.803.005-1.605.02-2.405.046l-19.766 36.332c-6.209-.097-12.373.441-18.376 1.757l19.115-35.274-.628.173c-.782.251-1.542.523-2.288.806l-18.962 34.997-4.016 1.2c-5.062 1.76-9.385 4.605-12.83699998 8.381-3.311 6.056-7.336 12.024-7.31210682 24.786.00510682 3.006-.12889318-6.914 3.47910682-15.081 3.492-7.902 9.33099998-13.324 17.31099998-16.1l5.031-1.504c6.66-1.628 13.561-2.231 20.552-2.041l.122.067.035-.063c44.345 1.283 92.2930002 34.69 105.8900002 44.856z" fill="#fff"/></g><g transform="translate(120.0168 369.072038)"><path d="m175.1756 22.6121623c-17.184-21.42200004-44.887-27.70700004-70.438-18.49700004l-79.852 27.42800004s72.908 51.327 128.142 38.846l4.862-1.342c22.553-7.113 30.251-28.049 17.286-46.435" fill="#3b68a7"/><path d="m165.545 68.6009623c-.549 1.619-1.255 3.166-2.104 4.637l-.094.16c-1.869 3.185-4.432 5.994-7.582 8.358-.087-2.78-.602-5.581-1.499-8.36l6.305-11.506 5.134-9.366c1.614 5.432 1.587 10.925-.16 16.077zm-10.084 18.232c.127-.825.22-1.654.271-2.487.717-.489 1.417-.991 2.082-1.521zm-11.023.656-4.736 1.331c-35.739 8.2-78.828-12.717-103.519-27.525l49.398-16.287c20.054-5.943 41.242-.694 56.17 13.373l-.064.116.417.229c1.985 1.902 3.861 3.956 5.602 6.168 4.089 5.902 6.112 12.2 5.981 18.309-2.73 1.743-5.825 3.189-9.249 4.286zm7.92 3.327c-2.975 8.771-10.484 15.4829997-21.107 18.8879997l-4.735 1.331c-48.726 11.183-111.388-31.4629997-122.249-39.2159997l29.256-9.647c6.567 4.012 14.537 8.528 23.376 12.817 17.822 8.648 42.171 17.75 65.729 17.75 5.953 0 11.855-.581 17.59-1.898l4.82-1.354c3.083-.988 5.909-2.249 8.468-3.739-.209 1.715-.585 3.41-1.148 5.068zm-59.167-66.199 5.577-1.824c6.912-2.048 13.959-2.758 20.838-2.244l-11.581 20.262c-7.591-.752-15.406-.064-23.068 2.206l-2.623.876zm28.696-3.853c5.833.67 11.519 2.222 16.87 4.609l-11.5 20.699c-5.38-2.5-11.099-4.184-16.98-4.994zm18.765 5.497c4.897 2.402 9.481 5.519 13.61 9.291l-11.48 20.946c-4.142-3.835-8.737-7.02-13.645-9.513zm15.176 10.776c1.785 1.754 3.482 3.631 5.064 5.642 1.627 2.348 2.916 4.76 3.885 7.197l-11.465 20.92c-1.004-2.412-2.299-4.796-3.91-7.117l-.037-.05c-1.573-2.002-3.255-3.876-5.024-5.634zm25.465 5.787-7.247 12.346v-.001l-5.339 9.096c.657-4.679.099-9.506-1.63-14.244l5.671-10.348 5.965-10.885c-.344-.763-.717-1.524-1.128-2.283l-6.899 12.589-4.63 8.448c-.936-2.057-2.088-4.09-3.467-6.078l-.037-.05c-1.768-2.248-3.671-4.337-5.683-6.277l11.037-20.138c-.534-.47-1.075-.929-1.624-1.378l-10.988 20.049c-4.152-3.73-8.737-6.829-13.626-9.238l10.746-19.34000004c-.64-.283-1.286-.553-1.935-.813l-10.704 19.26300004c-5.322-2.394-10.968-3.992-16.763-4.746l10.631-18.60000004c-.766-.073-1.534-.132-2.304-.176l-10.588 18.52600004c-7.446-.68-15.1.031-22.604 2.256l-3.441 1.125 10.032-17.81200004-82.056 26.99900004-22.682 40.273 1.378.912c.177.134 17.96 13.463 42.164 25.08 17.859 8.5719997 42.233 17.5849997 65.784 17.5849997 5.994 0 11.939-.584 17.705-1.908l4.821-1.354c8.495-2.722 15.114-7.454 19.235-13.6319997l.147.087 13.903-23.686c.049-.085.1-.169.149-.255l8.732-14.878c.001 0 .001-.001.002-.002l6.341-10.804c.553-1.831.891-3.723 1.028-5.652z" fill="#2c4f7c"/></g><path d="m1245.9836 309.7131-.065 148.574h-1.935l.064-148.574zm-231.3486 53.4866c4.592 0 8.297.781 11.115 2.34 2.815 1.56 5.047 3.988 6.696 7.281h2.34v-7.801h16.378v44.98c0 2.6 1.17 3.901 3.511 3.901h2.47v15.599h-11.18c-2.947 0-5.352-.865-7.215-2.599-1.865-1.734-2.795-3.986-2.795-6.761h-2.339c-1.736 4.075-4.161 6.955-7.282 8.645-3.119 1.69-6.759 2.536-10.92 2.536-3.899 0-7.562-.738-10.984-2.21-3.425-1.473-6.436-3.641-9.035-6.5-2.6-2.861-4.66-6.326-6.175-10.401-1.518-4.072-2.274-8.71-2.274-13.91v-2.08c0-5.112.734-9.705 2.209-13.779 1.472-4.074 3.465-7.54 5.98-10.401 2.513-2.86 5.438-5.048 8.775-6.565 3.335-1.515 6.911-2.275 10.725-2.275zm88.8302.0001c9.013 0 16.314 2.34 21.904 7.02 5.591 4.681 9.121 10.835 10.596 18.46l-16.12 4.16c-.521-3.812-2.167-7.105-4.941-9.88-2.774-2.772-6.673-4.16-11.699-4.16-2.34 0-4.551.435-6.631 1.3-2.08.868-3.899 2.102-5.459 3.705-1.56 1.605-2.795 3.555-3.705 5.85-.91 2.297-1.365 4.875-1.365 7.735v.78c0 2.86.455 5.396 1.365 7.606s2.145 4.051 3.705 5.524c1.56 1.475 3.379 2.58 5.459 3.315 2.08.738 4.291 1.105 6.631 1.105 5.026 0 8.86-1.255 11.505-3.77 2.643-2.512 4.355-5.892 5.135-10.14l16.12 4.03c-1.475 7.628-4.963 13.78-10.465 18.46-5.505 4.681-12.849 7.02-22.035 7.02-4.768 0-9.21-.737-13.325-2.209-4.117-1.473-7.693-3.596-10.726-6.371-3.034-2.772-5.416-6.195-7.149-10.27-1.735-4.072-2.601-8.71-2.601-13.91v-1.56c0-5.2.866-9.88 2.601-14.04 1.733-4.16 4.137-7.713 7.216-10.66 3.074-2.945 6.671-5.2 10.789-6.76 4.115-1.559 8.515-2.34 13.195-2.34zm79.2601-26.5198-11.05 52h3.12l26.13-25.48 10.139 10.92-23.919 22.36v2.34l10.4 17.16h1.561l7.149-4.94 7.931 11.44-5.851 4.42c-2.167 1.647-4.271 2.795-6.306 3.445-2.037.65-4.009.975-5.914.975-2.775 0-5.287-.673-7.541-2.015-2.254-1.343-4.117-3.27-5.59-5.785l-11.699-19.24h-2.99l-5.33 25.22h-16.38l19.76-92.82zm-258.0513 1.82v37.18h29.381v-37.18h17.16v91h-17.16v-37.44h-29.381v37.44h-17.159v-91zm-392.5425-1.2578c24.939 0 44.777 19.643 44.777 44.617.151 11.956-4.521 23.478-12.979 32.012-8.459 8.533-20.006 13.374-32.081 13.447-12.076-.147-23.594-5.058-32-13.645-8.405-8.586-13.004-20.138-12.777-32.094.284-24.975 20.121-44.617 45.06-44.337zm-115.059-.561c14.61618 0 22.76899 7.67833 23.472303 8.368517l.049697.049483-4.251 7.296s-7.651-7.576-19.271-7.576c-11.335 0-18.42 7.296-18.704 14.872 0 20.765 43.927 14.873 43.927 43.495 0 12.908-10.203 23.571-26.64 23.571-15.23508 0-24.471149-7.919654-27.036673-10.453944l-.171898-.171682c-.374583-.378384-.563429-.598374-.563429-.598374l5.101-6.454.014002.014559c.400669.41415 9.369612 9.525441 22.940998 9.525441 9.635 0 17.57-5.612 17.57-15.153 0-21.887-43.926-16.556-43.926-43.494 0-12.628 11.336-23.291 27.489-23.291zm401.006 2.526c26.355 0 44.209 15.994 44.209 43.775 0 27.78-17.854 43.494-44.209 43.494h-28.34v-87.269zm-85.586 0-.283 87.269h-8.502l.283-87.269zm-96.071-.281-.284 79.413h40.809v7.576h-49.594l.567-86.989zm-104.29 6.173c-19.838 0-35.991 15.715-35.991 36.48 0 21.326 15.87 37.602 35.708 37.882 9.822-.22 19.149-4.315 25.907-11.376 6.759-7.061 10.389-16.502 10.084-26.226 0-20.765-15.87-36.76-35.708-36.76zm285.096 1.965h-18.987l-.283 71.836h18.987c21.538 0 35.991-12.627 36.275-35.918 0-23.291-14.453-35.918-35.992-35.918zm201.8275 31.7355c-4.768 0-8.58 1.583-11.439 4.745-2.862 3.165-4.291 7.475-4.291 12.936v1.559c0 5.46 1.429 9.773 4.291 12.935 2.859 3.165 6.671 4.745 11.439 4.745 4.766 0 8.58-1.58 11.44-4.745 2.86-3.162 4.291-7.475 4.291-12.935v-1.559c0-5.461-1.431-9.771-4.291-12.936-2.86-3.162-6.674-4.745-11.44-4.745z" fill="#58595b"/></g></svg>