<svg viewBox="0 0 341.7 155.3" xmlns="http://www.w3.org/2000/svg" xmlns:xlink="http://www.w3.org/1999/xlink"><defs><linearGradient id="a" gradientUnits="userSpaceOnUse" x1="27.5" x2="152" y1="3" y2="63.5"><stop offset=".1" stop-color="#76b3e1"/><stop offset=".3" stop-color="#dcf2fd"/><stop offset="1" stop-color="#76b3e1"/></linearGradient><linearGradient id="b" gradientUnits="userSpaceOnUse" x1="95.8" x2="74" y1="32.6" y2="105.2"><stop offset="0" stop-color="#76b3e1"/><stop offset=".5" stop-color="#4377bb"/><stop offset="1" stop-color="#1f3b77"/></linearGradient><linearGradient id="c" gradientUnits="userSpaceOnUse" x1="18.4" x2="144.3" y1="64.2" y2="149.8"><stop offset="0" stop-color="#315aa9"/><stop offset=".5" stop-color="#518ac8"/><stop offset="1" stop-color="#315aa9"/></linearGradient><linearGradient id="d" gradientUnits="userSpaceOnUse" x1="75.2" x2="24.4" y1="74.5" y2="260.8"><stop offset="0" stop-color="#4377bb"/><stop offset=".5" stop-color="#1a336b"/><stop offset="1" stop-color="#1a336b"/></linearGradient></defs><path d="m163 35.3s-52.7-39.8-93.6-30.5l-3.6 1c-6.3 2-11 5.5-13.9 9.7-.6.8-1 1.7-1.5 2.5l-15.1 25.7 26.1 5.1a46.4 46.4 0 0 0 37.2 7.3l46.5 9.1z" fill="#76b3e1"/><path d="m163 35.3s-52.7-39.8-93.6-30.5l-3.6 1c-6.3 2-11 5.5-13.9 9.7-.6.8-1 1.7-1.5 2.5l-15.1 25.7 26.1 5.1a46.4 46.4 0 0 0 37.2 7.3l46.5 9.1z" fill="url(#a)" opacity=".3"/><path d="m51.5 34.8-3.6 1c-16.7 5.4-22.4 21-12.8 34.7a44.6 44.6 0 0 0 47.6 15l62.3-20.3s-52.6-39.7-93.5-30.4z" fill="#518ac8"/><path d="m51.5 34.8-3.6 1c-16.7 5.4-22.4 21-12.8 34.7a44.6 44.6 0 0 0 47.6 15l62.3-20.3s-52.6-39.7-93.5-30.4z" fill="url(#b)" opacity=".3"/><path d="m133.6 79.8a44.6 44.6 0 0 0 -47.7-15.1l-62.3 20.2-19.6 34.9 111.6 19.1 20-35.6c4-6.9 3.6-15.5-2-23.5z" fill="url(#c)"/><path d="m114 114.7a44.7 44.7 0 0 0 -47.6-15.1l-62.4 20.2s52.7 39.8 93.6 30.5l3.6-1c16.7-5.3 22.4-20.9 12.8-34.6z" fill="url(#d)"/><path d="m169.2 100.9s3.2 3.4 8.1 3.4c3.4 0 6.2-2 6.2-5.4 0-7.8-15.5-5.9-15.5-15.5 0-4.5 4-8.3 9.7-8.3 5.4 0 8.3 3 8.3 3l-1.5 2.6s-2.7-2.7-6.8-2.7c-4 0-6.5 2.6-6.6 5.3 0 7.4 15.5 5.3 15.5 15.5 0 4.6-3.6 8.4-9.4 8.4-6.4 0-9.8-4-9.8-4zm49.1-25.6c8.8 0 15.8 7 15.8 15.9a16 16 0 0 1 -15.9 16.2 16 16 0 0 1 -15.8-16.3c.1-8.9 7.1-15.9 15.9-15.8zm-.1 29.3a13 13 0 0 0 12.7-13.4c0-7.4-5.6-13.1-12.6-13.1s-12.7 5.6-12.7 13c0 7.6 5.6 13.4 12.6 13.5zm33.9-28.7h3l-.1 28.3h14.4v2.7h-17.5zm33.9.1h3l-.1 31.1h-3zm23.2 0h10c9.3 0 15.6 5.7 15.6 15.6s-6.3 15.5-15.6 15.5h-10zm9.6 28.4c7.6 0 12.7-4.5 12.8-12.8 0-8.3-5.1-12.8-12.7-12.8h-6.7l-.1 25.6z" fill="#58595b"/></svg>