<svg xmlns="http://www.w3.org/2000/svg" xmlns:xlink="http://www.w3.org/1999/xlink" width="349.47" height="70.21" viewBox="0 0 349.47 70.21">
  <defs>
    <style>
      .a {
        fill: #bbbdbf;
      }

      .b, .d {
        isolation: isolate;
      }

      .b {
        opacity: 0.29;
        fill: url(#a);
      }

      .c {
        fill: #929497;
      }

      .d {
        opacity: 0.34;
        fill: url(#b);
      }

      .e {
        fill: url(#c);
      }

      .f {
        fill: url(#d);
      }

      .g {
        fill: #fff;
      }
    </style>
    <linearGradient id="a" x1="11.68" y1="73.35" x2="70.63" y2="44.74" gradientTransform="matrix(1, 0, 0, -1, 0, 73.4)" gradientUnits="userSpaceOnUse">
      <stop offset="0.12" stop-color="#bbbdbf"/>
      <stop offset="0.3" stop-color="#f1f1f2"/>
      <stop offset="1" stop-color="#d0d2d3"/>
    </linearGradient>
    <linearGradient id="b" x1="44.01" y1="59.34" x2="33.69" y2="24.96" gradientTransform="matrix(1, 0, 0, -1, 0, 73.4)" gradientUnits="userSpaceOnUse">
      <stop offset="0" stop-color="#bbbdbf"/>
      <stop offset="0.47" stop-color="#929497"/>
      <stop offset="1" stop-color="#58595b"/>
    </linearGradient>
    <linearGradient id="c" x1="7.36" y1="44.37" x2="66.92" y2="3.89" gradientTransform="matrix(1, 0, 0, -1, 0, 73.4)" gradientUnits="userSpaceOnUse">
      <stop offset="0" stop-color="#58595b"/>
      <stop offset="0.54" stop-color="#929497"/>
      <stop offset="1" stop-color="#58595b"/>
    </linearGradient>
    <linearGradient id="d" x1="34.26" y1="39.52" x2="10.2" y2="-48.62" gradientTransform="matrix(1, 0, 0, -1, 0, 73.4)" gradientUnits="userSpaceOnUse">
      <stop offset="0" stop-color="#4377bb"/>
      <stop offset="0" stop-color="#808184"/>
      <stop offset="0.47" stop-color="#404041"/>
      <stop offset="1" stop-color="#231f20"/>
    </linearGradient>
  </defs>
  <g>
    <path class="a" d="M75.81,15.34S50.86-3.49,31.5.91a16.86,16.86,0,0,0-1.7.47A12.33,12.33,0,0,0,23.22,6a13.67,13.67,0,0,0-.71,1.18L15.36,19.31l12.35,2.42a22,22,0,0,0,17.61,3.45l22,4.3Z" transform="translate(-0.54 -0.24)"/>
    <path class="b" d="M75.81,15.34S50.86-3.49,31.5.91a16.86,16.86,0,0,0-1.7.47A12.33,12.33,0,0,0,23.22,6a13.67,13.67,0,0,0-.71,1.18L15.36,19.31l12.35,2.42a22,22,0,0,0,17.61,3.45l22,4.3Z" transform="translate(-0.54 -0.24)"/>
    <path class="c" d="M23,15.1a17.06,17.06,0,0,0-1.71.48c-7.9,2.55-10.6,9.93-6.06,16.41s14.63,9.65,22.54,7.1l29.49-9.56S42.39,10.7,23,15.1Z" transform="translate(-0.54 -0.24)"/>
    <path class="d" d="M23,15.1a17.06,17.06,0,0,0-1.71.48c-7.9,2.55-10.6,9.93-6.06,16.41s14.63,9.65,22.54,7.1l29.49-9.56S42.39,10.7,23,15.1Z" transform="translate(-0.54 -0.24)"/>
    <path class="e" d="M61.89,36.39c-4.54-6.48-14.63-9.7-22.53-7.14L9.82,38.8.54,55.36l52.83,9,9.47-16.84c1.89-3.32,1.7-7.38-1-11.17Z" transform="translate(-0.54 -0.24)"/>
    <path class="f" d="M52.61,52.9C48.07,46.42,38,43.2,30.08,45.76L.54,55.36s25,18.83,44.31,14.43a16.86,16.86,0,0,0,1.7-.47C54.46,66.76,57.16,59.38,52.61,52.9Z" transform="translate(-0.54 -0.24)"/>
  </g>
  <g>
    <path class="g" d="M109.71,45a12,12,0,0,0,8.1,3.4c3.4,0,6.2-2,6.2-5.4,0-7.8-15.5-5.9-15.5-15.5,0-4.5,4-8.3,9.7-8.3a12,12,0,0,1,8.3,3L125,24.8a10.38,10.38,0,0,0-6.8-2.7c-4,0-6.5,2.6-6.6,5.3,0,7.4,15.5,5.3,15.5,15.5,0,4.6-3.6,8.4-9.4,8.4a13.36,13.36,0,0,1-9.8-4Zm49.1-25.6a15.73,15.73,0,0,1,15.8,15.9,16,16,0,0,1-15.8,16.2h-.1a16,16,0,0,1-15.8-16.2v-.1A15.73,15.73,0,0,1,158.81,19.4Zm-.1,29.3a13,13,0,0,0,12.7-13.29V35.3c0-7.4-5.6-13.1-12.6-13.1a12.72,12.72,0,0,0-12.7,13C146.11,42.8,151.71,48.6,158.71,48.7ZM192.61,20h3l-.1,28.3h14.4V51h-17.5Zm33.9.1h3l-.1,31.1h-3Zm23.2,0h10c9.3,0,15.6,5.7,15.6,15.6s-6.3,15.5-15.6,15.5h-10Zm9.6,28.4c7.6,0,12.7-4.5,12.8-12.8s-5.1-12.8-12.7-12.8h-6.7l-.1,25.6Z" transform="translate(-0.54 -0.24)"/>
    <g>
      <path class="g" d="M301.48,51.2a10.27,10.27,0,0,0,7.06-2.52,9,9,0,0,0,2.86-7.1h0V20.47h-6.25V41.12a4.2,4.2,0,0,1-1,3,3.61,3.61,0,0,1-2.77,1.07q-2.94,0-4.29-3.45h0l-5.29,2.95Q294.39,51.2,301.48,51.2Z" transform="translate(-0.54 -0.24)"/>
      <path class="g" d="M338.94,51.27c3.47,0,6.19-.86,8.14-2.59A8.61,8.61,0,0,0,350,41.89a7.09,7.09,0,0,0-2.5-5.67c-1.68-1.44-4.37-2.68-8.07-3.74a11.76,11.76,0,0,1-3.76-1.57,2.57,2.57,0,0,1-1.1-2.15,2.7,2.7,0,0,1,1.1-2.25,4.6,4.6,0,0,1,2.91-.85,5.67,5.67,0,0,1,5.71,3.72h0l5.17-2.83a10.05,10.05,0,0,0-4.07-4.84A12.17,12.17,0,0,0,338.86,20a11.11,11.11,0,0,0-7.45,2.6,8.11,8.11,0,0,0-3.09,6.55,7.5,7.5,0,0,0,2.32,5.61q2.08,2.1,7.37,3.69a16.51,16.51,0,0,1,4.52,1.82,2.33,2.33,0,0,1,1.19,2.09,2.74,2.74,0,0,1-1.29,2.31,5.64,5.64,0,0,1-3.3.91,7,7,0,0,1-6.6-4.23h0l-5.4,2.79a10.85,10.85,0,0,0,4.49,5.23A13.74,13.74,0,0,0,338.94,51.27Z" transform="translate(-0.54 -0.24)"/>
    </g>
  </g>
</svg>
