<svg enable-background="new 0 0 384.25 438.57" viewBox="0 0 384.25 438.57" xmlns="http://www.w3.org/2000/svg"><g fill="#999"><path d="m233.22 184.81c-12.46 0-22.29 10.93-22.29 24.26s10.05 24.26 22.29 24.26c12.46 0 22.29-10.93 22.3-24.26-.01-13.33-9.85-24.26-22.3-24.26z"/><path d="m153.44 184.81c-12.46 0-22.29 10.93-22.29 24.26s10.05 24.26 22.29 24.26c12.46 0 22.29-10.93 22.29-24.26.22-13.33-9.83-24.26-22.29-24.26z"/><path d="m384.25 46.46c0-24.92-20.11-45.03-44.81-45.03h-292.88c-24.7 0-44.81 20.11-44.81 45.03v295.51c0 24.92 20.11 45.03 44.81 45.03h240.44l-4.17-40.43c63.96 59.47 46.35 43.36 101.42 92.02zm-129.18 240.42s-7.87-9.4-14.43-17.7c28.63-8.09 39.56-26.01 39.56-26.01-8.96 5.9-17.49 10.05-25.14 12.9-47.09 19.78-99.5 13.01-136.39-7.65-.44-.29-5.75-3.22-8.96-5.46 0 0 10.49 17.48 38.25 25.79-6.56 8.31-14.65 18.14-14.65 18.14-48.3-1.53-66.66-33.22-66.66-33.22 0-70.38 31.47-127.43 31.47-127.43 31.47-23.61 61.42-22.95 61.42-22.95l2.18 2.62c-39.34 11.37-57.49 28.63-57.49 28.63s4.81-2.62 12.9-6.34c50.36-22.12 111.35-22.12 163.27 6.34 0 0-17.27-16.39-54.42-27.76l3.06-3.5s29.94-.66 61.42 22.95c0 0 31.47 57.05 31.47 127.42.02.01-18.55 31.7-66.86 33.23z"/></g></svg>