<svg xmlns="http://www.w3.org/2000/svg" viewBox="0 0 24 24">
  <path fill="#999" d="M20.3483 4.4015a.0612.0612 0 0 0-.0312-.0286 19.7986 19.7986 0 0 0-4.8852-1.5145.0741.0741 0 0 0-.0785.0371 13.774 13.774 0 0 0-.6081 1.249 18.2796 18.2796 0 0 0-5.4868 0 12.6344 12.6344 0 0 0-.6178-1.249.0771.0771 0 0 0-.0785-.0371A19.7425 19.7425 0 0 0 3.6769 4.373a.0699.0699 0 0 0-.0321.0276C.5334 9.047-.319 13.5792.0992 18.0553a.0823.0823 0 0 0 .0312.0562 19.9048 19.9048 0 0 0 5.9929 3.028.0776.0776 0 0 0 .0842-.0275 14.2123 14.2123 0 0 0 1.226-1.9936.076.076 0 0 0-.0416-.1056 13.1091 13.1091 0 0 1-1.8722-.892.077.077 0 0 1-.0075-.1275c.1258-.0943.2517-.1923.3718-.2914a.0742.0742 0 0 1 .0775-.0104c3.9278 1.7925 8.18 1.7925 12.0613 0a.074.074 0 0 1 .0785.0095c.1202.099.246.198.3728.2923a.0769.0769 0 0 1-.0067.1275 12.3024 12.3024 0 0 1-1.873.891.0765.0765 0 0 0-.0408.1066 15.9615 15.9615 0 0 0 1.225 1.9925.076.076 0 0 0 .0842.0286 19.8388 19.8388 0 0 0 6.0026-3.028.0768.0768 0 0 0 .0312-.0552c.5006-5.1749-.838-9.67-3.5483-13.6548ZM8.02 15.3299c-1.1826 0-2.157-1.0852-2.157-2.418 0-1.3327.9555-2.418 2.157-2.418 1.2108 0 2.1757 1.0947 2.1568 2.418 0 1.3328-.9555 2.418-2.1568 2.418Zm7.9747 0c-1.1825 0-2.1569-1.0852-2.1569-2.418 0-1.3327.9555-2.418 2.1569-2.418 1.2109 0 2.1758 1.0947 2.1569 2.418 0 1.3328-.946 2.418-2.157 2.418Z"/>
</svg>