<svg enable-background="new 0 0 120.78 120.07" viewBox="0 0 120.78 120.07" xmlns="http://www.w3.org/2000/svg"><path clip-rule="evenodd" d="m60.39 1.28c-33.35 0-60.39 27.03-60.39 60.38 0 26.68 17.3 49.32 41.3 57.3 3.02.56 4.13-1.31 4.13-2.91 0-1.44-.06-6.2-.08-11.24-16.81 3.66-20.35-7.12-20.35-7.12-2.75-6.98-6.7-8.84-6.7-8.84-5.48-3.75.41-3.67.41-3.67 6.06.43 9.26 6.22 9.26 6.22 5.39 9.23 14.13 6.56 17.57 5.02.54-3.9 2.11-6.57 3.83-8.08-13.41-1.53-27.51-6.71-27.51-29.84 0-6.59 2.36-11.98 6.22-16.21-.63-1.52-2.69-7.66.58-15.98 0 0 5.07-1.62 16.61 6.19 4.82-1.34 9.98-2.01 15.12-2.03 5.13.02 10.3.69 15.13 2.03 11.53-7.81 16.59-6.19 16.59-6.19 3.29 8.32 1.22 14.46.59 15.98 3.87 4.23 6.21 9.62 6.21 16.21 0 23.19-14.13 28.3-27.57 29.8 2.17 1.87 4.1 5.55 4.1 11.18 0 8.08-.07 14.58-.07 16.57 0 1.61 1.09 3.49 4.15 2.9 23.98-7.99 41.26-30.62 41.26-57.29 0-33.35-27.04-60.38-60.39-60.38z" fill="#999" fill-rule="evenodd"/></svg>