<?xml version="1.0" encoding="utf-8"?>
<!-- Generator: Adobe Illustrator 25.2.3, SVG Export Plug-In . SVG Version: 6.00 Build 0)  -->
<svg version="1.1" id="Layer_1" xmlns="http://www.w3.org/2000/svg" xmlns:xlink="http://www.w3.org/1999/xlink" x="0px" y="0px"
	 viewBox="0 0 63 12.8" style="enable-background:new 0 0 63 12.8;" xml:space="preserve">
<g>
	<path d="M0.8,9.9c0,0,1.2,1.3,3.1,1.3c1.3,0,2.3-0.8,2.3-2c0-2.9-5.8-2.2-5.8-5.8c0-1.7,1.4-3.2,3.6-3.2c2,0,3.1,1.1,3.1,1.1
		l-0.5,1c0,0-1-1-2.5-1s-2.4,1-2.5,2c0,2.7,5.8,2,5.8,5.8c0,1.7-1.3,3.2-3.5,3.2c-2.4,0-3.7-1.5-3.7-1.5L0.8,9.9z"/>
	<path d="M19.1,0.3c3.3,0,5.9,2.6,5.9,6s-2.6,6.1-5.9,6.1s-5.9-2.7-5.9-6.1S15.8,0.3,19.1,0.3z M19.1,11.3c2.6,0,4.7-2.2,4.7-5
		s-2.1-4.9-4.7-4.9s-4.7,2.1-4.7,4.9C14.3,9,16.4,11.3,19.1,11.3z"/>
	<path d="M31.7,0.5h1.1v10.6h5.3v1h-6.5L31.7,0.5z"/>
	<path d="M44.4,0.6h1.1v11.6h-1.1V0.6z"/>
	<path d="M53,0.6h3.7c3.5,0,5.8,2.2,5.8,5.8c0,3.7-2.4,5.8-5.9,5.8h-3.7L53,0.6z M56.6,11.2c2.8,0,4.8-1.6,4.8-4.8
		c0-3.1-1.9-4.8-4.7-4.8h-2.5v9.6H56.6z"/>
</g>
</svg>
